<svg width="59" height="21" viewBox="0 0 59 21" fill="none" xmlns="http://www.w3.org/2000/svg">
<g clip-path="url(#clip0)">
<path d="M3.72699 10.3599L3.72694 10.3602C3.70616 10.5239 3.74052 10.6166 3.7808 10.6779C3.8271 10.7482 3.9124 10.8225 4.05635 10.8896C4.35551 11.0293 4.7791 11.079 5.13503 11.079L5.21246 11.079L5.28988 11.079L5.3673 11.079L5.44472 11.079L5.52214 11.079L5.59956 11.079L5.67699 11.079L5.75441 11.079L5.83183 11.079L5.90925 11.079L5.98667 11.079L6.06409 11.079L6.14152 11.079L6.21894 11.079L6.29636 11.079L6.37378 11.079L6.4512 11.079L6.52863 11.079L6.60605 11.079L6.68347 11.079L6.76089 11.079L6.83831 11.079L6.91573 11.079L6.99316 11.079L7.07058 11.079L7.148 11.079L7.22542 11.079L7.30285 11.079L7.38026 11.079L7.45769 11.079L7.53511 11.079L7.61253 11.079L7.68995 11.079L7.76738 11.079L7.8448 11.079L7.92222 11.079L7.99964 11.079L8.07706 11.079L8.15448 11.079L8.23191 11.079L8.30933 11.079L8.38675 11.079L8.46417 11.079L8.5416 11.079L8.61902 11.079L8.69644 11.079L8.77386 11.079L8.85128 11.079L8.92871 11.079L9.00613 11.079L9.08355 11.079L9.16097 11.079L9.2384 11.079L9.31582 11.079L9.39324 11.079L9.47066 11.079L9.54808 11.079L9.62551 11.079L9.70293 11.079L9.78035 11.079L9.85777 11.079L9.9352 11.079L10.0126 11.079L10.09 11.079L10.1675 11.079L10.2449 11.079L10.3223 11.079L10.3997 11.079L10.4772 11.079L10.5546 11.079L10.632 11.079L10.7094 11.079L10.7868 11.079L10.8643 11.079L10.9417 11.079L11.0191 11.079L11.0965 11.079L11.174 11.079L11.2514 11.079L11.3288 11.079L11.4062 11.079L11.4837 11.079L11.5611 11.079L11.6385 11.079L11.7159 11.079L11.7933 11.079L11.8708 11.079L11.9482 11.079L12.0256 11.079L12.103 11.079L12.1805 11.079L12.2579 11.079L12.3353 11.079L12.4127 11.079L12.4901 11.079L12.5676 11.079L12.645 11.079L12.7224 11.079L12.7998 11.079L12.8773 11.079L12.9547 11.079L13.0321 11.079L13.1095 11.079L13.187 11.079L13.2644 11.079L13.3418 11.079L13.4192 11.079L13.4967 11.079L13.5741 11.079L13.6515 11.079L13.7289 11.079L13.8063 11.079L13.8838 11.079L13.9612 11.079L14.0386 11.079L14.116 11.079L14.1935 11.079L14.2709 11.079L14.3483 11.079L14.4257 11.079L14.5032 11.079L14.5806 11.079L14.658 11.079L14.7354 11.079L14.8129 11.079L14.8903 11.079L14.9677 11.079L15.0451 11.079L15.1226 11.079L15.2 11.079L15.2774 11.079L15.3548 11.079L15.4323 11.079L15.5097 11.079L15.5871 11.079L15.6645 11.079L15.742 11.079L15.8194 11.079L15.8968 11.079L15.9742 11.079L16.0517 11.079L16.1291 11.079L16.2065 11.079L16.2839 11.079L16.3614 11.079L16.4388 11.079L16.5162 11.079L16.5936 11.079L16.6711 11.079L16.7485 11.079L16.8259 11.079L16.9033 11.079L16.9808 11.079L17.0582 11.079L17.1356 11.079L17.213 11.079L17.2905 11.079L17.3679 11.079L17.4453 11.079L17.5227 11.079L17.6002 11.079L17.6776 11.079L17.755 11.079L17.8324 11.079L17.9099 11.079L17.9873 11.079L18.0647 11.079L18.1421 11.079L18.2196 11.079L18.297 11.079L18.3744 11.079L18.4519 11.079L18.5293 11.079L18.6067 11.079L18.6841 11.079L18.7616 11.079L18.839 11.079L18.9164 11.079L18.9938 11.079L19.0713 11.079L19.1487 11.079L19.2261 11.079L19.3036 11.079L19.381 11.079L19.4584 11.079L19.5358 11.079L19.6133 11.079L19.6907 11.079L19.7681 11.079L19.8455 11.079L19.923 11.079L20.0004 11.079L20.0778 11.079L20.1553 11.079L20.2327 11.079L20.3101 11.079L20.3875 11.079L20.465 11.079L20.5424 11.079L20.6198 11.079L20.6972 11.079L20.7747 11.079L20.8521 11.079L20.9295 11.079L21.007 11.079L21.0844 11.079L21.1618 11.079L21.2392 11.079L21.3167 11.079L21.3941 11.079L21.4715 11.079L21.549 11.079L21.6264 11.079L21.7038 11.079L21.7813 11.079L21.8587 11.079L21.9361 11.079L22.0135 11.079L22.091 11.079L22.1684 11.079L22.2458 11.079L22.3233 11.079L22.4007 11.079L22.4781 11.079L22.5555 11.079L22.633 11.079L22.7104 11.079L22.7878 11.079L22.8653 11.079L22.9427 11.079L23.0201 11.079L23.0976 11.079L23.175 11.079L23.2524 11.079L23.3298 11.079L23.4073 11.079L23.4847 11.079L23.5621 11.079L23.6396 11.079L23.717 11.079L23.7944 11.079L23.8719 11.079L23.9493 11.079L24.0267 11.079L24.1042 11.079L24.1816 11.079L24.259 11.079L24.3365 11.079L24.4139 11.079L24.4913 11.079L24.5688 11.079L24.6462 11.079L24.7236 11.079L24.801 11.079L24.8785 11.079L24.9559 11.079L25.0333 11.079L25.1108 11.079L25.1882 11.079L25.2656 11.079L25.3431 11.079L25.4205 11.079L25.4979 11.079L25.5754 11.079L25.6528 11.079L25.7302 11.079L25.8077 11.079L25.8851 11.079L25.9625 11.079L26.04 11.079L26.1174 11.079L26.1948 11.079L26.2723 11.079L26.3497 11.079L26.4271 11.079L26.5046 11.079L26.582 11.079L26.6594 11.079L26.7369 11.079L26.8143 11.079L26.8917 11.079L26.9692 11.079L27.0466 11.079L27.1241 11.079L27.2015 11.079L27.2789 11.079L27.3564 11.079L27.4338 11.079L27.5112 11.079L27.5887 11.079L27.6661 11.079L27.7435 11.079L27.821 11.079L27.8984 11.079L27.9758 11.079L28.0533 11.079L28.1307 11.079L28.2081 11.079L28.2856 11.079L28.363 11.079L28.4405 11.079L28.5179 11.079L28.5953 11.079L28.6728 11.079L28.7502 11.079L28.8276 11.079L28.9051 11.079L28.9825 11.079L29.0599 11.079L29.1374 11.079L29.2148 11.079L29.2923 11.079L29.3697 11.079L29.4471 11.079L29.5246 11.079L29.602 11.079L29.6795 11.079L29.7569 11.079L29.8343 11.079L29.9118 11.079L29.9892 11.079L30.0666 11.079L30.1441 11.079L30.2215 11.079L30.299 11.079L30.3764 11.079L30.4538 11.079L30.5313 11.079L30.6087 11.079L30.6862 11.079L30.7636 11.079L30.841 11.079L30.9185 11.079L30.9959 11.079L31.0734 11.079L31.1508 11.079L31.2282 11.079L31.3057 11.079L31.3831 11.079L31.4606 11.079L31.538 11.079L31.6154 11.079L31.6929 11.079L31.7703 11.079L31.8478 11.079L31.9252 11.079L32.0026 11.079L32.0801 11.079L32.1575 11.079L32.235 11.079L32.3124 11.079L32.3898 11.079L32.4673 11.079L32.5447 11.079L32.6222 11.079L32.6996 11.079L32.7771 11.079L32.8545 11.079L32.9319 11.079L33.0094 11.079L33.0868 11.079L33.1643 11.079L33.2417 11.079L33.3192 11.079L33.3966 11.079L33.474 11.079L33.5515 11.079L33.6289 11.079L33.7064 11.079L33.7838 11.079L33.8613 11.079L33.9387 11.079L34.0161 11.079L34.0936 11.079L34.171 11.079L34.2485 11.079L34.3259 11.079L34.4034 11.079L34.4808 11.079L34.5583 11.079L34.6357 11.079L34.7132 11.079L34.7906 11.079L34.868 11.079L34.9455 11.079L35.0229 11.079L35.1004 11.079L35.1778 11.079L35.2553 11.079L35.3327 11.079L35.4102 11.079L35.4876 11.079L35.5651 11.079L35.6425 11.079L35.7199 11.079L35.7974 11.079L35.8748 11.079L35.9523 11.079L36.0297 11.079L36.1072 11.079L36.1846 11.079L36.2621 11.079L36.3395 11.079L36.417 11.079L36.4944 11.079L36.5719 11.079L36.6493 11.079L36.7268 11.079L36.8042 11.079L36.8817 11.079L36.9591 11.079L37.0366 11.079L37.114 11.079L37.1915 11.079L37.2689 11.079L37.3464 11.079L37.4238 11.079L37.5013 11.079L37.5787 11.079L37.6562 11.079L37.7336 11.079L37.8111 11.079L37.8885 11.079L37.966 11.079L38.0434 11.079L38.1209 11.079L38.1983 11.079L38.2758 11.079L38.3532 11.079L38.4307 11.079L38.5081 11.079L38.5856 11.079L38.663 11.079L38.7405 11.079L38.8179 11.079L38.8954 11.079L38.9728 11.079L39.0503 11.079L39.1277 11.079L39.2052 11.079L39.2827 11.079L39.3601 11.079L39.4376 11.079L39.515 11.079L39.5925 11.079L39.6699 11.079L39.7474 11.079L39.8248 11.079L39.9023 11.079L39.9797 11.079L40.0572 11.079L40.1346 11.079L40.2121 11.079L40.2896 11.079L40.367 11.079L40.4445 11.079L40.5219 11.079L40.5994 11.079L40.6768 11.079L40.7543 11.079L40.8317 11.079L40.9092 11.079L40.9867 11.079L41.0641 11.079L41.1416 11.079L41.219 11.079L41.2965 11.079L41.3739 11.079L41.4514 11.079L41.5289 11.079L41.6063 11.079L41.6838 11.079L41.7612 11.079L41.8387 11.079L41.9161 11.079L41.9936 11.079L42.0711 11.079L42.1485 11.079L42.226 11.079L42.3034 11.079L42.3809 11.079L42.4584 11.079L42.5358 11.079L42.6133 11.079L42.6907 11.079L42.7682 11.079L42.8456 11.079L42.9231 11.079L43.0006 11.079L43.078 11.079L43.1555 11.079L43.233 11.079L43.3104 11.079L43.3879 11.079L43.4653 11.079L43.5428 11.079L43.6203 11.079L43.6977 11.079L43.7752 11.079L43.8526 11.079L43.9301 11.079L44.0076 11.079L44.085 11.079L44.1625 11.079L44.24 11.079L44.3174 11.079L44.3949 11.079L44.4723 11.079L44.5498 11.079L44.6273 11.079L44.7047 11.079L44.7822 11.079L3.72699 10.3599ZM3.72699 10.3599C3.76193 10.0834 3.98179 9.78317 4.37369 9.53285C4.75939 9.2865 5.21548 9.15346 5.54615 9.15346L5.56795 9.15346L5.58976 9.15346L5.61157 9.15346L5.63337 9.15346L5.65518 9.15346L5.67699 9.15346L5.6988 9.15346L5.7206 9.15346L5.74241 9.15346L5.76422 9.15346L5.78603 9.15346L5.80784 9.15346L5.82965 9.15346L5.85146 9.15346L5.87326 9.15346L5.89507 9.15346L5.91688 9.15346L5.93869 9.15346L5.9605 9.15346L5.98231 9.15346L6.00412 9.15346L6.02593 9.15346L6.04774 9.15346L6.06955 9.15346L6.09136 9.15346L6.11317 9.15346L6.13498 9.15346L6.15679 9.15346L6.1786 9.15346L6.20041 9.15346L6.22223 9.15346L6.24404 9.15346L6.26585 9.15346L6.28766 9.15346L6.30947 9.15346L6.33128 9.15346L6.3531 9.15346L6.37491 9.15346L6.39672 9.15346L6.41853 9.15346L6.44035 9.15346L6.46216 9.15346L6.48397 9.15346L6.50579 9.15346L6.5276 9.15346L6.54941 9.15346L6.57122 9.15346L6.59304 9.15346L6.61485 9.15346L6.63667 9.15346L6.65848 9.15346L6.68029 9.15346L6.70211 9.15346L6.72392 9.15346L6.74574 9.15346L6.76756 9.15346L6.78937 9.15346L6.81118 9.15346L6.833 9.15346L6.85481 9.15346L6.87663 9.15346L6.89845 9.15346L6.92026 9.15346L6.94208 9.15346L6.96389 9.15346L6.98571 9.15346L7.00752 9.15346L7.02934 9.15346L7.05116 9.15346L7.07298 9.15346L7.09479 9.15346L7.11661 9.15346L7.13842 9.15346L7.16024 9.15346L7.18206 9.15346L7.20388 9.15346L7.22569 9.15346L7.24751 9.15346L7.26933 9.15346L7.29115 9.15346L7.31296 9.15346L7.33478 9.15346L7.3566 9.15346L7.37842 9.15346L7.40023 9.15346L7.42205 9.15346L7.44387 9.15346L7.46569 9.15346L7.48751 9.15346L7.50933 9.15346L7.53115 9.15346L7.55297 9.15346L7.57478 9.15346L7.5966 9.15346L7.61842 9.15346L7.64024 9.15346L7.66206 9.15346L7.68388 9.15346L7.7057 9.15346L7.72752 9.15346L7.74934 9.15346L7.77116 9.15346L7.79298 9.15346L7.8148 9.15346L7.83662 9.15346L7.85844 9.15346L7.88026 9.15346L7.90208 9.15346L7.9239 9.15346L7.94572 9.15346L7.96754 9.15346L7.98936 9.15346L8.01119 9.15346L8.03301 9.15346L8.05483 9.15346L8.07665 9.15346L8.09847 9.15346L8.12029 9.15346L8.14212 9.15346L8.16394 9.15346L8.18576 9.15346L8.20758 9.15346L8.2294 9.15346L8.25122 9.15346L8.27305 9.15346L8.29487 9.15346L8.31669 9.15346L8.33851 9.15346L8.36034 9.15346L8.38216 9.15346L8.40398 9.15346L8.4258 9.15346L8.44763 9.15346L8.46945 9.15346L8.49127 9.15346L8.5131 9.15346L8.53492 9.15346L8.55674 9.15346L8.57856 9.15346L8.60039 9.15346L8.62221 9.15346L8.64404 9.15346L8.66586 9.15346L8.68768 9.15346L8.70951 9.15346L8.73133 9.15346L8.75315 9.15346L8.77498 9.15346L8.7968 9.15346L8.81863 9.15346L8.84045 9.15346L8.86227 9.15346L8.8841 9.15346L8.90592 9.15346L8.92775 9.15346L8.94957 9.15346L8.9714 9.15346L8.99322 9.15346L9.01505 9.15346L9.03687 9.15346L9.05869 9.15346L9.08052 9.15346L9.10234 9.15346L9.12417 9.15346L9.146 9.15346L9.16782 9.15346L9.18964 9.15346L9.21147 9.15346L9.2333 9.15346L9.25512 9.15346L9.27695 9.15346L9.29877 9.15346L9.32059 9.15346L9.34242 9.15346L9.36425 9.15346L9.38607 9.15346L9.4079 9.15346L9.42973 9.15346L9.45155 9.15346L9.47338 9.15346L9.4952 9.15346L9.51703 9.15346L9.53885 9.15346L9.56068 9.15346L9.5825 9.15346L9.60433 9.15346L9.62616 9.15346L9.64798 9.15346L9.66981 9.15346L9.69164 9.15346L9.71346 9.15346L9.73529 9.15346L9.75711 9.15346L9.77894 9.15346L9.80077 9.15346L9.82259 9.15346L9.84442 9.15346L9.86625 9.15346L9.88808 9.15346L9.9099 9.15346L9.93173 9.15346L9.95356 9.15346L9.97538 9.15346L9.99721 9.15346L10.019 9.15346L10.0409 9.15346L10.0627 9.15346L10.0845 9.15346L10.1063 9.15346L10.1282 9.15346L10.15 9.15346L10.1718 9.15346L10.1937 9.15346L10.2155 9.15346L10.2373 9.15346L10.2591 9.15346L10.281 9.15346L10.3028 9.15346L10.3246 9.15346L10.3464 9.15346L10.3683 9.15346L10.3901 9.15346L10.4119 9.15346L10.4338 9.15346L10.4556 9.15346L10.4774 9.15346L10.4992 9.15346L10.5211 9.15346L10.5429 9.15346L10.5647 9.15346L10.5865 9.15346L10.6084 9.15346L10.6302 9.15346L10.652 9.15346L10.6739 9.15346L10.6957 9.15346L10.7175 9.15346L10.7393 9.15346L10.7612 9.15346L10.783 9.15346L10.8048 9.15346L10.8266 9.15346L10.8485 9.15346L10.8703 9.15346L10.8921 9.15346L10.914 9.15346L10.9358 9.15346L10.9576 9.15346L10.9794 9.15346L11.0013 9.15346L11.0231 9.15346L11.0449 9.15346L11.0667 9.15346L11.0886 9.15346L11.1104 9.15346L11.1322 9.15346L11.1541 9.15346L11.1759 9.15346L11.1977 9.15346L11.2195 9.15346L11.2414 9.15346L11.2632 9.15346L11.285 9.15346L11.3069 9.15346L11.3287 9.15346L11.3505 9.15346L11.3723 9.15346L11.3942 9.15346L11.416 9.15346L11.4378 9.15346L11.4596 9.15346L11.4815 9.15346L11.5033 9.15346L11.5251 9.15346L11.547 9.15346L11.5688 9.15346L11.5906 9.15346L11.6124 9.15346L11.6343 9.15346L11.6561 9.15346L11.6779 9.15346L11.6998 9.15346L11.7216 9.15346L11.7434 9.15346L11.7652 9.15346L11.7871 9.15346L11.8089 9.15346L11.8307 9.15346L11.8525 9.15346L11.8744 9.15346L11.8962 9.15346L11.918 9.15346L11.9399 9.15346L11.9617 9.15346L11.9835 9.15346L12.0053 9.15346L12.0272 9.15346L12.049 9.15346L12.0708 9.15346L12.0926 9.15346L12.1145 9.15346L12.1363 9.15346L12.1581 9.15346L12.18 9.15346L12.2018 9.15346L12.2236 9.15346L12.2454 9.15346L12.2673 9.15346L12.2891 9.15346L12.3109 9.15346L12.3327 9.15346L12.3546 9.15346L12.3764 9.15346L12.3982 9.15346L12.42 9.15346L12.4419 9.15346L12.4637 9.15346L12.4855 9.15346L12.5074 9.15346L12.5292 9.15346L12.551 9.15346L12.5728 9.15346L12.5947 9.15346L12.6165 9.15346L12.6383 9.15346L12.6601 9.15346L12.682 9.15346L12.7038 9.15346L12.7256 9.15346L12.7474 9.15346L12.7693 9.15346L12.7911 9.15346L12.8129 9.15346L12.8347 9.15346L12.8566 9.15346L12.8784 9.15346L12.9002 9.15346L12.922 9.15346L12.9439 9.15346L12.9657 9.15346L12.9875 9.15346L13.0094 9.15346L13.0312 9.15346L13.053 9.15346L13.0748 9.15346L13.0966 9.15346L13.1185 9.15346L13.1403 9.15346L13.1621 9.15346L13.1839 9.15346L13.2058 9.15346L13.2276 9.15346L13.2494 9.15346L13.2712 9.15346L13.2931 9.15346L13.3149 9.15346L13.3367 9.15346L13.3585 9.15346L13.3804 9.15346L13.4022 9.15346L13.424 9.15346L13.4458 9.15346L13.4677 9.15346L13.4895 9.15346L13.5113 9.15346L13.5331 9.15346L13.555 9.15346L13.5768 9.15346L13.5986 9.15346L13.6204 9.15346L13.6423 9.15346L13.6641 9.15346L13.6859 9.15346L13.7077 9.15346L13.7295 9.15346L13.7514 9.15346L13.7732 9.15346L13.795 9.15346L13.8168 9.15346L13.8387 9.15346L13.8605 9.15346L13.8823 9.15346L13.9041 9.15346L13.926 9.15346L13.9478 9.15346L13.9696 9.15346L13.9914 9.15346L14.0132 9.15346L14.0351 9.15346L14.0569 9.15346L14.0787 9.15346L14.1005 9.15346L14.1224 9.15346L14.1442 9.15346L14.166 9.15346L14.1878 9.15346L14.2096 9.15346L14.2315 9.15346L14.2533 9.15346L14.2751 9.15346L14.2969 9.15346L14.3187 9.15346L14.3406 9.15346L14.3624 9.15346L14.3842 9.15346L14.406 9.15346L14.4278 9.15346L14.4497 9.15346L14.4715 9.15346L14.4933 9.15346L14.5151 9.15346L14.5369 9.15346L14.5588 9.15346L14.5806 9.15346L14.6024 9.15346L14.6242 9.15346L14.646 9.15346L14.6679 9.15346L14.6897 9.15346L14.7115 9.15346L14.7333 9.15346L14.7551 9.15346L14.777 9.15346L14.7988 9.15346L14.8206 9.15346L14.8424 9.15346L14.8642 9.15346L14.8861 9.15346L14.9079 9.15346L14.9297 9.15346L14.9515 9.15346L14.9733 9.15346L14.9951 9.15346L15.017 9.15346L15.0388 9.15346L15.0606 9.15346L15.0824 9.15346L15.1042 9.15346L15.126 9.15346L15.1479 9.15346L15.1697 9.15346L15.1915 9.15346L15.2133 9.15346L15.2351 9.15346L15.2569 9.15346L15.2788 9.15346L15.3006 9.15346L15.3224 9.15346L15.3442 9.15346L15.366 9.15346L15.3878 9.15346L15.4097 9.15346L15.4315 9.15346L15.4533 9.15346L15.4751 9.15346L15.4969 9.15346L15.5187 9.15346L15.5405 9.15346L15.5624 9.15346L15.5842 9.15346L15.606 9.15346L15.6278 9.15346L15.6496 9.15346L15.6714 9.15346L15.6932 9.15346L15.7151 9.15346L15.7369 9.15346L15.7587 9.15346L15.7805 9.15346L15.8023 9.15346L15.8241 9.15346L15.8459 9.15346L15.8677 9.15346L15.8896 9.15346L15.9114 9.15346L15.9332 9.15346L15.955 9.15346L15.9768 9.15346L15.9986 9.15346L16.0204 9.15346L16.0422 9.15346L16.0641 9.15346L16.0859 9.15346L16.1077 9.15346L16.1295 9.15346L16.1513 9.15346L16.1731 9.15346L16.1949 9.15346L16.2167 9.15346L16.2385 9.15346L16.2603 9.15346L16.2822 9.15346L16.304 9.15346L16.3258 9.15346L16.3476 9.15346L16.3694 9.15346L16.3912 9.15346L16.413 9.15346L16.4348 9.15346L16.4566 9.15346L16.4784 9.15346L16.5002 9.15346L16.5221 9.15346L16.5439 9.15346L16.5657 9.15346L16.5875 9.15346L16.6093 9.15346L16.6311 9.15346L16.6529 9.15346L16.6747 9.15346L16.6965 9.15346L16.7183 9.15346L16.7958 9.15346M3.72699 10.3599L16.7958 9.15346M16.7958 9.15346L16.8732 9.15346M16.7958 9.15346L16.8732 9.15346M16.8732 9.15346L16.9507 9.15346M16.8732 9.15346L16.9507 9.15346M16.9507 9.15346L17.0282 9.15346M16.9507 9.15346L17.0282 9.15346M17.0282 9.15346L17.1056 9.15346M17.0282 9.15346L17.1056 9.15346M17.1056 9.15346L17.1831 9.15346M17.1056 9.15346L17.1831 9.15346M17.1831 9.15346L17.2606 9.15346M17.1831 9.15346L17.2606 9.15346M17.2606 9.15346L17.338 9.15346M17.2606 9.15346L17.338 9.15346M17.338 9.15346L17.4155 9.15346M17.338 9.15346L17.4155 9.15346M17.4155 9.15346L17.493 9.15346M17.4155 9.15346L17.493 9.15346M17.493 9.15346L17.5704 9.15346M17.493 9.15346L17.5704 9.15346M17.5704 9.15346L17.6479 9.15346M17.5704 9.15346L17.6479 9.15346M17.6479 9.15346L17.7253 9.15346M17.6479 9.15346L17.7253 9.15346M17.7253 9.15346L17.8028 9.15346M17.7253 9.15346L17.8028 9.15346M17.8028 9.15346L17.8803 9.15346M17.8028 9.15346L17.8803 9.15346M17.8803 9.15346L17.9577 9.15346M17.8803 9.15346L17.9577 9.15346M17.9577 9.15346L18.0352 9.15346M17.9577 9.15346L18.0352 9.15346M18.0352 9.15346L18.1126 9.15346M18.0352 9.15346L18.1126 9.15346M18.1126 9.15346L18.1901 9.15346M18.1126 9.15346L18.1901 9.15346M18.1901 9.15346L18.2676 9.15346M18.1901 9.15346L18.2676 9.15346M18.2676 9.15346L18.345 9.15346M18.2676 9.15346L18.345 9.15346M18.345 9.15346L18.4225 9.15346M18.345 9.15346L18.4225 9.15346M18.4225 9.15346L18.5 9.15346M18.4225 9.15346L18.5 9.15346M18.5 9.15346L18.5774 9.15346M18.5 9.15346L18.5774 9.15346M18.5774 9.15346L18.6549 9.15346M18.5774 9.15346L18.6549 9.15346M18.6549 9.15346L18.7323 9.15346M18.6549 9.15346L18.7323 9.15346M18.7323 9.15346L18.8098 9.15346M18.7323 9.15346L18.8098 9.15346M18.8098 9.15346L18.8873 9.15346M18.8098 9.15346L18.8873 9.15346M18.8873 9.15346L18.9647 9.15346M18.8873 9.15346L18.9647 9.15346M18.9647 9.15346L19.0422 9.15346M18.9647 9.15346L19.0422 9.15346M19.0422 9.15346L19.1196 9.15346M19.0422 9.15346L19.1196 9.15346M19.1196 9.15346L19.1971 9.15346M19.1196 9.15346L19.1971 9.15346M19.1971 9.15346L19.2745 9.15346M19.1971 9.15346L19.2745 9.15346M19.2745 9.15346L19.352 9.15346M19.2745 9.15346L19.352 9.15346M19.352 9.15346L19.4295 9.15346M19.352 9.15346L19.4295 9.15346M19.4295 9.15346L19.5069 9.15346M19.4295 9.15346L19.5069 9.15346M19.5069 9.15346L19.5844 9.15346M19.5069 9.15346L19.5844 9.15346M19.5844 9.15346L19.6618 9.15346M19.5844 9.15346L19.6618 9.15346M19.6618 9.15346L19.7393 9.15346M19.6618 9.15346L19.7393 9.15346M19.7393 9.15346L19.8168 9.15346M19.7393 9.15346L19.8168 9.15346M19.8168 9.15346L19.8942 9.15346M19.8168 9.15346L19.8942 9.15346M19.8942 9.15346L19.9717 9.15346M19.8942 9.15346L19.9717 9.15346M19.9717 9.15346L20.0491 9.15346M19.9717 9.15346L20.0491 9.15346M20.0491 9.15346L20.1266 9.15346M20.0491 9.15346L20.1266 9.15346M20.1266 9.15346L20.204 9.15346M20.1266 9.15346L20.204 9.15346M20.204 9.15346L20.2815 9.15346M20.204 9.15346L20.2815 9.15346M20.2815 9.15346L20.359 9.15346M20.2815 9.15346L20.359 9.15346M20.359 9.15346L20.4364 9.15346M20.359 9.15346L20.4364 9.15346M20.4364 9.15346L20.5139 9.15346M20.4364 9.15346L20.5139 9.15346M20.5139 9.15346L20.5913 9.15346M20.5139 9.15346L20.5913 9.15346M20.5913 9.15346L20.6688 9.15346M20.5913 9.15346L20.6688 9.15346M20.6688 9.15346L20.7462 9.15346M20.6688 9.15346L20.7462 9.15346M20.7462 9.15346L20.8237 9.15346M20.7462 9.15346L20.8237 9.15346M20.8237 9.15346L20.9011 9.15346M20.8237 9.15346L20.9011 9.15346M20.9011 9.15346L20.9786 9.15346M20.9011 9.15346L20.9786 9.15346M20.9786 9.15346L21.0561 9.15346M20.9786 9.15346L21.0561 9.15346M21.0561 9.15346L21.1335 9.15346M21.0561 9.15346L21.1335 9.15346M21.1335 9.15346L21.211 9.15346M21.1335 9.15346L21.211 9.15346M21.211 9.15346L21.2884 9.15346M21.211 9.15346L21.2884 9.15346M21.2884 9.15346L21.3659 9.15346M21.2884 9.15346L21.3659 9.15346M21.3659 9.15346L21.4433 9.15346M21.3659 9.15346L21.4433 9.15346M21.4433 9.15346L21.5208 9.15346M21.4433 9.15346L21.5208 9.15346M21.5208 9.15346L21.5982 9.15346M21.5208 9.15346L21.5982 9.15346M21.5982 9.15346L21.6757 9.15346M21.5982 9.15346L21.6757 9.15346M21.6757 9.15346L21.7532 9.15346M21.6757 9.15346L21.7532 9.15346M21.7532 9.15346L21.8306 9.15346M21.7532 9.15346L21.8306 9.15346M21.8306 9.15346L21.9081 9.15346M21.8306 9.15346L21.9081 9.15346M21.9081 9.15346L21.9855 9.15346M21.9081 9.15346L21.9855 9.15346M21.9855 9.15346L22.063 9.15346M21.9855 9.15346L22.063 9.15346M22.063 9.15346L22.1404 9.15346M22.063 9.15346L22.1404 9.15346M22.1404 9.15346L22.2179 9.15346M22.1404 9.15346L22.2179 9.15346M22.2179 9.15346L22.2953 9.15346M22.2179 9.15346L22.2953 9.15346M22.2953 9.15346L22.3728 9.15346M22.2953 9.15346L22.3728 9.15346M22.3728 9.15346L22.4502 9.15346M22.3728 9.15346L22.4502 9.15346M22.4502 9.15346L22.5277 9.15346M22.4502 9.15346L22.5277 9.15346M22.5277 9.15346L22.6051 9.15346M22.5277 9.15346L22.6051 9.15346M22.6051 9.15346L22.6826 9.15346M22.6051 9.15346L22.6826 9.15346M22.6826 9.15346L22.76 9.15346M22.6826 9.15346L22.76 9.15346M22.76 9.15346L22.8375 9.15346M22.76 9.15346L22.8375 9.15346M22.8375 9.15346L22.9149 9.15346M22.8375 9.15346L22.9149 9.15346M22.9149 9.15346L22.9924 9.15346M22.9149 9.15346L22.9924 9.15346M22.9924 9.15346L23.0699 9.15346M22.9924 9.15346L23.0699 9.15346M23.0699 9.15346L23.1473 9.15346M23.0699 9.15346L23.1473 9.15346M23.1473 9.15346L23.2248 9.15346M23.1473 9.15346L23.2248 9.15346M23.2248 9.15346L23.3022 9.15346M23.2248 9.15346L23.3022 9.15346M23.3022 9.15346L23.3797 9.15346M23.3022 9.15346L23.3797 9.15346M23.3797 9.15346L23.4571 9.15346M23.3797 9.15346L23.4571 9.15346M23.4571 9.15346L23.5346 9.15346M23.4571 9.15346L23.5346 9.15346M23.5346 9.15346L23.612 9.15346M23.5346 9.15346L23.612 9.15346M23.612 9.15346L23.6895 9.15346M23.612 9.15346L23.6895 9.15346M23.6895 9.15346L23.7669 9.15346M23.6895 9.15346L23.7669 9.15346M23.7669 9.15346L23.8444 9.15346M23.7669 9.15346L23.8444 9.15346M23.8444 9.15346L23.9218 9.15346M23.8444 9.15346L23.9218 9.15346M23.9218 9.15346L23.9993 9.15346M23.9218 9.15346L23.9993 9.15346M23.9993 9.15346L24.0767 9.15346M23.9993 9.15346L24.0767 9.15346M24.0767 9.15346L24.1542 9.15346M24.0767 9.15346L24.1542 9.15346M24.1542 9.15346L24.2316 9.15346M24.1542 9.15346L24.2316 9.15346M24.2316 9.15346L24.3091 9.15346M24.2316 9.15346L24.3091 9.15346M24.3091 9.15346L24.3865 9.15346M24.3091 9.15346L24.3865 9.15346M24.3865 9.15346L24.464 9.15346M24.3865 9.15346L24.464 9.15346M24.464 9.15346L24.5414 9.15346M24.464 9.15346L24.5414 9.15346M24.5414 9.15346L24.6189 9.15346M24.5414 9.15346L24.6189 9.15346M24.6189 9.15346L24.6963 9.15346M24.6189 9.15346L24.6963 9.15346M24.6963 9.15346L24.7738 9.15346M24.6963 9.15346L24.7738 9.15346M24.7738 9.15346L24.8512 9.15346M24.7738 9.15346L24.8512 9.15346M24.8512 9.15346L24.9287 9.15346M24.8512 9.15346L24.9287 9.15346M24.9287 9.15346L25.0061 9.15346M24.9287 9.15346L25.0061 9.15346M25.0061 9.15346L25.0835 9.15346M25.0061 9.15346L25.0835 9.15346M25.0835 9.15346L25.161 9.15346M25.0835 9.15346L25.161 9.15346M25.161 9.15346L25.2384 9.15346M25.161 9.15346L25.2384 9.15346M25.2384 9.15346L25.3159 9.15346M25.2384 9.15346L25.3159 9.15346M25.3159 9.15346L25.3933 9.15346M25.3159 9.15346L25.3933 9.15346M25.3933 9.15346L25.4708 9.15346M25.3933 9.15346L25.4708 9.15346M25.4708 9.15346L25.5482 9.15346M25.4708 9.15346L25.5482 9.15346M25.5482 9.15346L25.6257 9.15346M25.5482 9.15346L25.6257 9.15346M25.6257 9.15346L25.7031 9.15346M25.6257 9.15346L25.7031 9.15346M25.7031 9.15346L25.7806 9.15346M25.7031 9.15346L25.7806 9.15346M25.7806 9.15346L25.858 9.15346M25.7806 9.15346L25.858 9.15346M25.858 9.15346L25.9355 9.15346M25.858 9.15346L25.9355 9.15346M25.9355 9.15346L26.0129 9.15346M25.9355 9.15346L26.0129 9.15346M26.0129 9.15346L26.0904 9.15346M26.0129 9.15346L26.0904 9.15346M26.0904 9.15346L26.1678 9.15346M26.0904 9.15346L26.1678 9.15346M26.1678 9.15346L26.2453 9.15346M26.1678 9.15346L26.2453 9.15346M26.2453 9.15346L26.3227 9.15346M26.2453 9.15346L26.3227 9.15346M26.3227 9.15346L26.4001 9.15346M26.3227 9.15346L26.4001 9.15346M26.4001 9.15346L26.4776 9.15346M26.4001 9.15346L26.4776 9.15346M26.4776 9.15346L26.555 9.15346M26.4776 9.15346L26.555 9.15346M26.555 9.15346L26.6325 9.15346M26.555 9.15346L26.6325 9.15346M26.6325 9.15346L26.7099 9.15346M26.6325 9.15346L26.7099 9.15346M26.7099 9.15346L26.7874 9.15346M26.7099 9.15346L26.7874 9.15346M26.7874 9.15346L26.8648 9.15346M26.7874 9.15346L26.8648 9.15346M26.8648 9.15346L26.9423 9.15346M26.8648 9.15346L26.9423 9.15346M26.9423 9.15346L27.0197 9.15346M26.9423 9.15346L27.0197 9.15346M27.0197 9.15346L27.0972 9.15346M27.0197 9.15346L27.0972 9.15346M27.0972 9.15346L27.1746 9.15346M27.0972 9.15346L27.1746 9.15346M27.1746 9.15346L27.252 9.15346M27.1746 9.15346L27.252 9.15346M27.252 9.15346L27.3295 9.15346M27.252 9.15346L27.3295 9.15346M27.3295 9.15346L27.4069 9.15346M27.3295 9.15346L27.4069 9.15346M27.4069 9.15346L27.4844 9.15346M27.4069 9.15346L27.4844 9.15346M27.4844 9.15346L27.5618 9.15346M27.4844 9.15346L27.5618 9.15346M27.5618 9.15346L27.6393 9.15346M27.5618 9.15346L27.6393 9.15346M27.6393 9.15346L27.7167 9.15346M27.6393 9.15346L27.7167 9.15346M27.7167 9.15346L27.7942 9.15346M27.7167 9.15346L27.7942 9.15346M27.7942 9.15346L27.8716 9.15346M27.7942 9.15346L27.8716 9.15346M27.8716 9.15346L27.949 9.15346M27.8716 9.15346L27.949 9.15346M27.949 9.15346L28.0265 9.15346M27.949 9.15346L28.0265 9.15346M28.0265 9.15346L28.1039 9.15346M28.0265 9.15346L28.1039 9.15346M28.1039 9.15346L28.1814 9.15346M28.1039 9.15346L28.1814 9.15346M28.1814 9.15346L28.2588 9.15346M28.1814 9.15346L28.2588 9.15346M28.2588 9.15346L28.3363 9.15346M28.2588 9.15346L28.3363 9.15346M28.3363 9.15346L28.4137 9.15346M28.3363 9.15346L28.4137 9.15346M28.4137 9.15346L28.4911 9.15346M28.4137 9.15346L28.4911 9.15346M28.4911 9.15346L28.5686 9.15346M28.4911 9.15346L28.5686 9.15346M28.5686 9.15346L28.646 9.15346M28.5686 9.15346L28.646 9.15346M28.646 9.15346L28.7235 9.15346M28.646 9.15346L28.7235 9.15346M28.7235 9.15346L28.8009 9.15346M28.7235 9.15346L28.8009 9.15346M28.8009 9.15346L28.8784 9.15346M28.8009 9.15346L28.8784 9.15346M28.8784 9.15346L28.9558 9.15346M28.8784 9.15346L28.9558 9.15346M28.9558 9.15346L29.0332 9.15346M28.9558 9.15346L29.0332 9.15346M29.0332 9.15346L29.1107 9.15346M29.0332 9.15346L29.1107 9.15346M29.1107 9.15346L29.1881 9.15346M29.1107 9.15346L29.1881 9.15346M29.1881 9.15346L29.2656 9.15346M29.1881 9.15346L29.2656 9.15346M29.2656 9.15346L29.343 9.15346M29.2656 9.15346L29.343 9.15346M29.343 9.15346L29.4204 9.15346M29.343 9.15346L29.4204 9.15346M29.4204 9.15346L29.4979 9.15346M29.4204 9.15346L29.4979 9.15346M29.4979 9.15346L29.5753 9.15346M29.4979 9.15346L29.5753 9.15346M29.5753 9.15346L29.6528 9.15346M29.5753 9.15346L29.6528 9.15346M29.6528 9.15346L29.7302 9.15346M29.6528 9.15346L29.7302 9.15346M29.7302 9.15346L29.8076 9.15346M29.7302 9.15346L29.8076 9.15346M29.8076 9.15346L29.8851 9.15346M29.8076 9.15346L29.8851 9.15346M29.8851 9.15346L29.9625 9.15346M29.8851 9.15346L29.9625 9.15346M29.9625 9.15346L30.04 9.15346M29.9625 9.15346L30.04 9.15346M30.04 9.15346L30.1174 9.15346M30.04 9.15346L30.1174 9.15346M30.1174 9.15346L30.1949 9.15346M30.1174 9.15346L30.1949 9.15346M30.1949 9.15346L30.2723 9.15346M30.1949 9.15346L30.2723 9.15346M30.2723 9.15346L30.3497 9.15346M30.2723 9.15346L30.3497 9.15346M30.3497 9.15346L30.4272 9.15346M30.3497 9.15346L30.4272 9.15346M30.4272 9.15346L30.5046 9.15346M30.4272 9.15346L30.5046 9.15346M30.5046 9.15346L30.5821 9.15346M30.5046 9.15346L30.5821 9.15346M30.5821 9.15346L30.6595 9.15346M30.5821 9.15346L30.6595 9.15346M30.6595 9.15346L30.7369 9.15346M30.6595 9.15346L30.7369 9.15346M30.7369 9.15346L30.8144 9.15346M30.7369 9.15346L30.8144 9.15346M30.8144 9.15346L30.8918 9.15346M30.8144 9.15346L30.8918 9.15346M30.8918 9.15346L30.9692 9.15346M30.8918 9.15346L30.9692 9.15346M30.9692 9.15346L31.0467 9.15346M30.9692 9.15346L31.0467 9.15346M31.0467 9.15346L31.1241 9.15346M31.0467 9.15346L31.1241 9.15346M31.1241 9.15346L31.2016 9.15346M31.1241 9.15346L31.2016 9.15346M31.2016 9.15346L31.279 9.15346M31.2016 9.15346L31.279 9.15346M31.279 9.15346L31.3564 9.15346M31.279 9.15346L31.3564 9.15346M31.3564 9.15346L31.4339 9.15346M31.3564 9.15346L31.4339 9.15346M31.4339 9.15346L31.5113 9.15346M31.4339 9.15346L31.5113 9.15346M31.5113 9.15346L31.5888 9.15346M31.5113 9.15346L31.5888 9.15346M31.5888 9.15346L31.6662 9.15346M31.5888 9.15346L31.6662 9.15346M31.6662 9.15346L31.7436 9.15346M31.6662 9.15346L31.7436 9.15346M31.7436 9.15346L31.8211 9.15346M31.7436 9.15346L31.8211 9.15346M31.8211 9.15346L31.8985 9.15346M31.8211 9.15346L31.8985 9.15346M31.8985 9.15346L31.9759 9.15346M31.8985 9.15346L31.9759 9.15346M31.9759 9.15346L32.0534 9.15346M31.9759 9.15346L32.0534 9.15346M32.0534 9.15346L32.1308 9.15346M32.0534 9.15346L32.1308 9.15346M32.1308 9.15346L32.2083 9.15346M32.1308 9.15346L32.2083 9.15346M32.2083 9.15346L32.2857 9.15346M32.2083 9.15346L32.2857 9.15346M32.2857 9.15346L32.3631 9.15346M32.2857 9.15346L32.3631 9.15346M32.3631 9.15346L32.4406 9.15346M32.3631 9.15346L32.4406 9.15346M32.4406 9.15346L32.518 9.15346M32.4406 9.15346L32.518 9.15346M32.518 9.15346L32.5954 9.15346M32.518 9.15346L32.5954 9.15346M32.5954 9.15346L32.6729 9.15346M32.5954 9.15346L32.6729 9.15346M32.6729 9.15346L32.7503 9.15346M32.6729 9.15346L32.7503 9.15346M32.7503 9.15346L32.8278 9.15346M32.7503 9.15346L32.8278 9.15346M32.8278 9.15346L32.9052 9.15346M32.8278 9.15346L32.9052 9.15346M32.9052 9.15346L32.9826 9.15346M32.9052 9.15346L32.9826 9.15346M32.9826 9.15346L33.0601 9.15346M32.9826 9.15346L33.0601 9.15346M33.0601 9.15346L33.1375 9.15346M33.0601 9.15346L33.1375 9.15346M33.1375 9.15346L33.2149 9.15346M33.1375 9.15346L33.2149 9.15346M33.2149 9.15346L33.2924 9.15346M33.2149 9.15346L33.2924 9.15346M33.2924 9.15346L33.3698 9.15346M33.2924 9.15346L33.3698 9.15346M33.3698 9.15346L33.4472 9.15346M33.3698 9.15346L33.4472 9.15346M33.4472 9.15346L33.5247 9.15346M33.4472 9.15346L33.5247 9.15346M33.5247 9.15346L33.6021 9.15346M33.5247 9.15346L33.6021 9.15346M33.6021 9.15346L33.6796 9.15346M33.6021 9.15346L33.6796 9.15346M33.6796 9.15346L33.757 9.15346M33.6796 9.15346L33.757 9.15346M33.757 9.15346L33.8344 9.15346M33.757 9.15346L33.8344 9.15346M33.8344 9.15346L33.9119 9.15346M33.8344 9.15346L33.9119 9.15346M33.9119 9.15346L33.9893 9.15346M33.9119 9.15346L33.9893 9.15346M33.9893 9.15346L34.0667 9.15346M33.9893 9.15346L34.0667 9.15346M34.0667 9.15346L34.1442 9.15346M34.0667 9.15346L34.1442 9.15346M34.1442 9.15346L34.2216 9.15346M34.1442 9.15346L34.2216 9.15346M34.2216 9.15346L34.299 9.15346M34.2216 9.15346L34.299 9.15346M34.299 9.15346L34.3765 9.15346M34.299 9.15346L34.3765 9.15346M34.3765 9.15346L34.4539 9.15346M34.3765 9.15346L34.4539 9.15346M34.4539 9.15346L34.5313 9.15346M34.4539 9.15346L34.5313 9.15346M34.5313 9.15346L34.6088 9.15346M34.5313 9.15346L34.6088 9.15346M34.6088 9.15346L34.6862 9.15346M34.6088 9.15346L34.6862 9.15346M34.6862 9.15346L34.7636 9.15346M34.6862 9.15346L34.7636 9.15346M34.7636 9.15346L34.8411 9.15346M34.7636 9.15346L34.8411 9.15346M34.8411 9.15346L34.9185 9.15346M34.8411 9.15346L34.9185 9.15346M34.9185 9.15346L34.9959 9.15346M34.9185 9.15346L34.9959 9.15346M34.9959 9.15346L35.0734 9.15346M34.9959 9.15346L35.0734 9.15346M35.0734 9.15346L35.1508 9.15346M35.0734 9.15346L35.1508 9.15346M35.1508 9.15346L35.2282 9.15346M35.1508 9.15346L35.2282 9.15346M35.2282 9.15346L35.3057 9.15346M35.2282 9.15346L35.3057 9.15346M35.3057 9.15346L35.3831 9.15346M35.3057 9.15346L35.3831 9.15346M35.3831 9.15346L35.4606 9.15346M35.3831 9.15346L35.4606 9.15346M35.4606 9.15346L35.538 9.15346M35.4606 9.15346L35.538 9.15346M35.538 9.15346L35.6154 9.15346M35.538 9.15346L35.6154 9.15346M35.6154 9.15346L35.6929 9.15346M35.6154 9.15346L35.6929 9.15346M35.6929 9.15346L35.7703 9.15346M35.6929 9.15346L35.7703 9.15346M35.7703 9.15346L35.8477 9.15346M35.7703 9.15346L35.8477 9.15346M35.8477 9.15346L35.9252 9.15346M35.8477 9.15346L35.9252 9.15346M35.9252 9.15346L36.0026 9.15346M35.9252 9.15346L36.0026 9.15346M36.0026 9.15346L36.08 9.15346M36.0026 9.15346L36.08 9.15346M36.08 9.15346L36.1574 9.15346M36.08 9.15346L36.1574 9.15346M36.1574 9.15346L36.2349 9.15346M36.1574 9.15346L36.2349 9.15346M36.2349 9.15346L36.3123 9.15346M36.2349 9.15346L36.3123 9.15346M36.3123 9.15346L36.3897 9.15346M36.3123 9.15346L36.3897 9.15346M36.3897 9.15346L36.4672 9.15346M36.3897 9.15346L36.4672 9.15346M36.4672 9.15346L36.5446 9.15346M36.4672 9.15346L36.5446 9.15346M36.5446 9.15346L36.622 9.15346M36.5446 9.15346L36.622 9.15346M36.622 9.15346L36.6995 9.15346M36.622 9.15346L36.6995 9.15346M36.6995 9.15346L36.7769 9.15346M36.6995 9.15346L36.7769 9.15346M36.7769 9.15346L36.8543 9.15346M36.7769 9.15346L36.8543 9.15346M36.8543 9.15346L36.9318 9.15346M36.8543 9.15346L36.9318 9.15346M36.9318 9.15346L37.0092 9.15346M36.9318 9.15346L37.0092 9.15346M37.0092 9.15346L37.0866 9.15346M37.0092 9.15346L37.0866 9.15346M37.0866 9.15346L37.1641 9.15346M37.0866 9.15346L37.1641 9.15346M37.1641 9.15346L37.2415 9.15346M37.1641 9.15346L37.2415 9.15346M37.2415 9.15346L37.3189 9.15346M37.2415 9.15346L37.3189 9.15346M37.3189 9.15346L37.3964 9.15346M37.3189 9.15346L37.3964 9.15346M37.3964 9.15346L37.4738 9.15346M37.3964 9.15346L37.4738 9.15346M37.4738 9.15346L37.5512 9.15346M37.4738 9.15346L37.5512 9.15346M37.5512 9.15346L37.6287 9.15346M37.5512 9.15346L37.6287 9.15346M37.6287 9.15346L37.7061 9.15346M37.6287 9.15346L37.7061 9.15346M37.7061 9.15346L37.7835 9.15346M37.7061 9.15346L37.7835 9.15346M37.7835 9.15346L37.8609 9.15346M37.7835 9.15346L37.8609 9.15346M37.8609 9.15346L37.9384 9.15346M37.8609 9.15346L37.9384 9.15346M37.9384 9.15346L38.0158 9.15346M37.9384 9.15346L38.0158 9.15346M38.0158 9.15346L38.0932 9.15346M38.0158 9.15346L38.0932 9.15346M38.0932 9.15346L38.1707 9.15346M38.0932 9.15346L38.1707 9.15346M38.1707 9.15346L38.2481 9.15346M38.1707 9.15346L38.2481 9.15346M38.2481 9.15346L38.3255 9.15346M38.2481 9.15346L38.3255 9.15346M38.3255 9.15346L38.403 9.15346M38.3255 9.15346L38.403 9.15346M38.403 9.15346L38.4804 9.15346M38.403 9.15346L38.4804 9.15346M38.4804 9.15346L38.5578 9.15346M38.4804 9.15346L38.5578 9.15346M38.5578 9.15346L38.6353 9.15346M38.5578 9.15346L38.6353 9.15346M38.6353 9.15346L38.7127 9.15346M38.6353 9.15346L38.7127 9.15346M38.7127 9.15346L38.7901 9.15346M38.7127 9.15346L38.7901 9.15346M38.7901 9.15346L38.8675 9.15346M38.7901 9.15346L38.8675 9.15346M38.8675 9.15346L38.945 9.15346M38.8675 9.15346L38.945 9.15346M38.945 9.15346L39.0224 9.15346M38.945 9.15346L39.0224 9.15346M39.0224 9.15346L39.0998 9.15346M39.0224 9.15346L39.0998 9.15346M39.0998 9.15346L39.1773 9.15346M39.0998 9.15346L39.1773 9.15346M39.1773 9.15346L39.2547 9.15346M39.1773 9.15346L39.2547 9.15346M39.2547 9.15346L39.3321 9.15346M39.2547 9.15346L39.3321 9.15346M39.3321 9.15346L39.4096 9.15346M39.3321 9.15346L39.4096 9.15346M39.4096 9.15346L39.487 9.15346M39.4096 9.15346L39.487 9.15346M39.487 9.15346L39.5644 9.15346M39.487 9.15346L39.5644 9.15346M39.5644 9.15346L39.6418 9.15346M39.5644 9.15346L39.6418 9.15346M39.6418 9.15346L39.7193 9.15346M39.6418 9.15346L39.7193 9.15346M39.7193 9.15346L39.7967 9.15346M39.7193 9.15346L39.7967 9.15346M39.7967 9.15346L39.8741 9.15346M39.7967 9.15346L39.8741 9.15346M39.8741 9.15346L39.9516 9.15346M39.8741 9.15346L39.9516 9.15346M39.9516 9.15346L40.029 9.15346M39.9516 9.15346L40.029 9.15346M40.029 9.15346L40.1064 9.15346M40.029 9.15346L40.1064 9.15346M40.1064 9.15346L40.1838 9.15346M40.1064 9.15346L40.1838 9.15346M40.1838 9.15346L40.2613 9.15346M40.1838 9.15346L40.2613 9.15346M40.2613 9.15346L40.3387 9.15346M40.2613 9.15346L40.3387 9.15346M40.3387 9.15346L40.4161 9.15346M40.3387 9.15346L40.4161 9.15346M40.4161 9.15346L40.4936 9.15346M40.4161 9.15346L40.4936 9.15346M40.4936 9.15346L40.571 9.15346M40.4936 9.15346L40.571 9.15346M40.571 9.15346L40.6484 9.15346M40.571 9.15346L40.6484 9.15346M40.6484 9.15346L40.7258 9.15346M40.6484 9.15346L40.7258 9.15346M40.7258 9.15346L40.8033 9.15346M40.7258 9.15346L40.8033 9.15346M40.8033 9.15346L40.8807 9.15346M40.8033 9.15346L40.8807 9.15346M40.8807 9.15346L40.9581 9.15346M40.8807 9.15346L40.9581 9.15346M40.9581 9.15346L41.0356 9.15346M40.9581 9.15346L41.0356 9.15346M41.0356 9.15346L41.113 9.15346M41.0356 9.15346L41.113 9.15346M41.113 9.15346L41.1904 9.15346M41.113 9.15346L41.1904 9.15346M41.1904 9.15346L41.2678 9.15346M41.1904 9.15346L41.2678 9.15346M41.2678 9.15346L41.3453 9.15346M41.2678 9.15346L41.3453 9.15346M41.3453 9.15346L41.4227 9.15346M41.3453 9.15346L41.4227 9.15346M41.4227 9.15346L41.5001 9.15346M41.4227 9.15346L41.5001 9.15346M41.5001 9.15346L41.5776 9.15346M41.5001 9.15346L41.5776 9.15346M41.5776 9.15346L41.655 9.15346M41.5776 9.15346L41.655 9.15346M41.655 9.15346L41.7324 9.15346M41.655 9.15346L41.7324 9.15346M41.7324 9.15346L41.8098 9.15346M41.7324 9.15346L41.8098 9.15346M41.8098 9.15346L41.8873 9.15346M41.8098 9.15346L41.8873 9.15346M41.8873 9.15346L41.9647 9.15346M41.8873 9.15346L41.9647 9.15346M41.9647 9.15346L42.0421 9.15346M41.9647 9.15346L42.0421 9.15346M42.0421 9.15346L42.1195 9.15346M42.0421 9.15346L42.1195 9.15346M42.1195 9.15346L42.197 9.15346M42.1195 9.15346L42.197 9.15346M42.197 9.15346L42.2744 9.15346M42.197 9.15346L42.2744 9.15346M42.2744 9.15346L42.3518 9.15346M42.2744 9.15346L42.3518 9.15346M42.3518 9.15346L42.4293 9.15346M42.3518 9.15346L42.4293 9.15346M42.4293 9.15346L42.5067 9.15346M42.4293 9.15346L42.5067 9.15346M42.5067 9.15346L42.5841 9.15346M42.5067 9.15346L42.5841 9.15346M42.5841 9.15346L42.6615 9.15346M42.5841 9.15346L42.6615 9.15346M42.6615 9.15346L42.739 9.15346M42.6615 9.15346L42.739 9.15346M42.739 9.15346L42.8164 9.15346M42.739 9.15346L42.8164 9.15346M42.8164 9.15346L42.8938 9.15346M42.8164 9.15346L42.8938 9.15346M42.8938 9.15346L42.9712 9.15346M42.8938 9.15346L42.9712 9.15346M42.9712 9.15346L43.0487 9.15346M42.9712 9.15346L43.0487 9.15346M43.0487 9.15346L43.1261 9.15346M43.0487 9.15346L43.1261 9.15346M43.1261 9.15346L43.2035 9.15346M43.1261 9.15346L43.2035 9.15346M43.2035 9.15346L43.2809 9.15346M43.2035 9.15346L43.2809 9.15346M43.2809 9.15346L43.3584 9.15346M43.2809 9.15346L43.3584 9.15346M43.3584 9.15346L43.4358 9.15346M43.3584 9.15346L43.4358 9.15346M43.4358 9.15346L43.5132 9.15346M43.4358 9.15346L43.5132 9.15346M43.5132 9.15346L43.5907 9.15346M43.5132 9.15346L43.5907 9.15346M43.5907 9.15346L43.6681 9.15346M43.5907 9.15346L43.6681 9.15346M43.6681 9.15346L43.7455 9.15346M43.6681 9.15346L43.7455 9.15346M43.7455 9.15346L43.8229 9.15346M43.7455 9.15346L43.8229 9.15346M43.8229 9.15346L43.9004 9.15346M43.8229 9.15346L43.9004 9.15346M43.9004 9.15346L43.9778 9.15346M43.9004 9.15346L43.9778 9.15346M43.9778 9.15346L44.0552 9.15346M43.9778 9.15346L44.0552 9.15346M44.0552 9.15346L44.1326 9.15346M44.0552 9.15346L44.1326 9.15346M44.1326 9.15346L44.2101 9.15346M44.1326 9.15346L44.2101 9.15346M44.2101 9.15346L44.2875 9.15346M44.2101 9.15346L44.2875 9.15346M44.2875 9.15346L44.3649 9.15346M44.2875 9.15346L44.3649 9.15346M44.3649 9.15346L44.4423 9.15346M44.3649 9.15346L44.4423 9.15346M44.4423 9.15346L44.5198 9.15346M44.4423 9.15346L44.5198 9.15346M44.5198 9.15346L44.5972 9.15346M44.5198 9.15346L44.5972 9.15346M44.5972 9.15346L44.6746 9.15346M44.5972 9.15346L44.6746 9.15346M44.6746 9.15346L44.752 9.15346M44.6746 9.15346L44.752 9.15346M44.752 9.15346L44.8295 9.15346M44.752 9.15346L44.8295 9.15346M44.8295 9.15346L44.9069 9.15346M44.8295 9.15346L44.9069 9.15346M44.9069 9.15346L44.9843 9.15346M44.9069 9.15346L44.9843 9.15346M44.9843 9.15346L45.0617 9.15346M44.9843 9.15346L45.0617 9.15346M45.0617 9.15346L45.1392 9.15346M45.0617 9.15346L45.1392 9.15346M45.1392 9.15346L45.2166 9.15346M45.1392 9.15346L45.2166 9.15346M45.2166 9.15346L45.294 9.15346M45.2166 9.15346L45.294 9.15346M45.294 9.15346L45.3714 9.15346M45.294 9.15346L45.3714 9.15346M45.3714 9.15346L45.4489 9.15346M45.3714 9.15346L45.4489 9.15346M45.4489 9.15346L45.5263 9.15346M45.4489 9.15346L45.5263 9.15346M45.5263 9.15346L45.6037 9.15346M45.5263 9.15346L45.6037 9.15346M45.6037 9.15346L45.6811 9.15346M45.6037 9.15346L45.6811 9.15346M45.6811 9.15346L45.7586 9.15346M45.6811 9.15346L45.7586 9.15346M45.7586 9.15346L45.836 9.15346M45.7586 9.15346L45.836 9.15346M45.836 9.15346L45.9134 9.15346M45.836 9.15346L45.9134 9.15346M45.9134 9.15346L45.9908 9.15346M45.9134 9.15346L45.9908 9.15346M45.9908 9.15346L46.0683 9.15346M45.9908 9.15346L46.0683 9.15346M46.0683 9.15346L46.1457 9.15346M46.0683 9.15346L46.1457 9.15346M46.1457 9.15346L46.2231 9.15346M46.1457 9.15346L46.2231 9.15346M46.2231 9.15346L46.3005 9.15346M46.2231 9.15346L46.3005 9.15346M46.3005 9.15346L46.378 9.15346M46.3005 9.15346L46.378 9.15346M46.378 9.15346L46.4554 9.15346M46.378 9.15346L46.4554 9.15346M46.4554 9.15346L46.5328 9.15346M46.4554 9.15346L46.5328 9.15346M46.5328 9.15346L46.6102 9.15346M46.5328 9.15346L46.6102 9.15346M46.6102 9.15346L46.6877 9.15346M46.6102 9.15346L46.6877 9.15346M46.6877 9.15346L46.7651 9.15346M46.6877 9.15346L46.7651 9.15346M46.7651 9.15346L46.8425 9.15346M46.7651 9.15346L46.8425 9.15346M46.8425 9.15346L46.9199 9.15346M46.8425 9.15346L46.9199 9.15346M46.9199 9.15346L46.9974 9.15346M46.9199 9.15346L46.9974 9.15346M46.9974 9.15346L47.0748 9.15346M46.9974 9.15346L47.0748 9.15346M47.0748 9.15346L47.1522 9.15346M47.0748 9.15346L47.1522 9.15346M47.1522 9.15346L47.2296 9.15346M47.1522 9.15346L47.2296 9.15346M47.2296 9.15346L47.3071 9.15346M47.2296 9.15346L47.3071 9.15346M47.3071 9.15346L47.3845 9.15346M47.3071 9.15346L47.3845 9.15346M47.3845 9.15346L47.4619 9.15346M47.3845 9.15346L47.4619 9.15346M47.4619 9.15346L47.5393 9.15346M47.4619 9.15346L47.5393 9.15346M47.5393 9.15346L47.6167 9.15346M47.5393 9.15346L47.6167 9.15346M47.6167 9.15346L47.6942 9.15346M47.6167 9.15346L47.6942 9.15346M47.6942 9.15346L47.7716 9.15346M47.6942 9.15346L47.7716 9.15346M47.7716 9.15346L47.849 9.15346M47.7716 9.15346L47.849 9.15346M47.849 9.15346L47.9264 9.15346M47.849 9.15346L47.9264 9.15346M47.9264 9.15346L48.0039 9.15346M47.9264 9.15346L48.0039 9.15346M48.0039 9.15346L48.0813 9.15346M48.0039 9.15346L48.0813 9.15346M48.0813 9.15346L48.1587 9.15346M48.0813 9.15346L48.1587 9.15346M48.1587 9.15346L48.2361 9.15346M48.1587 9.15346L48.2361 9.15346M48.2361 9.15346L48.3136 9.15346M48.2361 9.15346L48.3136 9.15346M48.3136 9.15346L48.391 9.15346M48.3136 9.15346L48.391 9.15346M48.391 9.15346L48.4684 9.15346M48.391 9.15346L48.4684 9.15346M48.4684 9.15346L48.5458 9.15346M48.4684 9.15346L48.5458 9.15346M48.5458 9.15346L48.6233 9.15346M48.5458 9.15346L48.6233 9.15346M48.6233 9.15346L48.7007 9.15346M48.6233 9.15346L48.7007 9.15346M48.7007 9.15346L48.7781 9.15346M48.7007 9.15346L48.7781 9.15346M48.7781 9.15346L48.8555 9.15346M48.7781 9.15346L48.8555 9.15346M48.8555 9.15346L48.933 9.15346M48.8555 9.15346L48.933 9.15346M48.933 9.15346L49.0104 9.15346M48.933 9.15346L49.0104 9.15346M49.0104 9.15346L49.0878 9.15346M49.0104 9.15346L49.0878 9.15346M49.0878 9.15346L49.1652 9.15346M49.0878 9.15346L49.1652 9.15346M49.1652 9.15346L49.2426 9.15346M49.1652 9.15346L49.2426 9.15346M49.2426 9.15346L49.3201 9.15346M49.2426 9.15346L49.3201 9.15346M49.3201 9.15346L49.3975 9.15346M49.3201 9.15346L49.3975 9.15346M49.3975 9.15346L49.4749 9.15346M49.3975 9.15346L49.4749 9.15346M49.4749 9.15346L49.5523 9.15346M49.4749 9.15346L49.5523 9.15346M49.5523 9.15346L49.6298 9.15346M49.5523 9.15346L49.6298 9.15346M49.6298 9.15346L49.7072 9.15346M49.6298 9.15346L49.7072 9.15346M49.7072 9.15346L49.7846 9.15346M49.7072 9.15346L49.7846 9.15346M49.7846 9.15346L49.862 9.15346M49.7846 9.15346L49.862 9.15346M49.862 9.15346L49.9395 9.15346M49.862 9.15346L49.9395 9.15346M49.9395 9.15346L50.0169 9.15346M49.9395 9.15346L50.0169 9.15346M50.0169 9.15346L50.0943 9.15346M50.0169 9.15346L50.0943 9.15346M50.0943 9.15346L50.1717 9.15346M50.0943 9.15346L50.1717 9.15346M50.1717 9.15346L50.2491 9.15346M50.1717 9.15346L50.2491 9.15346M50.2491 9.15346L50.3266 9.15346M50.2491 9.15346L50.3266 9.15346M50.3266 9.15346L50.404 9.15346M50.3266 9.15346L50.404 9.15346M50.404 9.15346L50.4814 9.15346M50.404 9.15346L50.4814 9.15346M50.4814 9.15346L50.5588 9.15346M50.4814 9.15346L50.5588 9.15346M50.5588 9.15346L50.6363 9.15346M50.5588 9.15346L50.6363 9.15346M50.6363 9.15346L50.7137 9.15346M50.6363 9.15346L50.7137 9.15346M50.7137 9.15346L50.7911 9.15346M50.7137 9.15346L50.7911 9.15346M50.7911 9.15346L50.8685 9.15346M50.7911 9.15346L50.8685 9.15346M50.8685 9.15346L50.9459 9.15346M50.8685 9.15346L50.9459 9.15346M50.9459 9.15346L51.0234 9.15346M50.9459 9.15346L51.0234 9.15346M51.0234 9.15346L51.1008 9.15346M51.0234 9.15346L51.1008 9.15346M51.1008 9.15346L51.1782 9.15346M51.1008 9.15346L51.1782 9.15346M51.1782 9.15346L51.2556 9.15346M51.1782 9.15346L51.2556 9.15346M51.2556 9.15346L51.3331 9.15346M51.2556 9.15346L51.3331 9.15346M51.3331 9.15346L51.4105 9.15346M51.3331 9.15346L51.4105 9.15346M51.4105 9.15346L51.4879 9.15346M51.4105 9.15346L51.4879 9.15346M51.4879 9.15346L51.5653 9.15346M51.4879 9.15346L51.5653 9.15346M51.5653 9.15346L51.6427 9.15346M51.5653 9.15346L51.6427 9.15346M51.6427 9.15346L51.7202 9.15346M51.6427 9.15346L51.7202 9.15346M51.7202 9.15346L51.7976 9.15346M51.7202 9.15346L51.7976 9.15346M51.7976 9.15346L51.875 9.15346M51.7976 9.15346L51.875 9.15346M51.875 9.15346L51.9524 9.15346M51.875 9.15346L51.9524 9.15346M51.9524 9.15346L52.0299 9.15346M51.9524 9.15346L52.0299 9.15346M52.0299 9.15346L52.1073 9.15346M52.0299 9.15346L52.1073 9.15346M52.1073 9.15346L52.1847 9.15346M52.1073 9.15346L52.1847 9.15346M52.1847 9.15346L52.2621 9.15346M52.1847 9.15346L52.2621 9.15346M52.2621 9.15346L52.3395 9.15346M52.2621 9.15346L52.3395 9.15346M52.3395 9.15346L52.417 9.15346M52.3395 9.15346L52.417 9.15346M52.417 9.15346L52.4944 9.15346M52.417 9.15346L52.4944 9.15346M52.4944 9.15346L52.5718 9.15346M52.4944 9.15346L52.5718 9.15346M52.5718 9.15346L52.6492 9.15346M52.5718 9.15346L52.6492 9.15346M52.6492 9.15346L52.7267 9.15346M52.6492 9.15346L52.7267 9.15346M52.7267 9.15346L52.8041 9.15346M52.7267 9.15346L52.8041 9.15346M52.8041 9.15346L52.8815 9.15346M52.8041 9.15346L52.8815 9.15346M52.8815 9.15346L52.9589 9.15346M52.8815 9.15346L52.9589 9.15346M52.9589 9.15346L53.0363 9.15346M52.9589 9.15346L53.0363 9.15346M53.0363 9.15346L53.1138 9.15346M53.0363 9.15346L53.1138 9.15346M53.1138 9.15346L53.1912 9.15346M53.1138 9.15346L53.1912 9.15346M53.1912 9.15346L53.2686 9.15346M53.1912 9.15346L53.2686 9.15346M53.2686 9.15346L53.346 9.15346M53.2686 9.15346L53.346 9.15346M53.346 9.15346L53.4235 9.15346M53.346 9.15346L53.4235 9.15346M53.4235 9.15346L53.5009 9.15346M53.4235 9.15346L53.5009 9.15346M53.5009 9.15346L53.5783 9.15346M53.5009 9.15346L53.5783 9.15346M53.5783 9.15346L53.6557 9.15346M53.5783 9.15346L53.6557 9.15346M53.6557 9.15346L53.7331 9.15346M53.6557 9.15346L53.7331 9.15346M53.7331 9.15346L53.8106 9.15346M53.7331 9.15346L53.8106 9.15346M53.8106 9.15346L53.888 9.15346M53.8106 9.15346L53.888 9.15346M53.888 9.15346L53.9654 9.15346M53.888 9.15346L53.9654 9.15346M53.9654 9.15346L54.0428 9.15346M53.9654 9.15346L54.0428 9.15346M54.0428 9.15346L54.1203 9.15346M54.0428 9.15346L54.1203 9.15346M54.1203 9.15346L54.1977 9.15346M54.1203 9.15346L54.1977 9.15346M54.1977 9.15346L54.2751 9.15346M54.1977 9.15346L54.2751 9.15346M54.2751 9.15346L54.3525 9.15346M54.2751 9.15346L54.3525 9.15346M54.3525 9.15346L54.4299 9.15346M54.3525 9.15346L54.4299 9.15346M54.4299 9.15346L54.5074 9.15346M54.4299 9.15346L54.5074 9.15346M54.5074 9.15346L54.5848 9.15346M54.5074 9.15346L54.5848 9.15346M54.5848 9.15346L54.6622 9.15346M54.5848 9.15346L54.6622 9.15346M54.6622 9.15346L54.7396 9.15346M54.6622 9.15346L54.7396 9.15346M54.7396 9.15346L54.8171 9.15346M54.7396 9.15346L54.8171 9.15346M54.8171 9.15346L54.8945 9.15346M54.8171 9.15346L54.8945 9.15346M54.8945 9.15346L54.9719 9.15346M54.8945 9.15346L54.9719 9.15346M54.9719 9.15346L55.0493 9.15346M54.9719 9.15346L55.0493 9.15346M55.0493 9.15346L55.1267 9.15346M55.0493 9.15346L55.1267 9.15346M55.1267 9.15346L55.2042 9.15346M55.1267 9.15346L55.2042 9.15346M55.2042 9.15346L55.2816 9.15346M55.2042 9.15346L55.2816 9.15346M55.2816 9.15346L55.359 9.15346M55.2816 9.15346L55.359 9.15346M55.359 9.15346L55.4364 9.15346M55.359 9.15346L55.4364 9.15346M55.4364 9.15346L55.5138 9.15346M55.4364 9.15346L55.5138 9.15346M55.5138 9.15346L55.5913 9.15346M55.5138 9.15346L55.5913 9.15346M55.5913 9.15346L55.6687 9.15346M55.5913 9.15346L55.6687 9.15346M55.6687 9.15346L55.7461 9.15346M55.6687 9.15346L55.7461 9.15346M55.7461 9.15346L55.8235 9.15346M55.7461 9.15346L55.8235 9.15346M55.8235 9.15346L55.901 9.15346M55.8235 9.15346L55.901 9.15346M55.901 9.15346L55.9784 9.15346M55.901 9.15346L55.9784 9.15346M55.9784 9.15346L56.0558 9.15346M55.9784 9.15346L56.0558 9.15346M56.0558 9.15346L56.1332 9.15346M56.0558 9.15346L56.1332 9.15346M56.1332 9.15346L56.2106 9.15346M56.1332 9.15346L56.2106 9.15346M56.2106 9.15346L56.2881 9.15346M56.2106 9.15346L56.2881 9.15346M56.2881 9.15346L56.3655 9.15346M56.2881 9.15346L56.3655 9.15346M56.3655 9.15346C56.7214 9.15346 57.145 9.20317 57.4442 9.3428L56.3655 9.15346ZM55.9326 11.079L55.9544 11.079L55.9326 11.079ZM55.9326 11.079L55.9108 11.079M55.9326 11.079L55.9108 11.079M55.9108 11.079L55.889 11.079M55.9108 11.079L55.889 11.079M55.889 11.079L55.8671 11.079M55.889 11.079L55.8671 11.079M55.8671 11.079L55.8453 11.079M55.8671 11.079L55.8453 11.079M55.8453 11.079L55.8235 11.079M55.8453 11.079L55.8235 11.079M55.8235 11.079L55.8017 11.079M55.8235 11.079L55.8017 11.079M55.8017 11.079L55.7799 11.079M55.8017 11.079L55.7799 11.079M55.7799 11.079L55.7581 11.079M55.7799 11.079L55.7581 11.079M55.7581 11.079L55.7363 11.079M55.7581 11.079L55.7363 11.079M55.7363 11.079L55.7145 11.079M55.7363 11.079L55.7145 11.079M55.7145 11.079L55.6927 11.079M55.7145 11.079L55.6927 11.079M55.6927 11.079L55.6709 11.079M55.6927 11.079L55.6709 11.079M55.6709 11.079L55.6491 11.079M55.6709 11.079L55.6491 11.079M55.6491 11.079L55.6273 11.079M55.6491 11.079L55.6273 11.079M55.6273 11.079L55.6054 11.079M55.6273 11.079L55.6054 11.079M55.6054 11.079L55.5836 11.079M55.6054 11.079L55.5836 11.079M55.5836 11.079L55.5618 11.079M55.5836 11.079L55.5618 11.079M55.5618 11.079L55.54 11.079M55.5618 11.079L55.54 11.079M55.54 11.079L55.5182 11.079M55.54 11.079L55.5182 11.079M55.5182 11.079L55.4964 11.079M55.5182 11.079L55.4964 11.079M55.4964 11.079L55.4746 11.079M55.4964 11.079L55.4746 11.079M55.4746 11.079L55.4528 11.079M55.4746 11.079L55.4528 11.079M55.4528 11.079L55.431 11.079M55.4528 11.079L55.431 11.079M55.431 11.079L55.4092 11.079M55.431 11.079L55.4092 11.079M55.4092 11.079L55.3874 11.079M55.4092 11.079L55.3874 11.079M55.3874 11.079L55.3655 11.079M55.3874 11.079L55.3655 11.079M55.3655 11.079L55.3437 11.079M55.3655 11.079L55.3437 11.079M55.3437 11.079L55.3219 11.079M55.3437 11.079L55.3219 11.079M55.3219 11.079L55.3001 11.079M55.3219 11.079L55.3001 11.079M55.3001 11.079L55.2783 11.079M55.3001 11.079L55.2783 11.079M55.2783 11.079L55.2565 11.079M55.2783 11.079L55.2565 11.079M55.2565 11.079L55.2347 11.079M55.2565 11.079L55.2347 11.079M55.2347 11.079L55.2129 11.079M55.2347 11.079L55.2129 11.079M55.2129 11.079L55.191 11.079M55.2129 11.079L55.191 11.079M55.191 11.079L55.1692 11.079M55.191 11.079L55.1692 11.079M55.1692 11.079L55.1474 11.079M55.1692 11.079L55.1474 11.079M55.1474 11.079L55.1256 11.079M55.1474 11.079L55.1256 11.079M55.1256 11.079L55.1038 11.079M55.1256 11.079L55.1038 11.079M55.1038 11.079L55.082 11.079M55.1038 11.079L55.082 11.079M55.082 11.079L55.0602 11.079M55.082 11.079L55.0602 11.079M55.0602 11.079L55.0384 11.079M55.0602 11.079L55.0384 11.079M55.0384 11.079L55.0165 11.079M55.0384 11.079L55.0165 11.079M55.0165 11.079L54.9947 11.079M55.0165 11.079L54.9947 11.079M54.9947 11.079L54.9729 11.079M54.9947 11.079L54.9729 11.079M54.9729 11.079L54.9511 11.079M54.9729 11.079L54.9511 11.079M54.9511 11.079L54.9293 11.079M54.9511 11.079L54.9293 11.079M54.9293 11.079L54.9075 11.079M54.9293 11.079L54.9075 11.079M54.9075 11.079L54.8857 11.079M54.9075 11.079L54.8857 11.079M54.8857 11.079L54.8639 11.079M54.8857 11.079L54.8639 11.079M54.8639 11.079L54.842 11.079M54.8639 11.079L54.842 11.079M54.842 11.079L54.8202 11.079M54.842 11.079L54.8202 11.079M54.8202 11.079L54.7984 11.079M54.8202 11.079L54.7984 11.079M54.7984 11.079L54.7766 11.079M54.7984 11.079L54.7766 11.079M54.7766 11.079L54.7548 11.079M54.7766 11.079L54.7548 11.079M54.7548 11.079L54.733 11.079M54.7548 11.079L54.733 11.079M54.733 11.079L54.7112 11.079M54.733 11.079L54.7112 11.079M54.7112 11.079L54.6893 11.079M54.7112 11.079L54.6893 11.079M54.6893 11.079L54.6675 11.079M54.6893 11.079L54.6675 11.079M54.6675 11.079L54.6457 11.079M54.6675 11.079L54.6457 11.079M54.6457 11.079L54.6239 11.079M54.6457 11.079L54.6239 11.079M54.6239 11.079L54.6021 11.079M54.6239 11.079L54.6021 11.079M54.6021 11.079L54.5803 11.079M54.6021 11.079L54.5803 11.079M54.5803 11.079L54.5584 11.079M54.5803 11.079L54.5584 11.079M54.5584 11.079L54.5366 11.079M54.5584 11.079L54.5366 11.079M54.5366 11.079L54.5148 11.079M54.5366 11.079L54.5148 11.079M54.5148 11.079L54.493 11.079M54.5148 11.079L54.493 11.079M54.493 11.079L54.4712 11.079M54.493 11.079L54.4712 11.079M54.4712 11.079L54.4494 11.079M54.4712 11.079L54.4494 11.079M54.4494 11.079L54.4275 11.079M54.4494 11.079L54.4275 11.079M54.4275 11.079L54.4057 11.079M54.4275 11.079L54.4057 11.079M54.4057 11.079L54.3839 11.079M54.4057 11.079L54.3839 11.079M54.3839 11.079L54.3621 11.079M54.3839 11.079L54.3621 11.079M54.3621 11.079L54.3403 11.079M54.3621 11.079L54.3403 11.079M54.3403 11.079L54.3185 11.079M54.3403 11.079L54.3185 11.079M54.3185 11.079L54.2966 11.079M54.3185 11.079L54.2966 11.079M54.2966 11.079L54.2748 11.079M54.2966 11.079L54.2748 11.079M54.2748 11.079L54.253 11.079M54.2748 11.079L54.253 11.079M54.253 11.079L54.2312 11.079M54.253 11.079L54.2312 11.079M54.2312 11.079L54.2094 11.079M54.2312 11.079L54.2094 11.079M54.2094 11.079L54.1876 11.079M54.2094 11.079L54.1876 11.079M54.1876 11.079L54.1657 11.079M54.1876 11.079L54.1657 11.079M54.1657 11.079L54.1439 11.079M54.1657 11.079L54.1439 11.079M54.1439 11.079L54.1221 11.079M54.1439 11.079L54.1221 11.079M54.1221 11.079L54.1003 11.079M54.1221 11.079L54.1003 11.079M54.1003 11.079L54.0785 11.079M54.1003 11.079L54.0785 11.079M54.0785 11.079L54.0567 11.079M54.0785 11.079L54.0567 11.079M54.0567 11.079L54.0348 11.079M54.0567 11.079L54.0348 11.079M54.0348 11.079L54.013 11.079M54.0348 11.079L54.013 11.079M54.013 11.079L53.9912 11.079M54.013 11.079L53.9912 11.079M53.9912 11.079L53.9694 11.079M53.9912 11.079L53.9694 11.079M53.9694 11.079L53.9476 11.079M53.9694 11.079L53.9476 11.079M53.9476 11.079L53.9257 11.079M53.9476 11.079L53.9257 11.079M53.9257 11.079L53.9039 11.079M53.9257 11.079L53.9039 11.079M53.9039 11.079L53.8821 11.079M53.9039 11.079L53.8821 11.079M53.8821 11.079L53.8603 11.079M53.8821 11.079L53.8603 11.079M53.8603 11.079L53.8385 11.079M53.8603 11.079L53.8385 11.079M53.8385 11.079L53.8166 11.079M53.8385 11.079L53.8166 11.079M53.8166 11.079L53.7948 11.079M53.8166 11.079L53.7948 11.079M53.7948 11.079L53.773 11.079M53.7948 11.079L53.773 11.079M53.773 11.079L53.7512 11.079M53.773 11.079L53.7512 11.079M53.7512 11.079L53.7294 11.079M53.7512 11.079L53.7294 11.079M53.7294 11.079L53.7075 11.079M53.7294 11.079L53.7075 11.079M53.7075 11.079L53.6857 11.079M53.7075 11.079L53.6857 11.079M53.6857 11.079L53.6639 11.079M53.6857 11.079L53.6639 11.079M53.6639 11.079L53.6421 11.079M53.6639 11.079L53.6421 11.079M53.6421 11.079L53.6203 11.079M53.6421 11.079L53.6203 11.079M53.6203 11.079L53.5984 11.079M53.6203 11.079L53.5984 11.079M53.5984 11.079L53.5766 11.079M53.5984 11.079L53.5766 11.079M53.5766 11.079L53.5548 11.079M53.5766 11.079L53.5548 11.079M53.5548 11.079L53.533 11.079M53.5548 11.079L53.533 11.079M53.533 11.079L53.5112 11.079M53.533 11.079L53.5112 11.079M53.5112 11.079L53.4893 11.079M53.5112 11.079L53.4893 11.079M53.4893 11.079L53.4675 11.079M53.4893 11.079L53.4675 11.079M53.4675 11.079L53.4457 11.079M53.4675 11.079L53.4457 11.079M53.4457 11.079L53.4239 11.079M53.4457 11.079L53.4239 11.079M53.4239 11.079L53.402 11.079M53.4239 11.079L53.402 11.079M53.402 11.079L53.3802 11.079M53.402 11.079L53.3802 11.079M53.3802 11.079L53.3584 11.079M53.3802 11.079L53.3584 11.079M53.3584 11.079L53.3366 11.079M53.3584 11.079L53.3366 11.079M53.3366 11.079L53.3148 11.079M53.3366 11.079L53.3148 11.079M53.3148 11.079L53.2929 11.079M53.3148 11.079L53.2929 11.079M53.2929 11.079L53.2711 11.079M53.2929 11.079L53.2711 11.079M53.2711 11.079L53.2493 11.079M53.2711 11.079L53.2493 11.079M53.2493 11.079L53.2275 11.079M53.2493 11.079L53.2275 11.079M53.2275 11.079L53.2057 11.079M53.2275 11.079L53.2057 11.079M53.2057 11.079L53.1838 11.079M53.2057 11.079L53.1838 11.079M53.1838 11.079L53.162 11.079M53.1838 11.079L53.162 11.079M53.162 11.079L53.1402 11.079M53.162 11.079L53.1402 11.079M53.1402 11.079L53.1184 11.079M53.1402 11.079L53.1184 11.079M53.1184 11.079L53.0965 11.079M53.1184 11.079L53.0965 11.079M53.0965 11.079L53.0747 11.079M53.0965 11.079L53.0747 11.079M53.0747 11.079L53.0529 11.079M53.0747 11.079L53.0529 11.079M53.0529 11.079L53.0311 11.079M53.0529 11.079L53.0311 11.079M53.0311 11.079L53.0092 11.079M53.0311 11.079L53.0092 11.079M53.0092 11.079L52.9874 11.079M53.0092 11.079L52.9874 11.079M52.9874 11.079L52.9656 11.079M52.9874 11.079L52.9656 11.079M52.9656 11.079L52.9438 11.079M52.9656 11.079L52.9438 11.079M52.9438 11.079L52.922 11.079M52.9438 11.079L52.922 11.079M52.922 11.079L52.9001 11.079M52.922 11.079L52.9001 11.079M52.9001 11.079L52.8783 11.079M52.9001 11.079L52.8783 11.079M52.8783 11.079L52.8565 11.079M52.8783 11.079L52.8565 11.079M52.8565 11.079L52.8347 11.079M52.8565 11.079L52.8347 11.079M52.8347 11.079L52.8128 11.079M52.8347 11.079L52.8128 11.079M52.8128 11.079L52.791 11.079M52.8128 11.079L52.791 11.079M52.791 11.079L52.7692 11.079M52.791 11.079L52.7692 11.079M52.7692 11.079L52.7474 11.079M52.7692 11.079L52.7474 11.079M52.7474 11.079L52.7255 11.079M52.7474 11.079L52.7255 11.079M52.7255 11.079L52.7037 11.079M52.7255 11.079L52.7037 11.079M52.7037 11.079L52.6819 11.079M52.7037 11.079L52.6819 11.079M52.6819 11.079L52.6601 11.079M52.6819 11.079L52.6601 11.079M52.6601 11.079L52.6382 11.079M52.6601 11.079L52.6382 11.079M52.6382 11.079L52.6164 11.079M52.6382 11.079L52.6164 11.079M52.6164 11.079L52.5946 11.079M52.6164 11.079L52.5946 11.079M52.5946 11.079L52.5728 11.079M52.5946 11.079L52.5728 11.079M52.5728 11.079L52.551 11.079M52.5728 11.079L52.551 11.079M52.551 11.079L52.5291 11.079M52.551 11.079L52.5291 11.079M52.5291 11.079L52.5073 11.079M52.5291 11.079L52.5073 11.079M52.5073 11.079L52.4855 11.079M52.5073 11.079L52.4855 11.079M52.4855 11.079L52.4637 11.079M52.4855 11.079L52.4637 11.079M52.4637 11.079L52.4418 11.079M52.4637 11.079L52.4418 11.079M52.4418 11.079L52.42 11.079M52.4418 11.079L52.42 11.079M52.42 11.079L52.3982 11.079M52.42 11.079L52.3982 11.079M52.3982 11.079L52.3764 11.079M52.3982 11.079L52.3764 11.079M52.3764 11.079L52.3545 11.079M52.3764 11.079L52.3545 11.079M52.3545 11.079L52.3327 11.079M52.3545 11.079L52.3327 11.079M52.3327 11.079L52.3109 11.079M52.3327 11.079L52.3109 11.079M52.3109 11.079L52.2891 11.079M52.3109 11.079L52.2891 11.079M52.2891 11.079L52.2672 11.079M52.2891 11.079L52.2672 11.079M52.2672 11.079L52.2454 11.079M52.2672 11.079L52.2454 11.079M52.2454 11.079L52.2236 11.079M52.2454 11.079L52.2236 11.079M52.2236 11.079L52.2018 11.079M52.2236 11.079L52.2018 11.079M52.2018 11.079L52.1799 11.079M52.2018 11.079L52.1799 11.079M52.1799 11.079L52.1581 11.079M52.1799 11.079L52.1581 11.079M52.1581 11.079L52.1363 11.079M52.1581 11.079L52.1363 11.079M52.1363 11.079L52.1144 11.079M52.1363 11.079L52.1144 11.079M52.1144 11.079L52.0926 11.079M52.1144 11.079L52.0926 11.079M52.0926 11.079L52.0708 11.079M52.0926 11.079L52.0708 11.079M52.0708 11.079L52.049 11.079M52.0708 11.079L52.049 11.079M52.049 11.079L52.0271 11.079M52.049 11.079L52.0271 11.079M52.0271 11.079L52.0053 11.079M52.0271 11.079L52.0053 11.079M52.0053 11.079L51.9835 11.079M52.0053 11.079L51.9835 11.079M51.9835 11.079L51.9617 11.079M51.9835 11.079L51.9617 11.079M51.9617 11.079L51.9398 11.079M51.9617 11.079L51.9398 11.079M51.9398 11.079L51.918 11.079M51.9398 11.079L51.918 11.079M51.918 11.079L51.8962 11.079M51.918 11.079L51.8962 11.079M51.8962 11.079L51.8744 11.079M51.8962 11.079L51.8744 11.079M51.8744 11.079L51.8525 11.079M51.8744 11.079L51.8525 11.079M51.8525 11.079L51.8307 11.079M51.8525 11.079L51.8307 11.079M51.8307 11.079L51.8089 11.079M51.8307 11.079L51.8089 11.079M51.8089 11.079L51.7871 11.079M51.8089 11.079L51.7871 11.079M51.7871 11.079L51.7652 11.079M51.7871 11.079L51.7652 11.079M51.7652 11.079L51.7434 11.079M51.7652 11.079L51.7434 11.079M51.7434 11.079L51.7216 11.079M51.7434 11.079L51.7216 11.079M51.7216 11.079L51.6998 11.079M51.7216 11.079L51.6998 11.079M51.6998 11.079L51.6779 11.079M51.6998 11.079L51.6779 11.079M51.6779 11.079L51.6561 11.079M51.6779 11.079L51.6561 11.079M51.6561 11.079L51.6343 11.079M51.6561 11.079L51.6343 11.079M51.6343 11.079L51.6124 11.079M51.6343 11.079L51.6124 11.079M51.6124 11.079L51.5906 11.079M51.6124 11.079L51.5906 11.079M51.5906 11.079L51.5688 11.079M51.5906 11.079L51.5688 11.079M51.5688 11.079L51.547 11.079M51.5688 11.079L51.547 11.079M51.547 11.079L51.5251 11.079M51.547 11.079L51.5251 11.079M51.5251 11.079L51.5033 11.079M51.5251 11.079L51.5033 11.079M51.5033 11.079L51.4815 11.079M51.5033 11.079L51.4815 11.079M51.4815 11.079L51.4597 11.079M51.4815 11.079L51.4597 11.079M51.4597 11.079L51.4378 11.079M51.4597 11.079L51.4378 11.079M51.4378 11.079L51.416 11.079M51.4378 11.079L51.416 11.079M51.416 11.079L51.3942 11.079M51.416 11.079L51.3942 11.079M51.3942 11.079L51.3724 11.079M51.3942 11.079L51.3724 11.079M51.3724 11.079L51.3505 11.079M51.3724 11.079L51.3505 11.079M51.3505 11.079L51.3287 11.079M51.3505 11.079L51.3287 11.079M51.3287 11.079L51.3069 11.079M51.3287 11.079L51.3069 11.079M51.3069 11.079L51.285 11.079M51.3069 11.079L51.285 11.079M51.285 11.079L51.2632 11.079M51.285 11.079L51.2632 11.079M51.2632 11.079L51.2414 11.079M51.2632 11.079L51.2414 11.079M51.2414 11.079L51.2196 11.079M51.2414 11.079L51.2196 11.079M51.2196 11.079L51.1977 11.079M51.2196 11.079L51.1977 11.079M51.1977 11.079L51.1759 11.079M51.1977 11.079L51.1759 11.079M51.1759 11.079L51.1541 11.079M51.1759 11.079L51.1541 11.079M51.1541 11.079L51.1323 11.079M51.1541 11.079L51.1323 11.079M51.1323 11.079L51.1104 11.079M51.1323 11.079L51.1104 11.079M51.1104 11.079L51.0886 11.079M51.1104 11.079L51.0886 11.079M51.0886 11.079L51.0668 11.079M51.0886 11.079L51.0668 11.079M51.0668 11.079L51.0449 11.079M51.0668 11.079L51.0449 11.079M51.0449 11.079L51.0231 11.079M51.0449 11.079L51.0231 11.079M51.0231 11.079L51.0013 11.079M51.0231 11.079L51.0013 11.079M51.0013 11.079L50.9795 11.079M51.0013 11.079L50.9795 11.079M50.9795 11.079L50.9576 11.079M50.9795 11.079L50.9576 11.079M50.9576 11.079L50.9358 11.079M50.9576 11.079L50.9358 11.079M50.9358 11.079L50.914 11.079M50.9358 11.079L50.914 11.079M50.914 11.079L50.8922 11.079M50.914 11.079L50.8922 11.079M50.8922 11.079L50.8703 11.079M50.8922 11.079L50.8703 11.079M50.8703 11.079L50.8485 11.079M50.8703 11.079L50.8485 11.079M50.8485 11.079L50.8267 11.079M50.8485 11.079L50.8267 11.079M50.8267 11.079L50.8048 11.079M50.8267 11.079L50.8048 11.079M50.8048 11.079L50.783 11.079M50.8048 11.079L50.783 11.079M50.783 11.079L50.7612 11.079M50.783 11.079L50.7612 11.079M50.7612 11.079L50.7394 11.079M50.7612 11.079L50.7394 11.079M50.7394 11.079L50.7175 11.079M50.7394 11.079L50.7175 11.079M50.7175 11.079L50.6957 11.079M50.7175 11.079L50.6957 11.079M50.6957 11.079L50.6739 11.079M50.6957 11.079L50.6739 11.079M50.6739 11.079L50.652 11.079M50.6739 11.079L50.652 11.079M50.652 11.079L50.6302 11.079M50.652 11.079L50.6302 11.079M50.6302 11.079L50.6084 11.079M50.6302 11.079L50.6084 11.079M50.6084 11.079L50.5866 11.079M50.6084 11.079L50.5866 11.079M50.5866 11.079L50.5647 11.079M50.5866 11.079L50.5647 11.079M50.5647 11.079L50.5429 11.079M50.5647 11.079L50.5429 11.079M50.5429 11.079L50.5211 11.079M50.5429 11.079L50.5211 11.079M50.5211 11.079L50.4993 11.079M50.5211 11.079L50.4993 11.079M50.4993 11.079L50.4774 11.079M50.4993 11.079L50.4774 11.079M50.4774 11.079L50.4556 11.079M50.4774 11.079L50.4556 11.079M50.4556 11.079L50.4338 11.079M50.4556 11.079L50.4338 11.079M50.4338 11.079L50.4119 11.079M50.4338 11.079L50.4119 11.079M50.4119 11.079L50.3901 11.079M50.4119 11.079L50.3901 11.079M50.3901 11.079L50.3683 11.079M50.3901 11.079L50.3683 11.079M50.3683 11.079L50.3465 11.079M50.3683 11.079L50.3465 11.079M50.3465 11.079L50.3246 11.079M50.3465 11.079L50.3246 11.079M50.3246 11.079L50.3028 11.079M50.3246 11.079L50.3028 11.079M50.3028 11.079L50.281 11.079M50.3028 11.079L50.281 11.079M50.281 11.079L50.2591 11.079M50.281 11.079L50.2591 11.079M50.2591 11.079L50.2373 11.079M50.2591 11.079L50.2373 11.079M50.2373 11.079L50.2155 11.079M50.2373 11.079L50.2155 11.079M50.2155 11.079L50.1937 11.079M50.2155 11.079L50.1937 11.079M50.1937 11.079L50.1718 11.079M50.1937 11.079L50.1718 11.079M50.1718 11.079L50.15 11.079M50.1718 11.079L50.15 11.079M50.15 11.079L50.1282 11.079M50.15 11.079L50.1282 11.079M50.1282 11.079L50.1064 11.079M50.1282 11.079L50.1064 11.079M50.1064 11.079L50.0845 11.079M50.1064 11.079L50.0845 11.079M50.0845 11.079L50.0627 11.079M50.0845 11.079L50.0627 11.079M50.0627 11.079L50.0409 11.079M50.0627 11.079L50.0409 11.079M50.0409 11.079L50.019 11.079M50.0409 11.079L50.019 11.079M50.019 11.079L49.9972 11.079M50.019 11.079L49.9972 11.079M49.9972 11.079L49.9754 11.079M49.9972 11.079L49.9754 11.079M49.9754 11.079L49.9536 11.079M49.9754 11.079L49.9536 11.079M49.9536 11.079L49.9317 11.079M49.9536 11.079L49.9317 11.079M49.9317 11.079L49.9099 11.079M49.9317 11.079L49.9099 11.079M49.9099 11.079L49.8881 11.079M49.9099 11.079L49.8881 11.079M49.8881 11.079L49.8663 11.079M49.8881 11.079L49.8663 11.079M49.8663 11.079L49.8444 11.079M49.8663 11.079L49.8444 11.079M49.8444 11.079L49.8226 11.079M49.8444 11.079L49.8226 11.079M49.8226 11.079L49.8008 11.079M49.8226 11.079L49.8008 11.079M49.8008 11.079L49.7789 11.079M49.8008 11.079L49.7789 11.079M49.7789 11.079L49.7571 11.079M49.7789 11.079L49.7571 11.079M49.7571 11.079L49.7353 11.079M49.7571 11.079L49.7353 11.079M49.7353 11.079L49.7135 11.079M49.7353 11.079L49.7135 11.079M49.7135 11.079L49.6916 11.079M49.7135 11.079L49.6916 11.079M49.6916 11.079L49.6698 11.079M49.6916 11.079L49.6698 11.079M49.6698 11.079L49.648 11.079M49.6698 11.079L49.648 11.079M49.648 11.079L49.6262 11.079M49.648 11.079L49.6262 11.079M49.6262 11.079L49.6043 11.079M49.6262 11.079L49.6043 11.079M49.6043 11.079L49.5825 11.079M49.6043 11.079L49.5825 11.079M49.5825 11.079L49.5607 11.079M49.5825 11.079L49.5607 11.079M49.5607 11.079L49.5388 11.079M49.5607 11.079L49.5388 11.079M49.5388 11.079L49.517 11.079M49.5388 11.079L49.517 11.079M49.517 11.079L49.4952 11.079M49.517 11.079L49.4952 11.079M49.4952 11.079L49.4734 11.079M49.4952 11.079L49.4734 11.079M49.4734 11.079L49.4515 11.079M49.4734 11.079L49.4515 11.079M49.4515 11.079L49.4297 11.079M49.4515 11.079L49.4297 11.079M49.4297 11.079L49.4079 11.079M49.4297 11.079L49.4079 11.079M49.4079 11.079L49.3861 11.079M49.4079 11.079L49.3861 11.079M49.3861 11.079L49.3642 11.079M49.3861 11.079L49.3642 11.079M49.3642 11.079L49.3424 11.079M49.3642 11.079L49.3424 11.079M49.3424 11.079L49.3206 11.079M49.3424 11.079L49.3206 11.079M49.3206 11.079L49.2987 11.079M49.3206 11.079L49.2987 11.079M49.2987 11.079L49.2769 11.079M49.2987 11.079L49.2769 11.079M49.2769 11.079L49.2551 11.079M49.2769 11.079L49.2551 11.079M49.2551 11.079L49.2333 11.079M49.2551 11.079L49.2333 11.079M49.2333 11.079L49.2114 11.079M49.2333 11.079L49.2114 11.079M49.2114 11.079L49.1896 11.079M49.2114 11.079L49.1896 11.079M49.1896 11.079L49.1678 11.079M49.1896 11.079L49.1678 11.079M49.1678 11.079L49.146 11.079M49.1678 11.079L49.146 11.079M49.146 11.079L49.1241 11.079M49.146 11.079L49.1241 11.079M49.1241 11.079L49.1023 11.079M49.1241 11.079L49.1023 11.079M49.1023 11.079L49.0805 11.079M49.1023 11.079L49.0805 11.079M49.0805 11.079L49.0586 11.079M49.0805 11.079L49.0586 11.079M49.0586 11.079L49.0368 11.079M49.0586 11.079L49.0368 11.079M49.0368 11.079L49.015 11.079M49.0368 11.079L49.015 11.079M49.015 11.079L48.9932 11.079M49.015 11.079L48.9932 11.079M48.9932 11.079L48.9713 11.079M48.9932 11.079L48.9713 11.079M48.9713 11.079L48.9495 11.079M48.9713 11.079L48.9495 11.079M48.9495 11.079L48.9277 11.079M48.9495 11.079L48.9277 11.079M48.9277 11.079L48.9059 11.079M48.9277 11.079L48.9059 11.079M48.9059 11.079L48.884 11.079M48.9059 11.079L48.884 11.079M48.884 11.079L48.8622 11.079M48.884 11.079L48.8622 11.079M48.8622 11.079L48.8404 11.079M48.8622 11.079L48.8404 11.079M48.8404 11.079L48.8186 11.079M48.8404 11.079L48.8186 11.079M48.8186 11.079L48.7967 11.079M48.8186 11.079L48.7967 11.079M48.7967 11.079L48.7749 11.079M48.7967 11.079L48.7749 11.079M48.7749 11.079L48.7531 11.079M48.7749 11.079L48.7531 11.079M48.7531 11.079L48.7313 11.079M48.7531 11.079L48.7313 11.079M48.7313 11.079L48.7094 11.079M48.7313 11.079L48.7094 11.079M48.7094 11.079L48.6876 11.079M48.7094 11.079L48.6876 11.079M48.6876 11.079L48.6658 11.079M48.6876 11.079L48.6658 11.079M48.6658 11.079L48.644 11.079M48.6658 11.079L48.644 11.079M48.644 11.079L48.6221 11.079M48.644 11.079L48.6221 11.079M48.6221 11.079L48.6003 11.079M48.6221 11.079L48.6003 11.079M48.6003 11.079L48.5785 11.079M48.6003 11.079L48.5785 11.079M48.5785 11.079L48.5567 11.079M48.5785 11.079L48.5567 11.079M48.5567 11.079L48.5348 11.079M48.5567 11.079L48.5348 11.079M48.5348 11.079L48.513 11.079M48.5348 11.079L48.513 11.079M48.513 11.079L48.4912 11.079M48.513 11.079L48.4912 11.079M48.4912 11.079L48.4693 11.079M48.4912 11.079L48.4693 11.079M48.4693 11.079L48.4475 11.079M48.4693 11.079L48.4475 11.079M48.4475 11.079L48.4257 11.079M48.4475 11.079L48.4257 11.079M48.4257 11.079L48.4039 11.079M48.4257 11.079L48.4039 11.079M48.4039 11.079L48.382 11.079M48.4039 11.079L48.382 11.079M48.382 11.079L48.3602 11.079M48.382 11.079L48.3602 11.079M48.3602 11.079L48.3384 11.079M48.3602 11.079L48.3384 11.079M48.3384 11.079L48.3166 11.079M48.3384 11.079L48.3166 11.079M48.3166 11.079L48.2947 11.079M48.3166 11.079L48.2947 11.079M48.2947 11.079L48.2729 11.079M48.2947 11.079L48.2729 11.079M48.2729 11.079L48.2511 11.079M48.2729 11.079L48.2511 11.079M48.2511 11.079L48.2293 11.079M48.2511 11.079L48.2293 11.079M48.2293 11.079L48.2074 11.079M48.2293 11.079L48.2074 11.079M48.2074 11.079L48.1856 11.079M48.2074 11.079L48.1856 11.079M48.1856 11.079L48.1638 11.079M48.1856 11.079L48.1638 11.079M48.1638 11.079L48.142 11.079M48.1638 11.079L48.142 11.079M48.142 11.079L48.1202 11.079M48.142 11.079L48.1202 11.079M48.1202 11.079L48.0983 11.079M48.1202 11.079L48.0983 11.079M48.0983 11.079L48.0765 11.079M48.0983 11.079L48.0765 11.079M48.0765 11.079L48.0547 11.079M48.0765 11.079L48.0547 11.079M48.0547 11.079L48.0329 11.079M48.0547 11.079L48.0329 11.079M48.0329 11.079L48.011 11.079M48.0329 11.079L48.011 11.079M48.011 11.079L47.9892 11.079M48.011 11.079L47.9892 11.079M47.9892 11.079L47.9674 11.079M47.9892 11.079L47.9674 11.079M47.9674 11.079L47.9456 11.079M47.9674 11.079L47.9456 11.079M47.9456 11.079L47.9237 11.079M47.9456 11.079L47.9237 11.079M47.9237 11.079L47.9019 11.079M47.9237 11.079L47.9019 11.079M47.9019 11.079L47.8801 11.079M47.9019 11.079L47.8801 11.079M47.8801 11.079L47.8583 11.079M47.8801 11.079L47.8583 11.079M47.8583 11.079L47.8364 11.079M47.8583 11.079L47.8364 11.079M47.8364 11.079L47.8146 11.079M47.8364 11.079L47.8146 11.079M47.8146 11.079L47.7928 11.079M47.8146 11.079L47.7928 11.079M47.7928 11.079L47.771 11.079M47.7928 11.079L47.771 11.079M47.771 11.079L47.7491 11.079M47.771 11.079L47.7491 11.079M47.7491 11.079L47.7273 11.079M47.7491 11.079L47.7273 11.079M47.7273 11.079L47.7055 11.079M47.7273 11.079L47.7055 11.079M47.7055 11.079L47.6837 11.079M47.7055 11.079L47.6837 11.079M47.6837 11.079L47.6619 11.079M47.6837 11.079L47.6619 11.079M47.6619 11.079L47.64 11.079M47.6619 11.079L47.64 11.079M47.64 11.079L47.6182 11.079M47.64 11.079L47.6182 11.079M47.6182 11.079L47.5964 11.079M47.6182 11.079L47.5964 11.079M47.5964 11.079L47.5746 11.079M47.5964 11.079L47.5746 11.079M47.5746 11.079L47.5527 11.079M47.5746 11.079L47.5527 11.079M47.5527 11.079L47.5309 11.079M47.5527 11.079L47.5309 11.079M47.5309 11.079L47.5091 11.079M47.5309 11.079L47.5091 11.079M47.5091 11.079L47.4873 11.079M47.5091 11.079L47.4873 11.079M47.4873 11.079L47.4655 11.079M47.4873 11.079L47.4655 11.079M47.4655 11.079L47.4436 11.079M47.4655 11.079L47.4436 11.079M47.4436 11.079L47.4218 11.079M47.4436 11.079L47.4218 11.079M47.4218 11.079L47.4 11.079M47.4218 11.079L47.4 11.079M47.4 11.079L47.3782 11.079M47.4 11.079L47.3782 11.079M47.3782 11.079L47.3563 11.079M47.3782 11.079L47.3563 11.079M47.3563 11.079L47.3345 11.079M47.3563 11.079L47.3345 11.079M47.3345 11.079L47.3127 11.079M47.3345 11.079L47.3127 11.079M47.3127 11.079L47.2909 11.079M47.3127 11.079L47.2909 11.079M47.2909 11.079L47.2691 11.079M47.2909 11.079L47.2691 11.079M47.2691 11.079L47.2472 11.079M47.2691 11.079L47.2472 11.079M47.2472 11.079L47.2254 11.079M47.2472 11.079L47.2254 11.079M47.2254 11.079L47.2036 11.079M47.2254 11.079L47.2036 11.079M47.2036 11.079L47.1818 11.079M47.2036 11.079L47.1818 11.079M47.1818 11.079L47.16 11.079M47.1818 11.079L47.16 11.079M47.16 11.079L47.1381 11.079M47.16 11.079L47.1381 11.079M47.1381 11.079L47.1163 11.079M47.1381 11.079L47.1163 11.079M47.1163 11.079L47.0945 11.079M47.1163 11.079L47.0945 11.079M47.0945 11.079L47.0727 11.079M47.0945 11.079L47.0727 11.079M47.0727 11.079L47.0509 11.079M47.0727 11.079L47.0509 11.079M47.0509 11.079L47.029 11.079M47.0509 11.079L47.029 11.079M47.029 11.079L47.0072 11.079M47.029 11.079L47.0072 11.079M47.0072 11.079L46.9854 11.079M47.0072 11.079L46.9854 11.079M46.9854 11.079L46.9636 11.079M46.9854 11.079L46.9636 11.079M46.9636 11.079L46.9418 11.079M46.9636 11.079L46.9418 11.079M46.9418 11.079L46.9199 11.079M46.9418 11.079L46.9199 11.079M46.9199 11.079L46.8981 11.079M46.9199 11.079L46.8981 11.079M46.8981 11.079L46.8763 11.079M46.8981 11.079L46.8763 11.079M46.8763 11.079L46.8545 11.079M46.8763 11.079L46.8545 11.079M46.8545 11.079L46.8327 11.079M46.8545 11.079L46.8327 11.079M46.8327 11.079L46.8108 11.079M46.8327 11.079L46.8108 11.079M46.8108 11.079L46.789 11.079M46.8108 11.079L46.789 11.079M46.789 11.079L46.7672 11.079M46.789 11.079L46.7672 11.079M46.7672 11.079L46.7454 11.079M46.7672 11.079L46.7454 11.079M46.7454 11.079L46.7236 11.079M46.7454 11.079L46.7236 11.079M46.7236 11.079L46.7017 11.079M46.7236 11.079L46.7017 11.079M46.7017 11.079L46.6799 11.079M46.7017 11.079L46.6799 11.079M46.6799 11.079L46.6581 11.079M46.6799 11.079L46.6581 11.079M46.6581 11.079L46.6363 11.079M46.6581 11.079L46.6363 11.079M46.6363 11.079L46.6145 11.079M46.6363 11.079L46.6145 11.079M46.6145 11.079L46.5927 11.079M46.6145 11.079L46.5927 11.079M46.5927 11.079L46.5708 11.079M46.5927 11.079L46.5708 11.079M46.5708 11.079L46.549 11.079M46.5708 11.079L46.549 11.079M46.549 11.079L46.5272 11.079M46.549 11.079L46.5272 11.079M46.5272 11.079L46.5054 11.079M46.5272 11.079L46.5054 11.079M46.5054 11.079L46.4836 11.079M46.5054 11.079L46.4836 11.079M46.4836 11.079L46.4617 11.079M46.4836 11.079L46.4617 11.079M46.4617 11.079L46.4399 11.079M46.4617 11.079L46.4399 11.079M46.4399 11.079L46.4181 11.079M46.4399 11.079L46.4181 11.079M46.4181 11.079L46.3963 11.079M46.4181 11.079L46.3963 11.079M46.3963 11.079L46.3745 11.079M46.3963 11.079L46.3745 11.079M46.3745 11.079L46.3527 11.079M46.3745 11.079L46.3527 11.079M46.3527 11.079L46.3308 11.079M46.3527 11.079L46.3308 11.079M46.3308 11.079L46.309 11.079M46.3308 11.079L46.309 11.079M46.309 11.079L46.2872 11.079M46.309 11.079L46.2872 11.079M46.2872 11.079L46.2654 11.079M46.2872 11.079L46.2654 11.079M46.2654 11.079L46.2436 11.079M46.2654 11.079L46.2436 11.079M46.2436 11.079L46.2218 11.079M46.2436 11.079L46.2218 11.079M46.2218 11.079L46.1999 11.079M46.2218 11.079L46.1999 11.079M46.1999 11.079L46.1781 11.079M46.1999 11.079L46.1781 11.079M46.1781 11.079L46.1563 11.079M46.1781 11.079L46.1563 11.079M46.1563 11.079L46.1345 11.079M46.1563 11.079L46.1345 11.079M46.1345 11.079L46.1127 11.079M46.1345 11.079L46.1127 11.079M46.1127 11.079L46.0909 11.079M46.1127 11.079L46.0909 11.079M46.0909 11.079L46.0691 11.079M46.0909 11.079L46.0691 11.079M46.0691 11.079L46.0472 11.079M46.0691 11.079L46.0472 11.079M46.0472 11.079L46.0254 11.079M46.0472 11.079L46.0254 11.079M46.0254 11.079L46.0036 11.079M46.0254 11.079L46.0036 11.079M46.0036 11.079L45.9818 11.079M46.0036 11.079L45.9818 11.079M45.9818 11.079L45.96 11.079M45.9818 11.079L45.96 11.079M45.96 11.079L45.9382 11.079M45.96 11.079L45.9382 11.079M45.9382 11.079L45.9163 11.079M45.9382 11.079L45.9163 11.079M45.9163 11.079L45.8945 11.079M45.9163 11.079L45.8945 11.079M45.8945 11.079L45.8727 11.079M45.8945 11.079L45.8727 11.079M45.8727 11.079L45.8509 11.079M45.8727 11.079L45.8509 11.079M45.8509 11.079L45.8291 11.079M45.8509 11.079L45.8291 11.079M45.8291 11.079L45.8073 11.079M45.8291 11.079L45.8073 11.079M45.8073 11.079L45.7855 11.079M45.8073 11.079L45.7855 11.079M45.7855 11.079L45.7637 11.079M45.7855 11.079L45.7637 11.079M45.7637 11.079L45.7418 11.079M45.7637 11.079L45.7418 11.079M45.7418 11.079L45.72 11.079M45.7418 11.079L45.72 11.079M45.72 11.079L45.6982 11.079M45.72 11.079L45.6982 11.079M45.6982 11.079L45.6764 11.079M45.6982 11.079L45.6764 11.079M45.6764 11.079L45.6546 11.079M45.6764 11.079L45.6546 11.079M45.6546 11.079L45.6328 11.079M45.6546 11.079L45.6328 11.079M45.6328 11.079L45.611 11.079M45.6328 11.079L45.611 11.079M45.611 11.079L45.5892 11.079M45.611 11.079L45.5892 11.079M45.5892 11.079L45.5673 11.079M45.5892 11.079L45.5673 11.079M45.5673 11.079L45.5455 11.079M45.5673 11.079L45.5455 11.079M45.5455 11.079L45.5237 11.079M45.5455 11.079L45.5237 11.079M45.5237 11.079L45.5019 11.079M45.5237 11.079L45.5019 11.079M45.5019 11.079L45.4801 11.079M45.5019 11.079L45.4801 11.079M45.4801 11.079L45.4583 11.079M45.4801 11.079L45.4583 11.079M45.4583 11.079L45.4365 11.079M45.4583 11.079L45.4365 11.079M45.4365 11.079L45.4147 11.079M45.4365 11.079L45.4147 11.079M45.4147 11.079L45.3928 11.079M45.4147 11.079L45.3928 11.079M45.3928 11.079L45.371 11.079M45.3928 11.079L45.371 11.079M45.371 11.079L45.3492 11.079L45.371 11.079Z" fill="#2D2A2A" stroke="#2D2A2A"/>
<path d="M1.30231 10.4835L1.30233 10.4836L1.30882 10.4805C1.58022 10.3508 1.92245 10.2044 2.25048 10.132C2.59643 10.0555 2.80955 10.0872 2.9213 10.1617C6.58312 12.6372 9.85309 15.8202 12.6969 19.6949C12.6709 19.7218 12.6361 19.7525 12.5921 19.786C12.3823 19.9461 12.0911 20.0775 11.9566 20.136L11.9491 20.1393L11.9417 20.1428C11.5899 20.3099 11.1901 20.4303 10.8252 20.4742C10.8124 20.4756 10.7985 20.4772 10.7837 20.4789C10.6996 20.4884 10.5871 20.5012 10.4733 20.5001C10.4419 20.4997 10.416 20.4983 10.3956 20.4963C7.55834 16.6315 4.29707 13.4283 0.64184 10.9114C0.652971 10.9022 0.664545 10.8928 0.676552 10.8832C0.79895 10.7859 0.943641 10.6907 1.07029 10.6142C1.13265 10.5765 1.18825 10.5447 1.23128 10.5211C1.2528 10.5093 1.27054 10.4998 1.28387 10.4929C1.29518 10.487 1.301 10.4842 1.30231 10.4835ZM10.3394 20.4867C10.3395 20.4866 10.3416 20.4871 10.3452 20.4885C10.3411 20.4874 10.3393 20.4867 10.3394 20.4867Z" fill="#2D2A2A" stroke="#2D2A2A"/>
<path d="M0.724832 11.3955C0.724735 11.3955 0.72517 11.3943 0.726426 11.3918C0.725555 11.3942 0.724928 11.3954 0.724832 11.3955ZM0.957247 11.3058C0.907971 11.2964 0.86233 11.2849 0.822159 11.2723C2.24978 9.63323 3.676 7.9925 5.10204 6.35199L5.10442 6.34924C6.54731 4.68934 7.98999 3.02967 9.43406 1.37184C9.90813 0.83075 10.6078 0.564362 11.2869 0.505897C11.3126 0.504594 11.3907 0.507193 11.4934 0.526671C11.5427 0.536014 11.5883 0.547522 11.6285 0.560178C10.2004 2.19974 8.77372 3.84102 7.34722 5.48208L7.34625 5.48319L7.34597 5.48351C5.90317 7.14332 4.46056 8.8029 3.01657 10.4606C2.54289 11.0012 1.83797 11.268 1.16364 11.3265C1.13788 11.3278 1.05985 11.3252 0.957247 11.3058ZM11.77 0.624755C11.7699 0.624788 11.7684 0.623726 11.7661 0.621467C11.769 0.623591 11.7702 0.624721 11.77 0.624755ZM11.7258 0.436974C11.7259 0.436957 11.7255 0.438144 11.7243 0.44058C11.7251 0.438208 11.7257 0.43699 11.7258 0.436974ZM0.68066 11.2077C0.680799 11.2076 0.682236 11.2087 0.684558 11.211C0.681683 11.2088 0.680522 11.2077 0.68066 11.2077Z" fill="#2D2A2A" stroke="#2D2A2A"/>
</g>
<defs>
<clipPath id="clip0">
<rect width="58.2798" height="21" fill="white" transform="translate(58.2798 21) rotate(-180)"/>
</clipPath>
</defs>
</svg>
