<svg width="88" height="47" viewBox="0 0 88 47" fill="none" xmlns="http://www.w3.org/2000/svg">
<path d="M19.2 0.549997C22 0.549997 24.5167 1.08333 26.75 2.15C28.9833 3.18333 30.7333 4.61667 32 6.45C34.5333 9.95 35.7667 14.0333 35.7 18.7C35.5333 23.8 33.85 28.05 30.65 31.45C27.45 34.85 23.15 36.5333 17.75 36.5C14.9167 36.4667 12.3333 35.9 10 34.8C7.7 33.6667 5.86667 32.1667 4.5 30.3C1.8 26.5333 0.533333 22.4833 0.7 18.15C0.733333 12.8833 2.5 8.63333 6 5.4C9.46667 2.16666 13.8667 0.549997 19.2 0.549997ZM29 18.2C28.7 13.5333 27.4167 9.53333 25.15 6.2C22.9167 2.86667 20.1667 1.28333 16.9 1.45C13.6333 1.51667 11.1333 3.03333 9.4 6C7.63333 8.96667 6.93333 12.9333 7.3 17.9C7.63333 22.4667 8.95 26.5 11.25 30C13.5833 33.5 16.3167 35.3667 19.45 35.6C23.05 35.9333 25.65 34.5 27.25 31.3C28.85 28.0667 29.4333 23.7 29 18.2ZM55.0727 12.65C57.8393 12.5833 60.0893 13.6 61.8227 15.7C63.5893 17.8333 64.4727 20.6667 64.4727 24.2C64.4727 27.6667 63.4727 30.5667 61.4727 32.9C59.506 35.2 57.156 36.3833 54.4227 36.45C51.556 36.45 49.206 35.6667 47.3727 34.1V43.1C47.3727 44.4333 47.806 45.3667 48.6727 45.9C49.4393 46.4333 50.356 46.7 51.4227 46.7H39.1227H39.2227C39.556 46.7 39.9393 46.6333 40.3727 46.5C40.8393 46.3667 41.3393 46 41.8727 45.4C42.406 44.8 42.6727 44.0333 42.6727 43.1V19.45C42.6727 18.35 42.4393 17.5833 41.9727 17.15C41.506 16.7167 40.9227 16.5667 40.2227 16.7L47.3727 12.4V17.05V17.1V25.5C47.3727 29.0333 48.1893 31.7167 49.8227 33.55C51.456 35.3833 53.3227 36.1667 55.4227 35.9C56.956 35.7 58.106 34.5667 58.8727 32.5C59.606 30.4333 59.9227 27.9167 59.8227 24.95C59.6893 22.0833 59.0727 19.7833 57.9727 18.05C56.906 16.3167 55.4893 15.3 53.7227 15C51.3227 14.6 49.3393 15.5333 47.7727 17.8C48.006 17.1667 48.606 16.2833 49.5727 15.15C50.9727 13.55 52.806 12.7167 55.0727 12.65ZM47.7227 17.8H47.7727H47.7227ZM85.8023 14.6V20.2C84.8023 18.1667 83.4523 16.5167 81.7523 15.25C80.0857 13.95 78.4023 13.2833 76.7023 13.25C75.6357 13.25 74.769 13.5167 74.1023 14.05C73.469 14.5833 73.119 15.2667 73.0523 16.1C73.019 16.5667 73.0357 17 73.1023 17.4C73.2023 17.7667 73.419 18.2333 73.7523 18.8C74.119 19.3333 74.7523 19.8667 75.6523 20.4C76.5523 20.9333 77.7023 21.4167 79.1023 21.85C82.1357 22.8167 84.269 23.8667 85.5023 25C86.7357 26.1333 87.369 27.5167 87.4023 29.15C87.4023 31.1833 86.719 32.9333 85.3523 34.4C83.9857 35.8667 81.8857 36.6 79.0523 36.6C77.6523 36.6 76.3023 36.4333 75.0023 36.1C73.769 35.8 72.7857 35.5167 72.0523 35.25C71.519 35.05 70.6857 34.65 69.5523 34.05L69.4523 26.85C70.919 29.85 72.7523 32.0833 74.9523 33.55C76.919 34.85 78.8857 35.5333 80.8523 35.6C82.8523 35.6333 84.0523 34.9 84.4523 33.4C84.7857 32.0667 84.3857 30.8333 83.2523 29.7C82.1523 28.5667 80.2523 27.5833 77.5523 26.75C74.819 25.85 72.869 24.8167 71.7023 23.65C70.5357 22.45 69.969 21.0167 70.0023 19.35C70.0023 17.5167 70.7523 15.9167 72.2523 14.55C73.819 13.1833 75.9857 12.5 78.7523 12.5C81.6857 12.5 84.0357 13.2 85.8023 14.6Z" fill="black"/>
</svg>
