<svg width="59" height="21" viewBox="0 0 59 21" fill="none" xmlns="http://www.w3.org/2000/svg">
<g clip-path="url(#clip0)">
<path d="M54.5528 10.6401L54.5528 10.6397C54.5736 10.4761 54.5393 10.3833 54.499 10.3221C54.4527 10.2518 54.3674 10.1775 54.2234 10.1104C53.9243 9.97073 53.5007 9.92102 53.1448 9.92102H53.0673H52.9899H52.9125H52.8351H52.7576H52.6802H52.6028H52.5254H52.448H52.3705H52.2931H52.2157H52.1383H52.0608H51.9834H51.906H51.8286H51.7512H51.6737H51.5963L51.5189 9.92102H51.4415H51.3641H51.2866H51.2092H51.1318H51.0544H50.9769H50.8995H50.8221H50.7447H50.6673H50.5898H50.5124H50.435H50.3576H50.2801H50.2027H50.1253H50.0479H49.9705H49.893H49.8156H49.7382H49.6608H49.5833H49.5059H49.4285H49.3511H49.2737H49.1962H49.1188H49.0414H48.964H48.8865H48.8091H48.7317H48.6543H48.5769H48.4994H48.422H48.3446H48.2672H48.1897H48.1123H48.0349H47.9575H47.8801H47.8026H47.7252H47.6478H47.5704H47.4929H47.4155H47.3381H47.2607H47.1833H47.1058H47.0284H46.951H46.8736H46.7961H46.7187H46.6413H46.5639H46.4864H46.409H46.3316H46.2542H46.1768H46.0993H46.0219H45.9445H45.8671H45.7896H45.7122H45.6348H45.5574H45.4799H45.4025H45.3251H45.2477H45.1702H45.0928H45.0154H44.938H44.8606H44.7831H44.7057H44.6283H44.5509H44.4734H44.396H44.3186H44.2412H44.1637H44.0863H44.0089H43.9315H43.854H43.7766H43.6992H43.6218H43.5443H43.4669H43.3895H43.3121H43.2346H43.1572H43.0798H43.0024H42.925H42.8475H42.7701H42.6927H42.6153H42.5378H42.4604H42.383H42.3056H42.2281H42.1507H42.0733H41.9959H41.9184H41.841H41.7636H41.6862H41.6087H41.5313H41.4539H41.3765H41.299H41.2216H41.1442H41.0667H40.9893H40.9119H40.8345H40.757H40.6796H40.6022H40.5248H40.4473H40.3699H40.2925H40.2151H40.1376H40.0602H39.9828H39.9054H39.8279L39.7505 9.92102H39.6731H39.5957H39.5182H39.4408H39.3634H39.2859H39.2085H39.1311H39.0537H38.9762H38.8988H38.8214H38.744H38.6665H38.5891H38.5117H38.4342H38.3568H38.2794H38.202H38.1245H38.0471H37.9697H37.8923H37.8148H37.7374H37.66H37.5825H37.5051H37.4277H37.3503H37.2728H37.1954H37.118H37.0405H36.9631H36.8857H36.8083H36.7308H36.6534H36.576H36.4985H36.4211H36.3437H36.2662H36.1888H36.1114H36.034H35.9565H35.8791H35.8017H35.7242H35.6468H35.5694H35.4919H35.4145H35.3371H35.2597H35.1822H35.1048H35.0274H34.9499H34.8725H34.7951H34.7176H34.6402H34.5628H34.4853H34.4079H34.3305H34.2531H34.1756H34.0982H34.0208H33.9433H33.8659H33.7885H33.711H33.6336H33.5562H33.4787H33.4013H33.3239H33.2464H33.169H33.0916H33.0141H32.9367H32.8593H32.7818H32.7044H32.627H32.5495H32.4721H32.3947H32.3172H32.2398H32.1624H32.0849H32.0075H31.9301H31.8526H31.7752H31.6978H31.6203H31.5429H31.4655H31.388H31.3106H31.2332H31.1557H31.0783H31.0009H30.9234H30.846H30.7686H30.6911H30.6137H30.5363H30.4588H30.3814H30.3039H30.2265H30.1491H30.0716H29.9942H29.9168H29.8393H29.7619H29.6845H29.607H29.5296H29.4521H29.3747H29.2973H29.2198H29.1424H29.065H28.9875H28.9101H28.8326H28.7552L28.6778 9.92102H28.6003H28.5229H28.4455H28.368H28.2906H28.2131H28.1357H28.0583H27.9808H27.9034H27.8259H27.7485H27.6711H27.5936H27.5162H27.4388H27.3613H27.2839H27.2064H27.129H27.0516H26.9741H26.8967H26.8192H26.7418H26.6644H26.5869H26.5095H26.432H26.3546H26.2771H26.1997H26.1223H26.0448H25.9674H25.8899H25.8125H25.7351H25.6576H25.5802H25.5027H25.4253H25.3478H25.2704H25.193H25.1155H25.0381H24.9606H24.8832H24.8057H24.7283H24.6509H24.5734H24.496H24.4185H24.3411H24.2636H24.1862H24.1087H24.0313H23.9539H23.8764H23.799H23.7215H23.6441H23.5666H23.4892H23.4117H23.3343H23.2569H23.1794H23.102H23.0245H22.9471H22.8696H22.7922H22.7147H22.6373H22.5598H22.4824H22.4049H22.3275H22.25H22.1726H22.0951H22.0177H21.9403H21.8628H21.7854H21.7079H21.6305H21.553H21.4756H21.3981H21.3207H21.2432H21.1658H21.0883H21.0109H20.9334H20.856H20.7785H20.7011H20.6236H20.5462H20.4687H20.3913H20.3138H20.2364H20.1589H20.0815H20.004H19.9266H19.8491H19.7717H19.6942H19.6168H19.5393H19.4619H19.3844H19.3069H19.2295H19.152H19.0746H18.9971H18.9197H18.8422H18.7648H18.6873H18.6099H18.5324H18.455H18.3775H18.3001H18.2226H18.1451H18.0677H17.9902H17.9128H17.8353H17.7579H17.6804H17.603H17.5255H17.448H17.3706H17.2931H17.2157H17.1382H17.0608H16.9833L16.9058 9.92102H16.8284H16.7509H16.6735H16.596H16.5186H16.4411H16.3636H16.2862H16.2087H16.1313H16.0538H15.9764H15.8989H15.8214H15.744H15.6665H15.5891H15.5116H15.4341H15.3567H15.2792H15.2018H15.1243H15.0468H14.9694H14.8919H14.8145H14.737H14.6595H14.5821H14.5046H14.4271H14.3497H14.2722H14.1948H14.1173H14.0398H13.9624H13.8849H13.8074H13.73H13.6525H13.575H13.4976L54.5528 10.6401ZM54.5528 10.6401C54.5179 10.9166 54.298 11.2168 53.9061 11.4671C53.5204 11.7135 53.0643 11.8465 52.7336 11.8465H52.7118H52.69H52.6682H52.6464H52.6246H52.6028H52.581H52.5592H52.5374H52.5156H52.4938H52.4719H52.4501H52.4283H52.4065H52.3847H52.3629H52.3411H52.3193H52.2975H52.2757H52.2539H52.232H52.2102H52.1884H52.1666H52.1448H52.123H52.1012H52.0794H52.0576H52.0357H52.0139H51.9921H51.9703H51.9485H51.9267H51.9049H51.8831H51.8613H51.8394H51.8176H51.7958H51.774H51.7522H51.7304H51.7086H51.6867H51.6649H51.6431H51.6213H51.5995H51.5777H51.5559H51.534H51.5122H51.4904H51.4686H51.4468H51.425H51.4032H51.3813H51.3595H51.3377H51.3159H51.2941H51.2723H51.2504H51.2286H51.2068H51.185H51.1632H51.1414H51.1195H51.0977H51.0759H51.0541H51.0323H51.0105H50.9886H50.9668H50.945H50.9232H50.9014H50.8796H50.8577H50.8359H50.8141H50.7923H50.7705H50.7486H50.7268H50.705H50.6832H50.6614H50.6395H50.6177H50.5959H50.5741H50.5523H50.5304H50.5086H50.4868H50.465H50.4432H50.4213H50.3995H50.3777H50.3559H50.3341H50.3122H50.2904H50.2686H50.2468H50.225H50.2031H50.1813H50.1595H50.1377H50.1158H50.094H50.0722H50.0504H50.0286H50.0067H49.9849H49.9631H49.9413H49.9194H49.8976H49.8758H49.854H49.8322H49.8103H49.7885H49.7667H49.7449H49.723H49.7012H49.6794H49.6576H49.6357H49.6139H49.5921H49.5703H49.5485H49.5266H49.5048H49.483H49.4612H49.4393H49.4175H49.3957H49.3739H49.352H49.3302H49.3084H49.2866H49.2647H49.2429H49.2211H49.1993H49.1774H49.1556H49.1338H49.112H49.0901H49.0683H49.0465H49.0247H49.0028H48.981H48.9592H48.9374H48.9155H48.8937H48.8719H48.8501H48.8282H48.8064H48.7846H48.7628H48.7409H48.7191H48.6973H48.6755H48.6536H48.6318H48.61H48.5882H48.5663H48.5445H48.5227H48.5008H48.479H48.4572H48.4354H48.4135H48.3917H48.3699H48.3481H48.3262H48.3044H48.2826H48.2607H48.2389H48.2171H48.1953H48.1734H48.1516H48.1298H48.108H48.0861H48.0643H48.0425H48.0207H47.9988H47.977H47.9552H47.9333H47.9115H47.8897H47.8679H47.846H47.8242H47.8024H47.7806H47.7587H47.7369H47.7151H47.6932H47.6714H47.6496H47.6278H47.6059H47.5841H47.5623H47.5404H47.5186H47.4968H47.475H47.4531H47.4313H47.4095H47.3877H47.3658H47.344H47.3222H47.3003H47.2785H47.2567H47.2349H47.213H47.1912H47.1694H47.1476H47.1257H47.1039H47.0821H47.0602H47.0384H47.0166H46.9948H46.9729H46.9511H46.9293H46.9074H46.8856H46.8638H46.842H46.8201H46.7983H46.7765H46.7547H46.7328H46.711H46.6892H46.6673H46.6455H46.6237H46.6019H46.58H46.5582H46.5364H46.5145H46.4927H46.4709H46.4491H46.4272H46.4054H46.3836H46.3618H46.3399H46.3181H46.2963H46.2744H46.2526H46.2308H46.209H46.1871H46.1653H46.1435H46.1217H46.0998H46.078H46.0562H46.0344H46.0125H45.9907H45.9689H45.947H45.9252H45.9034H45.8816H45.8597H45.8379H45.8161H45.7943H45.7724H45.7506H45.7288H45.707H45.6851H45.6633H45.6415H45.6196H45.5978H45.576H45.5542H45.5323H45.5105H45.4887H45.4669H45.445H45.4232H45.4014H45.3796H45.3577H45.3359H45.3141H45.2923H45.2704H45.2486H45.2268H45.205H45.1831H45.1613H45.1395H45.1177H45.0958H45.074H45.0522H45.0304H45.0085H44.9867H44.9649H44.9431H44.9212H44.8994H44.8776H44.8558H44.8339H44.8121H44.7903H44.7685H44.7466H44.7248H44.703H44.6812H44.6594H44.6375H44.6157H44.5939H44.5721H44.5502H44.5284H44.5066H44.4848H44.4629H44.4411H44.4193H44.3975H44.3757H44.3538H44.332H44.3102H44.2884H44.2665H44.2447H44.2229H44.2011H44.1793H44.1574H44.1356H44.1138H44.092H44.0701H44.0483H44.0265H44.0047H43.9829H43.961H43.9392H43.9174H43.8956H43.8738H43.8519H43.8301H43.8083H43.7865H43.7647H43.7428H43.721H43.6992H43.6774H43.6556H43.6337H43.6119H43.5901H43.5683H43.5465H43.5246H43.5028H43.481H43.4592H43.4374H43.4156H43.3937H43.3719H43.3501H43.3283H43.3065H43.2846H43.2628H43.241H43.2192H43.1974H43.1756H43.1537H43.1319H43.1101H43.0883H43.0665H43.0447H43.0228H43.001H42.9792H42.9574H42.9356H42.9138H42.8919H42.8701H42.8483H42.8265H42.8047H42.7829H42.7611H42.7392H42.7174H42.6956H42.6738H42.652H42.6302H42.6084H42.5865H42.5647H42.5429H42.5211H42.4993H42.4775H42.4557H42.4338H42.412H42.3902H42.3684H42.3466H42.3248H42.303H42.2812H42.2594H42.2375H42.2157H42.1939H42.1721H42.1503H42.1285H42.1067H42.0849H42.0631H42.0412H42.0194H41.9976H41.9758H41.954H41.9322H41.9104H41.8886H41.8668H41.845H41.8232H41.8013H41.7795H41.7577H41.7359H41.7141H41.6923H41.6705H41.6487H41.6269H41.6051H41.5833H41.5615H41.484M54.5528 10.6401L41.484 11.8465M41.484 11.8465H41.4065M41.484 11.8465H41.4065M41.4065 11.8465H41.3291M41.4065 11.8465H41.3291M41.3291 11.8465H41.2516M41.3291 11.8465H41.2516M41.2516 11.8465H41.1741M41.2516 11.8465H41.1741M41.1741 11.8465H41.0967M41.1741 11.8465H41.0967M41.0967 11.8465H41.0192M41.0967 11.8465H41.0192M41.0192 11.8465H40.9418M41.0192 11.8465H40.9418M40.9418 11.8465H40.8643M40.9418 11.8465H40.8643M40.8643 11.8465H40.7868M40.8643 11.8465H40.7868M40.7868 11.8465H40.7094M40.7868 11.8465H40.7094M40.7094 11.8465H40.6319M40.7094 11.8465H40.6319M40.6319 11.8465H40.5544M40.6319 11.8465H40.5544M40.5544 11.8465H40.477M40.5544 11.8465H40.477M40.477 11.8465H40.3995M40.477 11.8465H40.3995M40.3995 11.8465H40.3221M40.3995 11.8465H40.3221M40.3221 11.8465H40.2446M40.3221 11.8465H40.2446M40.2446 11.8465H40.1671M40.2446 11.8465H40.1671M40.1671 11.8465H40.0897M40.1671 11.8465H40.0897M40.0897 11.8465H40.0122M40.0897 11.8465H40.0122M40.0122 11.8465H39.9348M40.0122 11.8465H39.9348M39.9348 11.8465H39.8573M39.9348 11.8465H39.8573M39.8573 11.8465H39.7798M39.8573 11.8465H39.7798M39.7798 11.8465H39.7024M39.7798 11.8465H39.7024M39.7024 11.8465H39.6249M39.7024 11.8465H39.6249M39.6249 11.8465H39.5475M39.6249 11.8465H39.5475M39.5475 11.8465H39.47M39.5475 11.8465H39.47M39.47 11.8465H39.3925M39.47 11.8465H39.3925M39.3925 11.8465H39.3151M39.3925 11.8465H39.3151M39.3151 11.8465H39.2376M39.3151 11.8465H39.2376M39.2376 11.8465H39.1602M39.2376 11.8465H39.1602M39.1602 11.8465H39.0827M39.1602 11.8465H39.0827M39.0827 11.8465H39.0052M39.0827 11.8465H39.0052M39.0052 11.8465H38.9278M39.0052 11.8465H38.9278M38.9278 11.8465H38.8503M38.9278 11.8465H38.8503M38.8503 11.8465H38.7729M38.8503 11.8465H38.7729M38.7729 11.8465H38.6954M38.7729 11.8465H38.6954M38.6954 11.8465H38.6179M38.6954 11.8465H38.6179M38.6179 11.8465L38.5405 11.8465M38.6179 11.8465L38.5405 11.8465M38.5405 11.8465H38.463M38.5405 11.8465H38.463M38.463 11.8465H38.3856M38.463 11.8465H38.3856M38.3856 11.8465H38.3081M38.3856 11.8465H38.3081M38.3081 11.8465H38.2307M38.3081 11.8465H38.2307M38.2307 11.8465H38.1532M38.2307 11.8465H38.1532M38.1532 11.8465H38.0757M38.1532 11.8465H38.0757M38.0757 11.8465H37.9983M38.0757 11.8465H37.9983M37.9983 11.8465H37.9208M37.9983 11.8465H37.9208M37.9208 11.8465H37.8434M37.9208 11.8465H37.8434M37.8434 11.8465H37.7659M37.8434 11.8465H37.7659M37.7659 11.8465H37.6885M37.7659 11.8465H37.6885M37.6885 11.8465H37.611M37.6885 11.8465H37.611M37.611 11.8465H37.5335M37.611 11.8465H37.5335M37.5335 11.8465H37.4561M37.5335 11.8465H37.4561M37.4561 11.8465H37.3786M37.4561 11.8465H37.3786M37.3786 11.8465H37.3012M37.3786 11.8465H37.3012M37.3012 11.8465H37.2237M37.3012 11.8465H37.2237M37.2237 11.8465H37.1463M37.2237 11.8465H37.1463M37.1463 11.8465H37.0688M37.1463 11.8465H37.0688M37.0688 11.8465H36.9914M37.0688 11.8465H36.9914M36.9914 11.8465H36.9139M36.9914 11.8465H36.9139M36.9139 11.8465H36.8364M36.9139 11.8465H36.8364M36.8364 11.8465H36.759M36.8364 11.8465H36.759M36.759 11.8465H36.6815M36.759 11.8465H36.6815M36.6815 11.8465H36.6041M36.6815 11.8465H36.6041M36.6041 11.8465H36.5266M36.6041 11.8465H36.5266M36.5266 11.8465H36.4492M36.5266 11.8465H36.4492M36.4492 11.8465H36.3717M36.4492 11.8465H36.3717M36.3717 11.8465H36.2943M36.3717 11.8465H36.2943M36.2943 11.8465H36.2168M36.2943 11.8465H36.2168M36.2168 11.8465H36.1394M36.2168 11.8465H36.1394M36.1394 11.8465H36.0619M36.1394 11.8465H36.0619M36.0619 11.8465H35.9845M36.0619 11.8465H35.9845M35.9845 11.8465H35.907M35.9845 11.8465H35.907M35.907 11.8465H35.8296M35.907 11.8465H35.8296M35.8296 11.8465H35.7521M35.8296 11.8465H35.7521M35.7521 11.8465H35.6746M35.7521 11.8465H35.6746M35.6746 11.8465H35.5972M35.6746 11.8465H35.5972M35.5972 11.8465H35.5197M35.5972 11.8465H35.5197M35.5197 11.8465H35.4423M35.5197 11.8465H35.4423M35.4423 11.8465H35.3648M35.4423 11.8465H35.3648M35.3648 11.8465H35.2874M35.3648 11.8465H35.2874M35.2874 11.8465H35.2099M35.2874 11.8465H35.2099M35.2099 11.8465H35.1325M35.2099 11.8465H35.1325M35.1325 11.8465H35.055M35.1325 11.8465H35.055M35.055 11.8465H34.9776M35.055 11.8465H34.9776M34.9776 11.8465H34.9001M34.9776 11.8465H34.9001M34.9001 11.8465H34.8227M34.9001 11.8465H34.8227M34.8227 11.8465H34.7452M34.8227 11.8465H34.7452M34.7452 11.8465H34.6678M34.7452 11.8465H34.6678M34.6678 11.8465H34.5903M34.6678 11.8465H34.5903M34.5903 11.8465H34.5129M34.5903 11.8465H34.5129M34.5129 11.8465H34.4354M34.5129 11.8465H34.4354M34.4354 11.8465H34.358M34.4354 11.8465H34.358M34.358 11.8465H34.2805M34.358 11.8465H34.2805M34.2805 11.8465H34.2031M34.2805 11.8465H34.2031M34.2031 11.8465H34.1256M34.2031 11.8465H34.1256M34.1256 11.8465H34.0482M34.1256 11.8465H34.0482M34.0482 11.8465H33.9707M34.0482 11.8465H33.9707M33.9707 11.8465H33.8933M33.9707 11.8465H33.8933M33.8933 11.8465H33.8158M33.8933 11.8465H33.8158M33.8158 11.8465H33.7384M33.8158 11.8465H33.7384M33.7384 11.8465H33.6609M33.7384 11.8465H33.6609M33.6609 11.8465H33.5835M33.6609 11.8465H33.5835M33.5835 11.8465H33.506M33.5835 11.8465H33.506M33.506 11.8465H33.4286M33.506 11.8465H33.4286M33.4286 11.8465H33.3511M33.4286 11.8465H33.3511M33.3511 11.8465H33.2737M33.3511 11.8465H33.2737M33.2737 11.8465H33.1962M33.2737 11.8465H33.1962M33.1962 11.8465H33.1188M33.1962 11.8465H33.1188M33.1188 11.8465H33.0413M33.1188 11.8465H33.0413M33.0413 11.8465H32.9639M33.0413 11.8465H32.9639M32.9639 11.8465H32.8864M32.9639 11.8465H32.8864M32.8864 11.8465H32.809M32.8864 11.8465H32.809M32.809 11.8465H32.7316M32.809 11.8465H32.7316M32.7316 11.8465H32.6541M32.7316 11.8465H32.6541M32.6541 11.8465H32.5767M32.6541 11.8465H32.5767M32.5767 11.8465H32.4992M32.5767 11.8465H32.4992M32.4992 11.8465H32.4218M32.4992 11.8465H32.4218M32.4218 11.8465H32.3443M32.4218 11.8465H32.3443M32.3443 11.8465H32.2669M32.3443 11.8465H32.2669M32.2669 11.8465H32.1894M32.2669 11.8465H32.1894M32.1894 11.8465H32.112M32.1894 11.8465H32.112M32.112 11.8465H32.0345M32.112 11.8465H32.0345M32.0345 11.8465H31.9571M32.0345 11.8465H31.9571M31.9571 11.8465H31.8796M31.9571 11.8465H31.8796M31.8796 11.8465H31.8022M31.8796 11.8465H31.8022M31.8022 11.8465H31.7247M31.8022 11.8465H31.7247M31.7247 11.8465H31.6473M31.7247 11.8465H31.6473M31.6473 11.8465H31.5699M31.6473 11.8465H31.5699M31.5699 11.8465H31.4924M31.5699 11.8465H31.4924M31.4924 11.8465H31.415M31.4924 11.8465H31.415M31.415 11.8465H31.3375M31.415 11.8465H31.3375M31.3375 11.8465H31.2601M31.3375 11.8465H31.2601M31.2601 11.8465H31.1826M31.2601 11.8465H31.1826M31.1826 11.8465H31.1052M31.1826 11.8465H31.1052M31.1052 11.8465H31.0277M31.1052 11.8465H31.0277M31.0277 11.8465H30.9503M31.0277 11.8465H30.9503M30.9503 11.8465H30.8729M30.9503 11.8465H30.8729M30.8729 11.8465H30.7954M30.8729 11.8465H30.7954M30.7954 11.8465H30.718M30.7954 11.8465H30.718M30.718 11.8465H30.6405M30.718 11.8465H30.6405M30.6405 11.8465H30.5631M30.6405 11.8465H30.5631M30.5631 11.8465H30.4856M30.5631 11.8465H30.4856M30.4856 11.8465H30.4082M30.4856 11.8465H30.4082M30.4082 11.8465H30.3307M30.4082 11.8465H30.3307M30.3307 11.8465H30.2533M30.3307 11.8465H30.2533M30.2533 11.8465H30.1759M30.2533 11.8465H30.1759M30.1759 11.8465H30.0984M30.1759 11.8465H30.0984M30.0984 11.8465H30.021M30.0984 11.8465H30.021M30.021 11.8465L29.9435 11.8465M30.021 11.8465L29.9435 11.8465M29.9435 11.8465H29.8661M29.9435 11.8465H29.8661M29.8661 11.8465H29.7886M29.8661 11.8465H29.7886M29.7886 11.8465H29.7112M29.7886 11.8465H29.7112M29.7112 11.8465H29.6338M29.7112 11.8465H29.6338M29.6338 11.8465H29.5563M29.6338 11.8465H29.5563M29.5563 11.8465H29.4789M29.5563 11.8465H29.4789M29.4789 11.8465H29.4014M29.4789 11.8465H29.4014M29.4014 11.8465H29.324M29.4014 11.8465H29.324M29.324 11.8465H29.2465M29.324 11.8465H29.2465M29.2465 11.8465H29.1691M29.2465 11.8465H29.1691M29.1691 11.8465H29.0917M29.1691 11.8465H29.0917M29.0917 11.8465H29.0142M29.0917 11.8465H29.0142M29.0142 11.8465H28.9368M29.0142 11.8465H28.9368M28.9368 11.8465H28.8593M28.9368 11.8465H28.8593M28.8593 11.8465H28.7819M28.8593 11.8465H28.7819M28.7819 11.8465H28.7045M28.7819 11.8465H28.7045M28.7045 11.8465H28.627M28.7045 11.8465H28.627M28.627 11.8465H28.5496M28.627 11.8465H28.5496M28.5496 11.8465H28.4721M28.5496 11.8465H28.4721M28.4721 11.8465H28.3947M28.4721 11.8465H28.3947M28.3947 11.8465H28.3173M28.3947 11.8465H28.3173M28.3173 11.8465H28.2398M28.3173 11.8465H28.2398M28.2398 11.8465H28.1624M28.2398 11.8465H28.1624M28.1624 11.8465H28.0849M28.1624 11.8465H28.0849M28.0849 11.8465H28.0075M28.0849 11.8465H28.0075M28.0075 11.8465H27.9301M28.0075 11.8465H27.9301M27.9301 11.8465H27.8526M27.9301 11.8465H27.8526M27.8526 11.8465H27.7752M27.8526 11.8465H27.7752M27.7752 11.8465H27.6977M27.7752 11.8465H27.6977M27.6977 11.8465H27.6203M27.6977 11.8465H27.6203M27.6203 11.8465H27.5429M27.6203 11.8465H27.5429M27.5429 11.8465H27.4654M27.5429 11.8465H27.4654M27.4654 11.8465H27.388M27.4654 11.8465H27.388M27.388 11.8465H27.3105M27.388 11.8465H27.3105M27.3105 11.8465H27.2331M27.3105 11.8465H27.2331M27.2331 11.8465H27.1557M27.2331 11.8465H27.1557M27.1557 11.8465H27.0782M27.1557 11.8465H27.0782M27.0782 11.8465H27.0008M27.0782 11.8465H27.0008M27.0008 11.8465H26.9233M27.0008 11.8465H26.9233M26.9233 11.8465H26.8459M26.9233 11.8465H26.8459M26.8459 11.8465H26.7685M26.8459 11.8465H26.7685M26.7685 11.8465H26.691M26.7685 11.8465H26.691M26.691 11.8465H26.6136M26.691 11.8465H26.6136M26.6136 11.8465H26.5362M26.6136 11.8465H26.5362M26.5362 11.8465H26.4587M26.5362 11.8465H26.4587M26.4587 11.8465H26.3813M26.4587 11.8465H26.3813M26.3813 11.8465H26.3038M26.3813 11.8465H26.3038M26.3038 11.8465H26.2264M26.3038 11.8465H26.2264M26.2264 11.8465H26.149M26.2264 11.8465H26.149M26.149 11.8465H26.0715M26.149 11.8465H26.0715M26.0715 11.8465H25.9941M26.0715 11.8465H25.9941M25.9941 11.8465H25.9167M25.9941 11.8465H25.9167M25.9167 11.8465H25.8392M25.9167 11.8465H25.8392M25.8392 11.8465H25.7618M25.8392 11.8465H25.7618M25.7618 11.8465H25.6843M25.7618 11.8465H25.6843M25.6843 11.8465H25.6069M25.6843 11.8465H25.6069M25.6069 11.8465H25.5295M25.6069 11.8465H25.5295M25.5295 11.8465H25.452M25.5295 11.8465H25.452M25.452 11.8465H25.3746M25.452 11.8465H25.3746M25.3746 11.8465H25.2972M25.3746 11.8465H25.2972M25.2972 11.8465H25.2197M25.2972 11.8465H25.2197M25.2197 11.8465H25.1423M25.2197 11.8465H25.1423M25.1423 11.8465H25.0648M25.1423 11.8465H25.0648M25.0648 11.8465H24.9874M25.0648 11.8465H24.9874M24.9874 11.8465H24.91M24.9874 11.8465H24.91M24.91 11.8465H24.8325M24.91 11.8465H24.8325M24.8325 11.8465H24.7551M24.8325 11.8465H24.7551M24.7551 11.8465H24.6777M24.7551 11.8465H24.6777M24.6777 11.8465H24.6002M24.6777 11.8465H24.6002M24.6002 11.8465H24.5228M24.6002 11.8465H24.5228M24.5228 11.8465H24.4454M24.5228 11.8465H24.4454M24.4454 11.8465H24.3679M24.4454 11.8465H24.3679M24.3679 11.8465H24.2905M24.3679 11.8465H24.2905M24.2905 11.8465H24.2131M24.2905 11.8465H24.2131M24.2131 11.8465H24.1356M24.2131 11.8465H24.1356M24.1356 11.8465H24.0582M24.1356 11.8465H24.0582M24.0582 11.8465H23.9807M24.0582 11.8465H23.9807M23.9807 11.8465H23.9033M23.9807 11.8465H23.9033M23.9033 11.8465H23.8259M23.9033 11.8465H23.8259M23.8259 11.8465H23.7484M23.8259 11.8465H23.7484M23.7484 11.8465H23.671M23.7484 11.8465H23.671M23.671 11.8465H23.5936M23.671 11.8465H23.5936M23.5936 11.8465H23.5161M23.5936 11.8465H23.5161M23.5161 11.8465H23.4387M23.5161 11.8465H23.4387M23.4387 11.8465H23.3613M23.4387 11.8465H23.3613M23.3613 11.8465H23.2838M23.3613 11.8465H23.2838M23.2838 11.8465H23.2064M23.2838 11.8465H23.2064M23.2064 11.8465H23.129M23.2064 11.8465H23.129M23.129 11.8465H23.0515M23.129 11.8465H23.0515M23.0515 11.8465H22.9741M23.0515 11.8465H22.9741M22.9741 11.8465H22.8967M22.9741 11.8465H22.8967M22.8967 11.8465H22.8192M22.8967 11.8465H22.8192M22.8192 11.8465H22.7418M22.8192 11.8465H22.7418M22.7418 11.8465H22.6644M22.7418 11.8465H22.6644M22.6644 11.8465H22.5869M22.6644 11.8465H22.5869M22.5869 11.8465H22.5095M22.5869 11.8465H22.5095M22.5095 11.8465H22.4321M22.5095 11.8465H22.4321M22.4321 11.8465H22.3546M22.4321 11.8465H22.3546M22.3546 11.8465H22.2772M22.3546 11.8465H22.2772M22.2772 11.8465H22.1998M22.2772 11.8465H22.1998M22.1998 11.8465H22.1223M22.1998 11.8465H22.1223M22.1223 11.8465H22.0449M22.1223 11.8465H22.0449M22.0449 11.8465H21.9675M22.0449 11.8465H21.9675M21.9675 11.8465H21.89M21.9675 11.8465H21.89M21.89 11.8465H21.8126M21.89 11.8465H21.8126M21.8126 11.8465H21.7352M21.8126 11.8465H21.7352M21.7352 11.8465H21.6577M21.7352 11.8465H21.6577M21.6577 11.8465H21.5803M21.6577 11.8465H21.5803M21.5803 11.8465H21.5029M21.5803 11.8465H21.5029M21.5029 11.8465H21.4254M21.5029 11.8465H21.4254M21.4254 11.8465H21.348M21.4254 11.8465H21.348M21.348 11.8465H21.2706M21.348 11.8465H21.2706M21.2706 11.8465H21.1931M21.2706 11.8465H21.1931M21.1931 11.8465H21.1157M21.1931 11.8465H21.1157M21.1157 11.8465H21.0383M21.1157 11.8465H21.0383M21.0383 11.8465H20.9609M21.0383 11.8465H20.9609M20.9609 11.8465H20.8834M20.9609 11.8465H20.8834M20.8834 11.8465H20.806M20.8834 11.8465H20.806M20.806 11.8465H20.7286M20.806 11.8465H20.7286M20.7286 11.8465H20.6511M20.7286 11.8465H20.6511M20.6511 11.8465H20.5737M20.6511 11.8465H20.5737M20.5737 11.8465H20.4963M20.5737 11.8465H20.4963M20.4963 11.8465H20.4188M20.4963 11.8465H20.4188M20.4188 11.8465H20.3414M20.4188 11.8465H20.3414M20.3414 11.8465H20.264M20.3414 11.8465H20.264M20.264 11.8465H20.1865M20.264 11.8465H20.1865M20.1865 11.8465H20.1091M20.1865 11.8465H20.1091M20.1091 11.8465H20.0317M20.1091 11.8465H20.0317M20.0317 11.8465H19.9543M20.0317 11.8465H19.9543M19.9543 11.8465H19.8768M19.9543 11.8465H19.8768M19.8768 11.8465H19.7994M19.8768 11.8465H19.7994M19.7994 11.8465H19.722M19.7994 11.8465H19.722M19.722 11.8465H19.6445M19.722 11.8465H19.6445M19.6445 11.8465H19.5671M19.6445 11.8465H19.5671M19.5671 11.8465H19.4897M19.5671 11.8465H19.4897M19.4897 11.8465H19.4122M19.4897 11.8465H19.4122M19.4122 11.8465H19.3348M19.4122 11.8465H19.3348M19.3348 11.8465H19.2574M19.3348 11.8465H19.2574M19.2574 11.8465H19.18M19.2574 11.8465H19.18M19.18 11.8465H19.1025M19.18 11.8465H19.1025M19.1025 11.8465H19.0251M19.1025 11.8465H19.0251M19.0251 11.8465H18.9477M19.0251 11.8465H18.9477M18.9477 11.8465H18.8702M18.9477 11.8465H18.8702M18.8702 11.8465H18.7928M18.8702 11.8465H18.7928M18.7928 11.8465H18.7154M18.7928 11.8465H18.7154M18.7154 11.8465H18.6379M18.7154 11.8465H18.6379M18.6379 11.8465H18.5605M18.6379 11.8465H18.5605M18.5605 11.8465H18.4831M18.5605 11.8465H18.4831M18.4831 11.8465H18.4057M18.4831 11.8465H18.4057M18.4057 11.8465H18.3282M18.4057 11.8465H18.3282M18.3282 11.8465H18.2508M18.3282 11.8465H18.2508M18.2508 11.8465H18.1734M18.2508 11.8465H18.1734M18.1734 11.8465H18.0959M18.1734 11.8465H18.0959M18.0959 11.8465H18.0185M18.0959 11.8465H18.0185M18.0185 11.8465H17.9411M18.0185 11.8465H17.9411M17.9411 11.8465H17.8637M17.9411 11.8465H17.8637M17.8637 11.8465H17.7862M17.8637 11.8465H17.7862M17.7862 11.8465H17.7088M17.7862 11.8465H17.7088M17.7088 11.8465H17.6314M17.7088 11.8465H17.6314M17.6314 11.8465H17.5539M17.6314 11.8465H17.5539M17.5539 11.8465H17.4765M17.5539 11.8465H17.4765M17.4765 11.8465H17.3991M17.4765 11.8465H17.3991M17.3991 11.8465H17.3217M17.3991 11.8465H17.3217M17.3217 11.8465H17.2442M17.3217 11.8465H17.2442M17.2442 11.8465H17.1668M17.2442 11.8465H17.1668M17.1668 11.8465H17.0894M17.1668 11.8465H17.0894M17.0894 11.8465H17.0119M17.0894 11.8465H17.0119M17.0119 11.8465H16.9345M17.0119 11.8465H16.9345M16.9345 11.8465H16.8571M16.9345 11.8465H16.8571M16.8571 11.8465H16.7797M16.8571 11.8465H16.7797M16.7797 11.8465H16.7022M16.7797 11.8465H16.7022M16.7022 11.8465H16.6248M16.7022 11.8465H16.6248M16.6248 11.8465H16.5474M16.6248 11.8465H16.5474M16.5474 11.8465H16.4699M16.5474 11.8465H16.4699M16.4699 11.8465H16.3925M16.4699 11.8465H16.3925M16.3925 11.8465H16.3151M16.3925 11.8465H16.3151M16.3151 11.8465H16.2377M16.3151 11.8465H16.2377M16.2377 11.8465H16.1602M16.2377 11.8465H16.1602M16.1602 11.8465H16.0828M16.1602 11.8465H16.0828M16.0828 11.8465H16.0054M16.0828 11.8465H16.0054M16.0054 11.8465H15.928M16.0054 11.8465H15.928M15.928 11.8465H15.8505M15.928 11.8465H15.8505M15.8505 11.8465H15.7731M15.8505 11.8465H15.7731M15.7731 11.8465L15.6957 11.8465M15.7731 11.8465L15.6957 11.8465M15.6957 11.8465H15.6182M15.6957 11.8465H15.6182M15.6182 11.8465H15.5408M15.6182 11.8465H15.5408M15.5408 11.8465H15.4634M15.5408 11.8465H15.4634M15.4634 11.8465H15.386M15.4634 11.8465H15.386M15.386 11.8465H15.3085M15.386 11.8465H15.3085M15.3085 11.8465H15.2311M15.3085 11.8465H15.2311M15.2311 11.8465H15.1537M15.2311 11.8465H15.1537M15.1537 11.8465H15.0763M15.1537 11.8465H15.0763M15.0763 11.8465H14.9988M15.0763 11.8465H14.9988M14.9988 11.8465H14.9214M14.9988 11.8465H14.9214M14.9214 11.8465H14.844M14.9214 11.8465H14.844M14.844 11.8465H14.7666M14.844 11.8465H14.7666M14.7666 11.8465H14.6891M14.7666 11.8465H14.6891M14.6891 11.8465H14.6117M14.6891 11.8465H14.6117M14.6117 11.8465H14.5343M14.6117 11.8465H14.5343M14.5343 11.8465H14.4569M14.5343 11.8465H14.4569M14.4569 11.8465H14.3794M14.4569 11.8465H14.3794M14.3794 11.8465H14.302M14.3794 11.8465H14.302M14.302 11.8465H14.2246M14.302 11.8465H14.2246M14.2246 11.8465H14.1472M14.2246 11.8465H14.1472M14.1472 11.8465H14.0697M14.1472 11.8465H14.0697M14.0697 11.8465H13.9923M14.0697 11.8465H13.9923M13.9923 11.8465H13.9149M13.9923 11.8465H13.9149M13.9149 11.8465H13.8374M13.9149 11.8465H13.8374M13.8374 11.8465H13.76M13.8374 11.8465H13.76M13.76 11.8465H13.6826M13.76 11.8465H13.6826M13.6826 11.8465H13.6052M13.6826 11.8465H13.6052M13.6052 11.8465H13.5277M13.6052 11.8465H13.5277M13.5277 11.8465H13.4503M13.5277 11.8465H13.4503M13.4503 11.8465H13.3729M13.4503 11.8465H13.3729M13.3729 11.8465H13.2955M13.3729 11.8465H13.2955M13.2955 11.8465H13.218M13.2955 11.8465H13.218M13.218 11.8465H13.1406M13.218 11.8465H13.1406M13.1406 11.8465H13.0632M13.1406 11.8465H13.0632M13.0632 11.8465H12.9858M13.0632 11.8465H12.9858M12.9858 11.8465H12.9083M12.9858 11.8465H12.9083M12.9083 11.8465H12.8309M12.9083 11.8465H12.8309M12.8309 11.8465H12.7535M12.8309 11.8465H12.7535M12.7535 11.8465H12.6761M12.7535 11.8465H12.6761M12.6761 11.8465H12.5986M12.6761 11.8465H12.5986M12.5986 11.8465H12.5212M12.5986 11.8465H12.5212M12.5212 11.8465H12.4438M12.5212 11.8465H12.4438M12.4438 11.8465H12.3664M12.4438 11.8465H12.3664M12.3664 11.8465H12.2889M12.3664 11.8465H12.2889M12.2889 11.8465H12.2115M12.2889 11.8465H12.2115M12.2115 11.8465H12.1341M12.2115 11.8465H12.1341M12.1341 11.8465H12.0567M12.1341 11.8465H12.0567M12.0567 11.8465H11.9792M12.0567 11.8465H11.9792M11.9792 11.8465H11.9018M11.9792 11.8465H11.9018M11.9018 11.8465H11.8244M11.9018 11.8465H11.8244M11.8244 11.8465H11.747M11.8244 11.8465H11.747M11.747 11.8465H11.6695M11.747 11.8465H11.6695M11.6695 11.8465H11.5921M11.6695 11.8465H11.5921M11.5921 11.8465H11.5147M11.5921 11.8465H11.5147M11.5147 11.8465H11.4373M11.5147 11.8465H11.4373M11.4373 11.8465H11.3599M11.4373 11.8465H11.3599M11.3599 11.8465H11.2824M11.3599 11.8465H11.2824M11.2824 11.8465H11.205M11.2824 11.8465H11.205M11.205 11.8465H11.1276M11.205 11.8465H11.1276M11.1276 11.8465H11.0502M11.1276 11.8465H11.0502M11.0502 11.8465H10.9727M11.0502 11.8465H10.9727M10.9727 11.8465H10.8953M10.9727 11.8465H10.8953M10.8953 11.8465H10.8179M10.8953 11.8465H10.8179M10.8179 11.8465H10.7405M10.8179 11.8465H10.7405M10.7405 11.8465H10.663M10.7405 11.8465H10.663M10.663 11.8465H10.5856M10.663 11.8465H10.5856M10.5856 11.8465H10.5082M10.5856 11.8465H10.5082M10.5082 11.8465H10.4308M10.5082 11.8465H10.4308M10.4308 11.8465H10.3533M10.4308 11.8465H10.3533M10.3533 11.8465H10.2759M10.3533 11.8465H10.2759M10.2759 11.8465H10.1985M10.2759 11.8465H10.1985M10.1985 11.8465H10.1211M10.1985 11.8465H10.1211M10.1211 11.8465H10.0436M10.1211 11.8465H10.0436M10.0436 11.8465H9.96622M10.0436 11.8465H9.96622M9.96622 11.8465H9.8888M9.96622 11.8465H9.8888M9.8888 11.8465H9.81138M9.8888 11.8465H9.81138M9.81138 11.8465H9.73395M9.81138 11.8465H9.73395M9.73395 11.8465H9.65653M9.73395 11.8465H9.65653M9.65653 11.8465H9.57911M9.65653 11.8465H9.57911M9.57911 11.8465H9.50168M9.57911 11.8465H9.50168M9.50168 11.8465H9.42426M9.50168 11.8465H9.42426M9.42426 11.8465H9.34684M9.42426 11.8465H9.34684M9.34684 11.8465H9.26941M9.34684 11.8465H9.26941M9.26941 11.8465H9.19199M9.26941 11.8465H9.19199M9.19199 11.8465H9.11457M9.19199 11.8465H9.11457M9.11457 11.8465H9.03714M9.11457 11.8465H9.03714M9.03714 11.8465H8.95972M9.03714 11.8465H8.95972M8.95972 11.8465H8.8823M8.95972 11.8465H8.8823M8.8823 11.8465H8.80487M8.8823 11.8465H8.80487M8.80487 11.8465H8.72745M8.80487 11.8465H8.72745M8.72745 11.8465H8.65003M8.72745 11.8465H8.65003M8.65003 11.8465H8.5726M8.65003 11.8465H8.5726M8.5726 11.8465H8.49518M8.5726 11.8465H8.49518M8.49518 11.8465H8.41776M8.49518 11.8465H8.41776M8.41776 11.8465H8.34033M8.41776 11.8465H8.34033M8.34033 11.8465H8.26291M8.34033 11.8465H8.26291M8.26291 11.8465H8.18549M8.26291 11.8465H8.18549M8.18549 11.8465H8.10807M8.18549 11.8465H8.10807M8.10807 11.8465H8.03064M8.10807 11.8465H8.03064M8.03064 11.8465H7.95322M8.03064 11.8465H7.95322M7.95322 11.8465H7.8758M7.95322 11.8465H7.8758M7.8758 11.8465H7.79838M7.8758 11.8465H7.79838M7.79838 11.8465H7.72095M7.79838 11.8465H7.72095M7.72095 11.8465H7.64353M7.72095 11.8465H7.64353M7.64353 11.8465H7.56611M7.64353 11.8465H7.56611M7.56611 11.8465H7.48869M7.56611 11.8465H7.48869M7.48869 11.8465H7.41126M7.48869 11.8465H7.41126M7.41126 11.8465H7.33384M7.41126 11.8465H7.33384M7.33384 11.8465H7.25642M7.33384 11.8465H7.25642M7.25642 11.8465H7.17899M7.25642 11.8465H7.17899M7.17899 11.8465L7.10157 11.8465M7.17899 11.8465L7.10157 11.8465M7.10157 11.8465H7.02415M7.10157 11.8465H7.02415M7.02415 11.8465H6.94673M7.02415 11.8465H6.94673M6.94673 11.8465H6.8693M6.94673 11.8465H6.8693M6.8693 11.8465H6.79188M6.8693 11.8465H6.79188M6.79188 11.8465H6.71446M6.79188 11.8465H6.71446M6.71446 11.8465H6.63704M6.71446 11.8465H6.63704M6.63704 11.8465H6.55962M6.63704 11.8465H6.55962M6.55962 11.8465H6.48219M6.55962 11.8465H6.48219M6.48219 11.8465H6.40477M6.48219 11.8465H6.40477M6.40477 11.8465H6.32735M6.40477 11.8465H6.32735M6.32735 11.8465H6.24993M6.32735 11.8465H6.24993M6.24993 11.8465H6.1725M6.24993 11.8465H6.1725M6.1725 11.8465H6.09508M6.1725 11.8465H6.09508M6.09508 11.8465H6.01766M6.09508 11.8465H6.01766M6.01766 11.8465H5.94024M6.01766 11.8465H5.94024M5.94024 11.8465H5.86281M5.94024 11.8465H5.86281M5.86281 11.8465H5.78539M5.86281 11.8465H5.78539M5.78539 11.8465H5.70797M5.78539 11.8465H5.70797M5.70797 11.8465H5.63055M5.70797 11.8465H5.63055M5.63055 11.8465H5.55313M5.63055 11.8465H5.55313M5.55313 11.8465H5.4757M5.55313 11.8465H5.4757M5.4757 11.8465H5.39828M5.4757 11.8465H5.39828M5.39828 11.8465H5.32086M5.39828 11.8465H5.32086M5.32086 11.8465H5.24344M5.32086 11.8465H5.24344M5.24344 11.8465H5.16602M5.24344 11.8465H5.16602M5.16602 11.8465H5.08859M5.16602 11.8465H5.08859M5.08859 11.8465H5.01117M5.08859 11.8465H5.01117M5.01117 11.8465H4.93375M5.01117 11.8465H4.93375M4.93375 11.8465H4.85633M4.93375 11.8465H4.85633M4.85633 11.8465H4.77891M4.85633 11.8465H4.77891M4.77891 11.8465H4.70148M4.77891 11.8465H4.70148M4.70148 11.8465H4.62406M4.70148 11.8465H4.62406M4.62406 11.8465H4.54664M4.62406 11.8465H4.54664M4.54664 11.8465H4.46922M4.54664 11.8465H4.46922M4.46922 11.8465H4.3918M4.46922 11.8465H4.3918M4.3918 11.8465H4.31437M4.3918 11.8465H4.31437M4.31437 11.8465H4.23695M4.31437 11.8465H4.23695M4.23695 11.8465H4.15953M4.23695 11.8465H4.15953M4.15953 11.8465H4.08211M4.15953 11.8465H4.08211M4.08211 11.8465H4.00469M4.08211 11.8465H4.00469M4.00469 11.8465H3.92726M4.00469 11.8465H3.92726M3.92726 11.8465H3.84984M3.92726 11.8465H3.84984M3.84984 11.8465H3.77242M3.84984 11.8465H3.77242M3.77242 11.8465H3.695M3.77242 11.8465H3.695M3.695 11.8465H3.61758M3.695 11.8465H3.61758M3.61758 11.8465H3.54015M3.61758 11.8465H3.54015M3.54015 11.8465H3.46273M3.54015 11.8465H3.46273M3.46273 11.8465H3.38531M3.46273 11.8465H3.38531M3.38531 11.8465H3.30789M3.38531 11.8465H3.30789M3.30789 11.8465H3.23047M3.30789 11.8465H3.23047M3.23047 11.8465H3.15305M3.23047 11.8465H3.15305M3.15305 11.8465H3.07562M3.15305 11.8465H3.07562M3.07562 11.8465H2.9982M3.07562 11.8465H2.9982M2.9982 11.8465H2.92078M2.9982 11.8465H2.92078M2.92078 11.8465H2.84336M2.92078 11.8465H2.84336M2.84336 11.8465H2.76594M2.84336 11.8465H2.76594M2.76594 11.8465H2.68851M2.76594 11.8465H2.68851M2.68851 11.8465H2.61109M2.68851 11.8465H2.61109M2.61109 11.8465H2.53367M2.61109 11.8465H2.53367M2.53367 11.8465H2.45625M2.53367 11.8465H2.45625M2.45625 11.8465H2.37883M2.45625 11.8465H2.37883M2.37883 11.8465H2.30141M2.37883 11.8465H2.30141M2.30141 11.8465H2.22398M2.30141 11.8465H2.22398M2.22398 11.8465H2.14656M2.22398 11.8465H2.14656M2.14656 11.8465H2.06914M2.14656 11.8465H2.06914M2.06914 11.8465H1.99172M2.06914 11.8465H1.99172M1.99172 11.8465H1.9143M1.99172 11.8465H1.9143M1.9143 11.8465C1.55837 11.8465 1.13478 11.7968 0.835619 11.6572L1.9143 11.8465ZM2.34722 9.92102H2.32541H2.34722ZM2.34722 9.92102H2.36902M2.34722 9.92102H2.36902M2.36902 9.92102H2.39083M2.36902 9.92102H2.39083M2.39083 9.92102H2.41264M2.39083 9.92102H2.41264M2.41264 9.92102H2.43444M2.41264 9.92102H2.43444M2.43444 9.92102H2.45625M2.43444 9.92102H2.45625M2.45625 9.92102H2.47806M2.45625 9.92102H2.47806M2.47806 9.92102H2.49987M2.47806 9.92102H2.49987M2.49987 9.92102H2.52168M2.49987 9.92102H2.52168M2.52168 9.92102H2.54348M2.52168 9.92102H2.54348M2.54348 9.92102H2.56529M2.54348 9.92102H2.56529M2.56529 9.92102H2.5871M2.56529 9.92102H2.5871M2.5871 9.92102H2.60891M2.5871 9.92102H2.60891M2.60891 9.92102H2.63072M2.60891 9.92102H2.63072M2.63072 9.92102H2.65253M2.63072 9.92102H2.65253M2.65253 9.92102H2.67434M2.65253 9.92102H2.67434M2.67434 9.92102H2.69614M2.67434 9.92102H2.69614M2.69614 9.92102H2.71795M2.69614 9.92102H2.71795M2.71795 9.92102H2.73976M2.71795 9.92102H2.73976M2.73976 9.92102H2.76157M2.73976 9.92102H2.76157M2.76157 9.92102H2.78338M2.76157 9.92102H2.78338M2.78338 9.92102H2.80519M2.78338 9.92102H2.80519M2.80519 9.92102H2.827M2.80519 9.92102H2.827M2.827 9.92102H2.84881M2.827 9.92102H2.84881M2.84881 9.92102H2.87062M2.84881 9.92102H2.87062M2.87062 9.92102H2.89243M2.87062 9.92102H2.89243M2.89243 9.92102H2.91425M2.89243 9.92102H2.91425M2.91425 9.92102H2.93606M2.91425 9.92102H2.93606M2.93606 9.92102H2.95787M2.93606 9.92102H2.95787M2.95787 9.92102H2.97968M2.95787 9.92102H2.97968M2.97968 9.92102H3.00149M2.97968 9.92102H3.00149M3.00149 9.92102H3.0233M3.00149 9.92102H3.0233M3.0233 9.92102H3.04511M3.0233 9.92102H3.04511M3.04511 9.92102H3.06692M3.04511 9.92102H3.06692M3.06692 9.92102H3.08874M3.06692 9.92102H3.08874M3.08874 9.92102H3.11055M3.08874 9.92102H3.11055M3.11055 9.92102H3.13236M3.11055 9.92102H3.13236M3.13236 9.92102H3.15417M3.13236 9.92102H3.15417M3.15417 9.92102H3.17599M3.15417 9.92102H3.17599M3.17599 9.92102H3.1978M3.17599 9.92102H3.1978M3.1978 9.92102H3.21961M3.1978 9.92102H3.21961M3.21961 9.92102H3.24142M3.21961 9.92102H3.24142M3.24142 9.92102H3.26324M3.24142 9.92102H3.26324M3.26324 9.92102H3.28505M3.26324 9.92102H3.28505M3.28505 9.92102H3.30686M3.28505 9.92102H3.30686M3.30686 9.92102H3.32868M3.30686 9.92102H3.32868M3.32868 9.92102H3.35049M3.32868 9.92102H3.35049M3.35049 9.92102H3.3723M3.35049 9.92102H3.3723M3.3723 9.92102H3.39412M3.3723 9.92102H3.39412M3.39412 9.92102H3.41593M3.39412 9.92102H3.41593M3.41593 9.92102H3.43775M3.41593 9.92102H3.43775M3.43775 9.92102H3.45956M3.43775 9.92102H3.45956M3.45956 9.92102H3.48137M3.45956 9.92102H3.48137M3.48137 9.92102H3.50319M3.48137 9.92102H3.50319M3.50319 9.92102H3.525M3.50319 9.92102H3.525M3.525 9.92102H3.54682M3.525 9.92102H3.54682M3.54682 9.92102H3.56863M3.54682 9.92102H3.56863M3.56863 9.92102H3.59045M3.56863 9.92102H3.59045M3.59045 9.92102H3.61226M3.59045 9.92102H3.61226M3.61226 9.92102H3.63408M3.61226 9.92102H3.63408M3.63408 9.92102H3.65589M3.63408 9.92102H3.65589M3.65589 9.92102H3.67771M3.65589 9.92102H3.67771M3.67771 9.92102H3.69952M3.67771 9.92102H3.69952M3.69952 9.92102H3.72134M3.69952 9.92102H3.72134M3.72134 9.92102H3.74316M3.72134 9.92102H3.74316M3.74316 9.92102H3.76497M3.74316 9.92102H3.76497M3.76497 9.92102H3.78679M3.76497 9.92102H3.78679M3.78679 9.92102H3.8086M3.78679 9.92102H3.8086M3.8086 9.92102H3.83042M3.8086 9.92102H3.83042M3.83042 9.92102H3.85224M3.83042 9.92102H3.85224M3.85224 9.92102H3.87405M3.85224 9.92102H3.87405M3.87405 9.92102H3.89587M3.87405 9.92102H3.89587M3.89587 9.92102H3.91769M3.89587 9.92102H3.91769M3.91769 9.92102H3.9395M3.91769 9.92102H3.9395M3.9395 9.92102H3.96132M3.9395 9.92102H3.96132M3.96132 9.92102H3.98314M3.96132 9.92102H3.98314M3.98314 9.92102H4.00496M3.98314 9.92102H4.00496M4.00496 9.92102H4.02677M4.00496 9.92102H4.02677M4.02677 9.92102H4.04859M4.02677 9.92102H4.04859M4.04859 9.92102H4.07041M4.04859 9.92102H4.07041M4.07041 9.92102H4.09223M4.07041 9.92102H4.09223M4.09223 9.92102H4.11404M4.09223 9.92102H4.11404M4.11404 9.92102H4.13586M4.11404 9.92102H4.13586M4.13586 9.92102H4.15768M4.13586 9.92102H4.15768M4.15768 9.92102H4.1795M4.15768 9.92102H4.1795M4.1795 9.92102H4.20132M4.1795 9.92102H4.20132M4.20132 9.92102H4.22313M4.20132 9.92102H4.22313M4.22313 9.92102H4.24495M4.22313 9.92102H4.24495M4.24495 9.92102H4.26677M4.24495 9.92102H4.26677M4.26677 9.92102H4.28859M4.26677 9.92102H4.28859M4.28859 9.92102H4.31041M4.28859 9.92102H4.31041M4.31041 9.92102H4.33223M4.31041 9.92102H4.33223M4.33223 9.92102H4.35405M4.33223 9.92102H4.35405M4.35405 9.92102H4.37587M4.35405 9.92102H4.37587M4.37587 9.92102H4.39769M4.37587 9.92102H4.39769M4.39769 9.92102H4.41951M4.39769 9.92102H4.41951M4.41951 9.92102H4.44133M4.41951 9.92102H4.44133M4.44133 9.92102H4.46315M4.44133 9.92102H4.46315M4.46315 9.92102H4.48496M4.46315 9.92102H4.48496M4.48496 9.92102H4.50678M4.48496 9.92102H4.50678M4.50678 9.92102H4.5286M4.50678 9.92102H4.5286M4.5286 9.92102H4.55042M4.5286 9.92102H4.55042M4.55042 9.92102H4.57224M4.55042 9.92102H4.57224M4.57224 9.92102H4.59406M4.57224 9.92102H4.59406M4.59406 9.92102H4.61589M4.59406 9.92102H4.61589M4.61589 9.92102H4.63771M4.61589 9.92102H4.63771M4.63771 9.92102H4.65953M4.63771 9.92102H4.65953M4.65953 9.92102H4.68135M4.65953 9.92102H4.68135M4.68135 9.92102H4.70317M4.68135 9.92102H4.70317M4.70317 9.92102H4.72499M4.70317 9.92102H4.72499M4.72499 9.92102H4.74681M4.72499 9.92102H4.74681M4.74681 9.92102H4.76863M4.74681 9.92102H4.76863M4.76863 9.92102H4.79045M4.76863 9.92102H4.79045M4.79045 9.92102H4.81227M4.79045 9.92102H4.81227M4.81227 9.92102H4.83409M4.81227 9.92102H4.83409M4.83409 9.92102H4.85591M4.83409 9.92102H4.85591M4.85591 9.92102H4.87774M4.85591 9.92102H4.87774M4.87774 9.92102H4.89956M4.87774 9.92102H4.89956M4.89956 9.92102H4.92138M4.89956 9.92102H4.92138M4.92138 9.92102H4.9432M4.92138 9.92102H4.9432M4.9432 9.92102H4.96502M4.9432 9.92102H4.96502M4.96502 9.92102H4.98684M4.96502 9.92102H4.98684M4.98684 9.92102H5.00867M4.98684 9.92102H5.00867M5.00867 9.92102H5.03049M5.00867 9.92102H5.03049M5.03049 9.92102H5.05231M5.03049 9.92102H5.05231M5.05231 9.92102H5.07413M5.05231 9.92102H5.07413M5.07413 9.92102H5.09596M5.07413 9.92102H5.09596M5.09596 9.92102H5.11778M5.09596 9.92102H5.11778M5.11778 9.92102H5.1396M5.11778 9.92102H5.1396M5.1396 9.92102H5.16142M5.1396 9.92102H5.16142M5.16142 9.92102H5.18325M5.16142 9.92102H5.18325M5.18325 9.92102H5.20507M5.18325 9.92102H5.20507M5.20507 9.92102H5.22689M5.20507 9.92102H5.22689M5.22689 9.92102H5.24871M5.22689 9.92102H5.24871M5.24871 9.92102H5.27054M5.24871 9.92102H5.27054M5.27054 9.92102H5.29236M5.27054 9.92102H5.29236M5.29236 9.92102H5.31418M5.29236 9.92102H5.31418M5.31418 9.92102H5.33601M5.31418 9.92102H5.33601M5.33601 9.92102H5.35783M5.33601 9.92102H5.35783M5.35783 9.92102H5.37965M5.35783 9.92102H5.37965M5.37965 9.92102H5.40148M5.37965 9.92102H5.40148M5.40148 9.92102H5.4233M5.40148 9.92102H5.4233M5.4233 9.92102H5.44512M5.4233 9.92102H5.44512M5.44512 9.92102H5.46695M5.44512 9.92102H5.46695M5.46695 9.92102H5.48877M5.46695 9.92102H5.48877M5.48877 9.92102H5.51059M5.48877 9.92102H5.51059M5.51059 9.92102H5.53242M5.51059 9.92102H5.53242M5.53242 9.92102H5.55424M5.53242 9.92102H5.55424M5.55424 9.92102H5.57607M5.55424 9.92102H5.57607M5.57607 9.92102H5.59789M5.57607 9.92102H5.59789M5.59789 9.92102H5.61971M5.59789 9.92102H5.61971M5.61971 9.92102H5.64154M5.61971 9.92102H5.64154M5.64154 9.92102H5.66336M5.64154 9.92102H5.66336M5.66336 9.92102H5.68519M5.66336 9.92102H5.68519M5.68519 9.92102H5.70701M5.68519 9.92102H5.70701M5.70701 9.92102H5.72884M5.70701 9.92102H5.72884M5.72884 9.92102H5.75066M5.72884 9.92102H5.75066M5.75066 9.92102H5.77248M5.75066 9.92102H5.77248M5.77248 9.92102H5.79431M5.77248 9.92102H5.79431M5.79431 9.92102H5.81613M5.79431 9.92102H5.81613M5.81613 9.92102H5.83796M5.81613 9.92102H5.83796M5.83796 9.92102H5.85978M5.83796 9.92102H5.85978M5.85978 9.92102H5.88161M5.85978 9.92102H5.88161M5.88161 9.92102L5.90343 9.92102M5.88161 9.92102L5.90343 9.92102M5.90343 9.92102H5.92526M5.90343 9.92102H5.92526M5.92526 9.92102H5.94708M5.92526 9.92102H5.94708M5.94708 9.92102H5.96891M5.94708 9.92102H5.96891M5.96891 9.92102H5.99073M5.96891 9.92102H5.99073M5.99073 9.92102H6.01256M5.99073 9.92102H6.01256M6.01256 9.92102H6.03438M6.01256 9.92102H6.03438M6.03438 9.92102H6.05621M6.03438 9.92102H6.05621M6.05621 9.92102H6.07803M6.05621 9.92102H6.07803M6.07803 9.92102H6.09986M6.07803 9.92102H6.09986M6.09986 9.92102H6.12169M6.09986 9.92102H6.12169M6.12169 9.92102H6.14351M6.12169 9.92102H6.14351M6.14351 9.92102H6.16534M6.14351 9.92102H6.16534M6.16534 9.92102H6.18716M6.16534 9.92102H6.18716M6.18716 9.92102H6.20899M6.18716 9.92102H6.20899M6.20899 9.92102H6.23081M6.20899 9.92102H6.23081M6.23081 9.92102H6.25264M6.23081 9.92102H6.25264M6.25264 9.92102H6.27447M6.25264 9.92102H6.27447M6.27447 9.92102H6.29629M6.27447 9.92102H6.29629M6.29629 9.92102H6.31812M6.29629 9.92102H6.31812M6.31812 9.92102H6.33994M6.31812 9.92102H6.33994M6.33994 9.92102H6.36177M6.33994 9.92102H6.36177M6.36177 9.92102H6.3836M6.36177 9.92102H6.3836M6.3836 9.92102H6.40542M6.3836 9.92102H6.40542M6.40542 9.92102H6.42725M6.40542 9.92102H6.42725M6.42725 9.92102H6.44907M6.42725 9.92102H6.44907M6.44907 9.92102H6.4709M6.44907 9.92102H6.4709M6.4709 9.92102H6.49273M6.4709 9.92102H6.49273M6.49273 9.92102H6.51455M6.49273 9.92102H6.51455M6.51455 9.92102H6.53638M6.51455 9.92102H6.53638M6.53638 9.92102H6.55821M6.53638 9.92102H6.55821M6.55821 9.92102H6.58003M6.55821 9.92102H6.58003M6.58003 9.92102H6.60186M6.58003 9.92102H6.60186M6.60186 9.92102H6.62369M6.60186 9.92102H6.62369M6.62369 9.92102H6.64551M6.62369 9.92102H6.64551M6.64551 9.92102H6.66734M6.64551 9.92102H6.66734M6.66734 9.92102H6.68917M6.66734 9.92102H6.68917M6.68917 9.92102H6.71099M6.68917 9.92102H6.71099M6.71099 9.92102H6.73282M6.71099 9.92102H6.73282M6.73282 9.92102H6.75465M6.73282 9.92102H6.75465M6.75465 9.92102H6.77647M6.75465 9.92102H6.77647M6.77647 9.92102H6.7983M6.77647 9.92102H6.7983M6.7983 9.92102H6.82013M6.7983 9.92102H6.82013M6.82013 9.92102H6.84195M6.82013 9.92102H6.84195M6.84195 9.92102H6.86378M6.84195 9.92102H6.86378M6.86378 9.92102H6.88561M6.86378 9.92102H6.88561M6.88561 9.92102H6.90743M6.88561 9.92102H6.90743M6.90743 9.92102H6.92926M6.90743 9.92102H6.92926M6.92926 9.92102H6.95109M6.92926 9.92102H6.95109M6.95109 9.92102H6.97292M6.95109 9.92102H6.97292M6.97292 9.92102H6.99474M6.97292 9.92102H6.99474M6.99474 9.92102H7.01657M6.99474 9.92102H7.01657M7.01657 9.92102H7.0384M7.01657 9.92102H7.0384M7.0384 9.92102H7.06022M7.0384 9.92102H7.06022M7.06022 9.92102H7.08205M7.06022 9.92102H7.08205M7.08205 9.92102H7.10388M7.08205 9.92102H7.10388M7.10388 9.92102H7.12571M7.10388 9.92102H7.12571M7.12571 9.92102H7.14753M7.12571 9.92102H7.14753M7.14753 9.92102H7.16936M7.14753 9.92102H7.16936M7.16936 9.92102H7.19119M7.16936 9.92102H7.19119M7.19119 9.92102H7.21302M7.19119 9.92102H7.21302M7.21302 9.92102H7.23484M7.21302 9.92102H7.23484M7.23484 9.92102H7.25667M7.23484 9.92102H7.25667M7.25667 9.92102H7.2785M7.25667 9.92102H7.2785M7.2785 9.92102H7.30032M7.2785 9.92102H7.30032M7.30032 9.92102H7.32215M7.30032 9.92102H7.32215M7.32215 9.92102H7.34398M7.32215 9.92102H7.34398M7.34398 9.92102H7.36581M7.34398 9.92102H7.36581M7.36581 9.92102H7.38763M7.36581 9.92102H7.38763M7.38763 9.92102H7.40946M7.38763 9.92102H7.40946M7.40946 9.92102H7.43129M7.40946 9.92102H7.43129M7.43129 9.92102H7.45312M7.43129 9.92102H7.45312M7.45312 9.92102H7.47494M7.45312 9.92102H7.47494M7.47494 9.92102H7.49677M7.47494 9.92102H7.49677M7.49677 9.92102H7.5186M7.49677 9.92102H7.5186M7.5186 9.92102H7.54043M7.5186 9.92102H7.54043M7.54043 9.92102H7.56225M7.54043 9.92102H7.56225M7.56225 9.92102H7.58408M7.56225 9.92102H7.58408M7.58408 9.92102H7.60591M7.58408 9.92102H7.60591M7.60591 9.92102H7.62774M7.60591 9.92102H7.62774M7.62774 9.92102H7.64957M7.62774 9.92102H7.64957M7.64957 9.92102H7.67139M7.64957 9.92102H7.67139M7.67139 9.92102H7.69322M7.67139 9.92102H7.69322M7.69322 9.92102H7.71505M7.69322 9.92102H7.71505M7.71505 9.92102H7.73688M7.71505 9.92102H7.73688M7.73688 9.92102H7.7587M7.73688 9.92102H7.7587M7.7587 9.92102H7.78053M7.7587 9.92102H7.78053M7.78053 9.92102H7.80236M7.78053 9.92102H7.80236M7.80236 9.92102H7.82419M7.80236 9.92102H7.82419M7.82419 9.92102H7.84601M7.82419 9.92102H7.84601M7.84601 9.92102H7.86784M7.84601 9.92102H7.86784M7.86784 9.92102H7.88967M7.86784 9.92102H7.88967M7.88967 9.92102H7.9115M7.88967 9.92102H7.9115M7.9115 9.92102H7.93333M7.9115 9.92102H7.93333M7.93333 9.92102H7.95515M7.93333 9.92102H7.95515M7.95515 9.92102H7.97698M7.95515 9.92102H7.97698M7.97698 9.92102H7.99881M7.97698 9.92102H7.99881M7.99881 9.92102H8.02064M7.99881 9.92102H8.02064M8.02064 9.92102H8.04246M8.02064 9.92102H8.04246M8.04246 9.92102H8.06429M8.04246 9.92102H8.06429M8.06429 9.92102H8.08612M8.06429 9.92102H8.08612M8.08612 9.92102H8.10795M8.08612 9.92102H8.10795M8.10795 9.92102H8.12978M8.10795 9.92102H8.12978M8.12978 9.92102H8.1516M8.12978 9.92102H8.1516M8.1516 9.92102H8.17343M8.1516 9.92102H8.17343M8.17343 9.92102H8.19526M8.17343 9.92102H8.19526M8.19526 9.92102H8.21708M8.19526 9.92102H8.21708M8.21708 9.92102H8.23891M8.21708 9.92102H8.23891M8.23891 9.92102H8.26074M8.23891 9.92102H8.26074M8.26074 9.92102H8.28257M8.26074 9.92102H8.28257M8.28257 9.92102H8.3044M8.28257 9.92102H8.3044M8.3044 9.92102H8.32622M8.3044 9.92102H8.32622M8.32622 9.92102H8.34805M8.32622 9.92102H8.34805M8.34805 9.92102H8.36988M8.34805 9.92102H8.36988M8.36988 9.92102H8.39171M8.36988 9.92102H8.39171M8.39171 9.92102H8.41353M8.39171 9.92102H8.41353M8.41353 9.92102H8.43536M8.41353 9.92102H8.43536M8.43536 9.92102H8.45719M8.43536 9.92102H8.45719M8.45719 9.92102H8.47902M8.45719 9.92102H8.47902M8.47902 9.92102H8.50084M8.47902 9.92102H8.50084M8.50084 9.92102H8.52267M8.50084 9.92102H8.52267M8.52267 9.92102H8.5445M8.52267 9.92102H8.5445M8.5445 9.92102H8.56633M8.5445 9.92102H8.56633M8.56633 9.92102H8.58815M8.56633 9.92102H8.58815M8.58815 9.92102H8.60998M8.58815 9.92102H8.60998M8.60998 9.92102H8.63181M8.60998 9.92102H8.63181M8.63181 9.92102H8.65364M8.63181 9.92102H8.65364M8.65364 9.92102H8.67546M8.65364 9.92102H8.67546M8.67546 9.92102H8.69729M8.67546 9.92102H8.69729M8.69729 9.92102H8.71912M8.69729 9.92102H8.71912M8.71912 9.92102H8.74094M8.71912 9.92102H8.74094M8.74094 9.92102H8.76277M8.74094 9.92102H8.76277M8.76277 9.92102H8.7846M8.76277 9.92102H8.7846M8.7846 9.92102H8.80643M8.7846 9.92102H8.80643M8.80643 9.92102H8.82825M8.80643 9.92102H8.82825M8.82825 9.92102H8.85008M8.82825 9.92102H8.85008M8.85008 9.92102H8.87191M8.85008 9.92102H8.87191M8.87191 9.92102H8.89373M8.87191 9.92102H8.89373M8.89373 9.92102H8.91556M8.89373 9.92102H8.91556M8.91556 9.92102H8.93739M8.91556 9.92102H8.93739M8.93739 9.92102H8.95922M8.93739 9.92102H8.95922M8.95922 9.92102H8.98104M8.95922 9.92102H8.98104M8.98104 9.92102H9.00287M8.98104 9.92102H9.00287M9.00287 9.92102H9.0247M9.00287 9.92102H9.0247M9.0247 9.92102H9.04652M9.0247 9.92102H9.04652M9.04652 9.92102H9.06835M9.04652 9.92102H9.06835M9.06835 9.92102H9.09018M9.06835 9.92102H9.09018M9.09018 9.92102H9.112M9.09018 9.92102H9.112M9.112 9.92102H9.13383M9.112 9.92102H9.13383M9.13383 9.92102H9.15566M9.13383 9.92102H9.15566M9.15566 9.92102H9.17748M9.15566 9.92102H9.17748M9.17748 9.92102H9.19931M9.17748 9.92102H9.19931M9.19931 9.92102H9.22114M9.19931 9.92102H9.22114M9.22114 9.92102H9.24296M9.22114 9.92102H9.24296M9.24296 9.92102H9.26479M9.24296 9.92102H9.26479M9.26479 9.92102H9.28662M9.26479 9.92102H9.28662M9.28662 9.92102H9.30844M9.28662 9.92102H9.30844M9.30844 9.92102H9.33027M9.30844 9.92102H9.33027M9.33027 9.92102H9.35209M9.33027 9.92102H9.35209M9.35209 9.92102H9.37392M9.35209 9.92102H9.37392M9.37392 9.92102H9.39575M9.37392 9.92102H9.39575M9.39575 9.92102H9.41757M9.39575 9.92102H9.41757M9.41757 9.92102H9.4394M9.41757 9.92102H9.4394M9.4394 9.92102H9.46123M9.4394 9.92102H9.46123M9.46123 9.92102H9.48305M9.46123 9.92102H9.48305M9.48305 9.92102H9.50488M9.48305 9.92102H9.50488M9.50488 9.92102H9.5267M9.50488 9.92102H9.5267M9.5267 9.92102H9.54853M9.5267 9.92102H9.54853M9.54853 9.92102H9.57036M9.54853 9.92102H9.57036M9.57036 9.92102H9.59218M9.57036 9.92102H9.59218M9.59218 9.92102H9.61401M9.59218 9.92102H9.61401M9.61401 9.92102H9.63583M9.61401 9.92102H9.63583M9.63583 9.92102H9.65766M9.63583 9.92102H9.65766M9.65766 9.92102H9.67948M9.65766 9.92102H9.67948M9.67948 9.92102H9.70131M9.67948 9.92102H9.70131M9.70131 9.92102H9.72313M9.70131 9.92102H9.72313M9.72313 9.92102H9.74496M9.72313 9.92102H9.74496M9.74496 9.92102H9.76679M9.74496 9.92102H9.76679M9.76679 9.92102H9.78861M9.76679 9.92102H9.78861M9.78861 9.92102H9.81044M9.78861 9.92102H9.81044M9.81044 9.92102H9.83226M9.81044 9.92102H9.83226M9.83226 9.92102H9.85409M9.83226 9.92102H9.85409M9.85409 9.92102H9.87591M9.85409 9.92102H9.87591M9.87591 9.92102H9.89774M9.87591 9.92102H9.89774M9.89774 9.92102H9.91956M9.89774 9.92102H9.91956M9.91956 9.92102H9.94139M9.91956 9.92102H9.94139M9.94139 9.92102H9.96321M9.94139 9.92102H9.96321M9.96321 9.92102H9.98504M9.96321 9.92102H9.98504M9.98504 9.92102H10.0069M9.98504 9.92102H10.0069M10.0069 9.92102H10.0287M10.0069 9.92102H10.0287M10.0287 9.92102H10.0505M10.0287 9.92102H10.0505M10.0505 9.92102H10.0723M10.0505 9.92102H10.0723M10.0723 9.92102H10.0942M10.0723 9.92102H10.0942M10.0942 9.92102H10.116M10.0942 9.92102H10.116M10.116 9.92102H10.1378M10.116 9.92102H10.1378M10.1378 9.92102H10.1596M10.1378 9.92102H10.1596M10.1596 9.92102H10.1815M10.1596 9.92102H10.1815M10.1815 9.92102H10.2033M10.1815 9.92102H10.2033M10.2033 9.92102H10.2251M10.2033 9.92102H10.2251M10.2251 9.92102H10.2469M10.2251 9.92102H10.2469M10.2469 9.92102H10.2688M10.2469 9.92102H10.2688M10.2688 9.92102H10.2906M10.2688 9.92102H10.2906M10.2906 9.92102H10.3124M10.2906 9.92102H10.3124M10.3124 9.92102H10.3342M10.3124 9.92102H10.3342M10.3342 9.92102H10.356M10.3342 9.92102H10.356M10.356 9.92102H10.3779M10.356 9.92102H10.3779M10.3779 9.92102H10.3997M10.3779 9.92102H10.3997M10.3997 9.92102H10.4215M10.3997 9.92102H10.4215M10.4215 9.92102H10.4433M10.4215 9.92102H10.4433M10.4433 9.92102H10.4652M10.4433 9.92102H10.4652M10.4652 9.92102H10.487M10.4652 9.92102H10.487M10.487 9.92102H10.5088M10.487 9.92102H10.5088M10.5088 9.92102H10.5306M10.5088 9.92102H10.5306M10.5306 9.92102H10.5525M10.5306 9.92102H10.5525M10.5525 9.92102H10.5743M10.5525 9.92102H10.5743M10.5743 9.92102H10.5961M10.5743 9.92102H10.5961M10.5961 9.92102H10.6179M10.5961 9.92102H10.6179M10.6179 9.92102H10.6398M10.6179 9.92102H10.6398M10.6398 9.92102H10.6616M10.6398 9.92102H10.6616M10.6616 9.92102H10.6834M10.6616 9.92102H10.6834M10.6834 9.92102H10.7052M10.6834 9.92102H10.7052M10.7052 9.92102H10.727M10.7052 9.92102H10.727M10.727 9.92102H10.7489M10.727 9.92102H10.7489M10.7489 9.92102H10.7707M10.7489 9.92102H10.7707M10.7707 9.92102H10.7925M10.7707 9.92102H10.7925M10.7925 9.92102H10.8143M10.7925 9.92102H10.8143M10.8143 9.92102H10.8362M10.8143 9.92102H10.8362M10.8362 9.92102H10.858M10.8362 9.92102H10.858M10.858 9.92102H10.8798M10.858 9.92102H10.8798M10.8798 9.92102H10.9016M10.8798 9.92102H10.9016M10.9016 9.92102H10.9234M10.9016 9.92102H10.9234M10.9234 9.92102H10.9453M10.9234 9.92102H10.9453M10.9453 9.92102H10.9671M10.9453 9.92102H10.9671M10.9671 9.92102H10.9889M10.9671 9.92102H10.9889M10.9889 9.92102H11.0107M10.9889 9.92102H11.0107M11.0107 9.92102H11.0325M11.0107 9.92102H11.0325M11.0325 9.92102H11.0544M11.0325 9.92102H11.0544M11.0544 9.92102H11.0762M11.0544 9.92102H11.0762M11.0762 9.92102H11.098M11.0762 9.92102H11.098M11.098 9.92102H11.1198M11.098 9.92102H11.1198M11.1198 9.92102H11.1416M11.1198 9.92102H11.1416M11.1416 9.92102H11.1635M11.1416 9.92102H11.1635M11.1635 9.92102H11.1853M11.1635 9.92102H11.1853M11.1853 9.92102H11.2071M11.1853 9.92102H11.2071M11.2071 9.92102H11.2289M11.2071 9.92102H11.2289M11.2289 9.92102H11.2508M11.2289 9.92102H11.2508M11.2508 9.92102H11.2726M11.2508 9.92102H11.2726M11.2726 9.92102H11.2944M11.2726 9.92102H11.2944M11.2944 9.92102H11.3162M11.2944 9.92102H11.3162M11.3162 9.92102H11.338M11.3162 9.92102H11.338M11.338 9.92102H11.3598M11.338 9.92102H11.3598M11.3598 9.92102H11.3817M11.3598 9.92102H11.3817M11.3817 9.92102H11.4035M11.3817 9.92102H11.4035M11.4035 9.92102H11.4253M11.4035 9.92102H11.4253M11.4253 9.92102H11.4471M11.4253 9.92102H11.4471M11.4471 9.92102H11.4689M11.4471 9.92102H11.4689M11.4689 9.92102H11.4908M11.4689 9.92102H11.4908M11.4908 9.92102H11.5126M11.4908 9.92102H11.5126M11.5126 9.92102H11.5344M11.5126 9.92102H11.5344M11.5344 9.92102H11.5562M11.5344 9.92102H11.5562M11.5562 9.92102H11.578M11.5562 9.92102H11.578M11.578 9.92102H11.5999M11.578 9.92102H11.5999M11.5999 9.92102H11.6217M11.5999 9.92102H11.6217M11.6217 9.92102H11.6435M11.6217 9.92102H11.6435M11.6435 9.92102H11.6653M11.6435 9.92102H11.6653M11.6653 9.92102H11.6871M11.6653 9.92102H11.6871M11.6871 9.92102H11.709M11.6871 9.92102H11.709M11.709 9.92102H11.7308M11.709 9.92102H11.7308M11.7308 9.92102H11.7526M11.7308 9.92102H11.7526M11.7526 9.92102H11.7744M11.7526 9.92102H11.7744M11.7744 9.92102H11.7962M11.7744 9.92102H11.7962M11.7962 9.92102H11.818M11.7962 9.92102H11.818M11.818 9.92102H11.8399M11.818 9.92102H11.8399M11.8399 9.92102H11.8617M11.8399 9.92102H11.8617M11.8617 9.92102H11.8835M11.8617 9.92102H11.8835M11.8835 9.92102H11.9053M11.8835 9.92102H11.9053M11.9053 9.92102H11.9271M11.9053 9.92102H11.9271M11.9271 9.92102H11.9489M11.9271 9.92102H11.9489M11.9489 9.92102H11.9708M11.9489 9.92102H11.9708M11.9708 9.92102H11.9926M11.9708 9.92102H11.9926M11.9926 9.92102H12.0144M11.9926 9.92102H12.0144M12.0144 9.92102H12.0362M12.0144 9.92102H12.0362M12.0362 9.92102H12.058M12.0362 9.92102H12.058M12.058 9.92102H12.0798M12.058 9.92102H12.0798M12.0798 9.92102H12.1017M12.0798 9.92102H12.1017M12.1017 9.92102H12.1235M12.1017 9.92102H12.1235M12.1235 9.92102H12.1453M12.1235 9.92102H12.1453M12.1453 9.92102H12.1671M12.1453 9.92102H12.1671M12.1671 9.92102H12.1889M12.1671 9.92102H12.1889M12.1889 9.92102H12.2107M12.1889 9.92102H12.2107M12.2107 9.92102H12.2325M12.2107 9.92102H12.2325M12.2325 9.92102H12.2544M12.2325 9.92102H12.2544M12.2544 9.92102H12.2762M12.2544 9.92102H12.2762M12.2762 9.92102H12.298M12.2762 9.92102H12.298M12.298 9.92102H12.3198M12.298 9.92102H12.3198M12.3198 9.92102H12.3416M12.3198 9.92102H12.3416M12.3416 9.92102H12.3634M12.3416 9.92102H12.3634M12.3634 9.92102H12.3853M12.3634 9.92102H12.3853M12.3853 9.92102H12.4071M12.3853 9.92102H12.4071M12.4071 9.92102H12.4289M12.4071 9.92102H12.4289M12.4289 9.92102H12.4507M12.4289 9.92102H12.4507M12.4507 9.92102H12.4725M12.4507 9.92102H12.4725M12.4725 9.92102H12.4943M12.4725 9.92102H12.4943M12.4943 9.92102H12.5161M12.4943 9.92102H12.5161M12.5161 9.92102H12.5379M12.5161 9.92102H12.5379M12.5379 9.92102H12.5598M12.5379 9.92102H12.5598M12.5598 9.92102H12.5816M12.5598 9.92102H12.5816M12.5816 9.92102H12.6034M12.5816 9.92102H12.6034M12.6034 9.92102H12.6252M12.6034 9.92102H12.6252M12.6252 9.92102H12.647M12.6252 9.92102H12.647M12.647 9.92102H12.6688M12.647 9.92102H12.6688M12.6688 9.92102H12.6906M12.6688 9.92102H12.6906M12.6906 9.92102H12.7124M12.6906 9.92102H12.7124M12.7124 9.92102H12.7343M12.7124 9.92102H12.7343M12.7343 9.92102H12.7561M12.7343 9.92102H12.7561M12.7561 9.92102H12.7779M12.7561 9.92102H12.7779M12.7779 9.92102H12.7997M12.7779 9.92102H12.7997M12.7997 9.92102H12.8215M12.7997 9.92102H12.8215M12.8215 9.92102H12.8433M12.8215 9.92102H12.8433M12.8433 9.92102H12.8651M12.8433 9.92102H12.8651M12.8651 9.92102H12.8869M12.8651 9.92102H12.8869M12.8869 9.92102H12.9087M12.8869 9.92102H12.9087M12.9087 9.92102H12.9306H12.9087Z" fill="#2D2A2A" stroke="#2D2A2A"/>
<path d="M56.9775 10.5164L56.9775 10.5164L56.971 10.5195C56.6996 10.6492 56.3573 10.7956 56.0293 10.868C55.6834 10.9445 55.4702 10.9128 55.3585 10.8383C51.6967 8.3628 48.4267 5.17976 45.5829 1.30505C45.6089 1.27822 45.6437 1.24754 45.6877 1.21397C45.8975 1.05389 46.1887 0.922466 46.3232 0.863961L46.3307 0.860685L46.3381 0.857164C46.6899 0.690136 47.0897 0.569675 47.4545 0.525763C47.4674 0.524377 47.4813 0.522797 47.4961 0.521116C47.5802 0.511557 47.6927 0.498758 47.8064 0.499949C47.8379 0.500279 47.8637 0.501748 47.8842 0.503693C50.7214 4.36845 53.9827 7.57168 57.6379 10.0886C57.6268 10.0978 57.6152 10.1072 57.6032 10.1168C57.4808 10.2141 57.3361 10.3093 57.2095 10.3858C57.1471 10.4235 57.0915 10.4553 57.0485 10.4789C57.027 10.4907 57.0093 10.5002 56.9959 10.5071C56.9846 10.513 56.9788 10.5158 56.9775 10.5164ZM47.9404 0.513349C47.9403 0.51342 47.9382 0.512881 47.9346 0.511521C47.9387 0.5126 47.9405 0.513279 47.9404 0.513349Z" fill="#2D2A2A" stroke="#2D2A2A"/>
<path d="M57.555 9.60454C57.555 9.60453 57.5546 9.60571 57.5534 9.60815C57.5542 9.60578 57.5549 9.60456 57.555 9.60454ZM57.3225 9.69424C57.3718 9.70358 57.4175 9.71509 57.4576 9.72775C56.03 11.3668 54.6038 13.0075 53.1778 14.648L53.1754 14.6508C51.7325 16.3107 50.2898 17.9703 48.8457 19.6282C48.3717 20.1692 47.672 20.4356 46.9928 20.4941C46.9672 20.4954 46.8891 20.4928 46.7864 20.4733C46.7371 20.464 46.6914 20.4525 46.6513 20.4398C48.0794 18.8003 49.5061 17.159 50.9326 15.5179L50.9335 15.5168L50.9338 15.5165C52.3766 13.8567 53.8192 12.1971 55.2632 10.5394C55.7369 9.99875 56.4418 9.73199 57.1161 9.67346C57.1419 9.67217 57.2199 9.67479 57.3225 9.69424ZM46.5098 20.3752C46.5099 20.3752 46.5113 20.3763 46.5137 20.3785C46.5108 20.3764 46.5096 20.3753 46.5098 20.3752ZM46.5539 20.563C46.5538 20.563 46.5543 20.5619 46.5555 20.5594C46.5547 20.5618 46.554 20.563 46.5539 20.563ZM57.5991 9.79232C57.599 9.79236 57.5975 9.79129 57.5952 9.78904C57.5981 9.79116 57.5993 9.79229 57.5991 9.79232Z" fill="#2D2A2A" stroke="#2D2A2A"/>
</g>
<defs>
<clipPath id="clip0">
<rect width="58.2798" height="21" fill="white"/>
</clipPath>
</defs>
</svg>
